<mxfile host="app.diagrams.net" modified="2024-03-05T16:10:00.137Z" agent="Mozilla/5.0 (Macintosh; Intel Mac OS X 10_15_7) AppleWebKit/537.36 (KHTML, like Gecko) Chrome/122.0.0.0 Safari/537.36" etag="JyMB49u7Cf4aXTTnrEsF" version="24.0.0" type="github">
  <diagram id="oAuHuwjXM5DOT20ScF70" name="Page-1">
    <mxGraphModel dx="2059" dy="1003" grid="1" gridSize="10" guides="1" tooltips="1" connect="1" arrows="1" fold="1" page="1" pageScale="1" pageWidth="850" pageHeight="1100" math="0" shadow="0">
      <root>
        <mxCell id="0" />
        <mxCell id="1" parent="0" />
        <mxCell id="9KokqQTZdwICB4fAT89v-7" value="" style="ellipse;whiteSpace=wrap;html=1;aspect=fixed;" vertex="1" parent="1">
          <mxGeometry x="185" y="495" width="270" height="270" as="geometry" />
        </mxCell>
        <mxCell id="sp-5pNt451_1ZDjbyw_R-27" value="" style="group" parent="1" vertex="1" connectable="0">
          <mxGeometry x="1230" y="450" width="349" height="280" as="geometry" />
        </mxCell>
        <mxCell id="sp-5pNt451_1ZDjbyw_R-9" value="" style="ellipse;shape=cloud;whiteSpace=wrap;html=1;" parent="sp-5pNt451_1ZDjbyw_R-27" vertex="1">
          <mxGeometry x="-121" y="10" width="470" height="270" as="geometry" />
        </mxCell>
        <mxCell id="1Di5xU04i7RZSqZTIgAf-3" value="" style="sketch=0;points=[[0,0,0],[0.25,0,0],[0.5,0,0],[0.75,0,0],[1,0,0],[0,1,0],[0.25,1,0],[0.5,1,0],[0.75,1,0],[1,1,0],[0,0.25,0],[0,0.5,0],[0,0.75,0],[1,0.25,0],[1,0.5,0],[1,0.75,0]];outlineConnect=0;fontColor=#232F3E;gradientColor=#F78E04;gradientDirection=north;fillColor=#D05C17;strokeColor=#ffffff;dashed=0;verticalLabelPosition=bottom;verticalAlign=top;align=center;html=1;fontSize=12;fontStyle=0;aspect=fixed;shape=mxgraph.aws4.resourceIcon;resIcon=mxgraph.aws4.ecs;" parent="sp-5pNt451_1ZDjbyw_R-27" vertex="1">
          <mxGeometry y="94.75" width="48" height="48" as="geometry" />
        </mxCell>
        <mxCell id="1Di5xU04i7RZSqZTIgAf-5" value="" style="outlineConnect=0;dashed=0;verticalLabelPosition=bottom;verticalAlign=top;align=center;html=1;shape=mxgraph.aws3.bucket_with_objects;fillColor=#E05243;gradientColor=none;" parent="sp-5pNt451_1ZDjbyw_R-27" vertex="1">
          <mxGeometry x="220" y="93" width="50" height="51.5" as="geometry" />
        </mxCell>
        <mxCell id="1Di5xU04i7RZSqZTIgAf-7" value="" style="outlineConnect=0;dashed=0;verticalLabelPosition=bottom;verticalAlign=top;align=center;html=1;shape=mxgraph.aws3.rds;fillColor=#2E73B8;gradientColor=none;" parent="sp-5pNt451_1ZDjbyw_R-27" vertex="1">
          <mxGeometry x="140" y="23" width="50" height="61" as="geometry" />
        </mxCell>
        <mxCell id="1Di5xU04i7RZSqZTIgAf-8" value="" style="outlineConnect=0;dashed=0;verticalLabelPosition=bottom;verticalAlign=top;align=center;html=1;shape=mxgraph.aws3.ec2;fillColor=#F58534;gradientColor=none;" parent="sp-5pNt451_1ZDjbyw_R-27" vertex="1">
          <mxGeometry x="30" width="60" height="63" as="geometry" />
        </mxCell>
        <mxCell id="1Di5xU04i7RZSqZTIgAf-9" value="AWS Cloud" style="sketch=0;outlineConnect=0;fontColor=#232F3E;gradientColor=none;strokeColor=#232F3E;fillColor=#ffffff;dashed=0;verticalLabelPosition=bottom;verticalAlign=top;align=center;html=1;fontSize=12;fontStyle=0;aspect=fixed;shape=mxgraph.aws4.resourceIcon;resIcon=mxgraph.aws4.aws_cloud;" parent="sp-5pNt451_1ZDjbyw_R-27" vertex="1">
          <mxGeometry x="155" y="158" width="60" height="60" as="geometry" />
        </mxCell>
        <mxCell id="sp-5pNt451_1ZDjbyw_R-21" value="" style="shape=image;html=1;verticalAlign=top;verticalLabelPosition=bottom;labelBackgroundColor=#ffffff;imageAspect=0;aspect=fixed;image=https://cdn1.iconfinder.com/data/icons/iconoir-vol-3/24/question-mark-128.png" parent="sp-5pNt451_1ZDjbyw_R-27" vertex="1">
          <mxGeometry x="97" y="100" width="58" height="58" as="geometry" />
        </mxCell>
        <mxCell id="0ugB0ae400mzICG-W8F5-55" style="edgeStyle=orthogonalEdgeStyle;rounded=0;orthogonalLoop=1;jettySize=auto;html=1;entryX=0;entryY=0.5;entryDx=0;entryDy=0;strokeColor=#000000;startArrow=none;startFill=0;" parent="1" source="0ugB0ae400mzICG-W8F5-1" target="0ugB0ae400mzICG-W8F5-7" edge="1">
          <mxGeometry relative="1" as="geometry" />
        </mxCell>
        <mxCell id="0ugB0ae400mzICG-W8F5-56" style="edgeStyle=orthogonalEdgeStyle;rounded=0;orthogonalLoop=1;jettySize=auto;html=1;entryX=0;entryY=0.5;entryDx=0;entryDy=0;strokeColor=#000000;startArrow=none;startFill=0;" parent="1" source="0ugB0ae400mzICG-W8F5-1" target="0ugB0ae400mzICG-W8F5-6" edge="1">
          <mxGeometry relative="1" as="geometry" />
        </mxCell>
        <mxCell id="0ugB0ae400mzICG-W8F5-57" style="edgeStyle=orthogonalEdgeStyle;rounded=0;orthogonalLoop=1;jettySize=auto;html=1;entryX=0;entryY=0.5;entryDx=0;entryDy=0;strokeColor=#000000;startArrow=none;startFill=0;" parent="1" source="0ugB0ae400mzICG-W8F5-1" target="0ugB0ae400mzICG-W8F5-5" edge="1">
          <mxGeometry relative="1" as="geometry" />
        </mxCell>
        <mxCell id="0ugB0ae400mzICG-W8F5-58" style="edgeStyle=orthogonalEdgeStyle;rounded=0;orthogonalLoop=1;jettySize=auto;html=1;entryX=0;entryY=0.5;entryDx=0;entryDy=0;strokeColor=#000000;startArrow=none;startFill=0;" parent="1" source="0ugB0ae400mzICG-W8F5-1" target="0ugB0ae400mzICG-W8F5-4" edge="1">
          <mxGeometry relative="1" as="geometry" />
        </mxCell>
        <mxCell id="0ugB0ae400mzICG-W8F5-59" style="edgeStyle=orthogonalEdgeStyle;rounded=0;orthogonalLoop=1;jettySize=auto;html=1;entryX=0;entryY=0.5;entryDx=0;entryDy=0;strokeColor=#000000;startArrow=none;startFill=0;" parent="1" source="0ugB0ae400mzICG-W8F5-1" target="0ugB0ae400mzICG-W8F5-3" edge="1">
          <mxGeometry relative="1" as="geometry" />
        </mxCell>
        <mxCell id="0ugB0ae400mzICG-W8F5-1" value="wagon" style="rounded=1;whiteSpace=wrap;html=1;fillColor=#dae8fc;strokeColor=#6c8ebf;" parent="1" vertex="1">
          <mxGeometry x="256.5" y="600" width="120" height="60" as="geometry" />
        </mxCell>
        <mxCell id="sp-5pNt451_1ZDjbyw_R-39" style="edgeStyle=none;rounded=0;orthogonalLoop=1;jettySize=auto;html=1;strokeColor=#99004D;startArrow=none;startFill=0;entryX=0.16;entryY=0.55;entryDx=0;entryDy=0;entryPerimeter=0;" parent="1" source="0ugB0ae400mzICG-W8F5-3" target="sp-5pNt451_1ZDjbyw_R-9" edge="1">
          <mxGeometry relative="1" as="geometry">
            <mxPoint x="1070" y="570" as="targetPoint" />
          </mxGeometry>
        </mxCell>
        <mxCell id="0ugB0ae400mzICG-W8F5-3" value="ECS" style="rounded=1;whiteSpace=wrap;html=1;" parent="1" vertex="1">
          <mxGeometry x="800" y="380" width="120" height="60" as="geometry" />
        </mxCell>
        <mxCell id="sp-5pNt451_1ZDjbyw_R-38" style="edgeStyle=none;rounded=0;orthogonalLoop=1;jettySize=auto;html=1;strokeColor=#99004D;startArrow=none;startFill=0;entryX=0.16;entryY=0.55;entryDx=0;entryDy=0;entryPerimeter=0;" parent="1" source="0ugB0ae400mzICG-W8F5-4" target="sp-5pNt451_1ZDjbyw_R-9" edge="1">
          <mxGeometry relative="1" as="geometry">
            <mxPoint x="1070" y="570" as="targetPoint" />
          </mxGeometry>
        </mxCell>
        <mxCell id="0ugB0ae400mzICG-W8F5-4" value="Common Cluster" style="rounded=1;whiteSpace=wrap;html=1;" parent="1" vertex="1">
          <mxGeometry x="800" y="490" width="120" height="60" as="geometry" />
        </mxCell>
        <mxCell id="sp-5pNt451_1ZDjbyw_R-37" style="edgeStyle=none;rounded=0;orthogonalLoop=1;jettySize=auto;html=1;strokeColor=#99004D;startArrow=none;startFill=0;entryX=0.146;entryY=0.555;entryDx=0;entryDy=0;entryPerimeter=0;" parent="1" source="0ugB0ae400mzICG-W8F5-5" target="sp-5pNt451_1ZDjbyw_R-9" edge="1">
          <mxGeometry relative="1" as="geometry">
            <mxPoint x="1070" y="570" as="targetPoint" />
          </mxGeometry>
        </mxCell>
        <mxCell id="0ugB0ae400mzICG-W8F5-5" value="Common DB" style="rounded=1;whiteSpace=wrap;html=1;" parent="1" vertex="1">
          <mxGeometry x="800" y="600" width="120" height="60" as="geometry" />
        </mxCell>
        <mxCell id="sp-5pNt451_1ZDjbyw_R-36" style="edgeStyle=none;rounded=0;orthogonalLoop=1;jettySize=auto;html=1;strokeColor=#99004D;startArrow=none;startFill=0;entryX=0.16;entryY=0.55;entryDx=0;entryDy=0;entryPerimeter=0;" parent="1" source="0ugB0ae400mzICG-W8F5-6" target="sp-5pNt451_1ZDjbyw_R-9" edge="1">
          <mxGeometry relative="1" as="geometry">
            <mxPoint x="1070" y="570" as="targetPoint" />
          </mxGeometry>
        </mxCell>
        <mxCell id="0ugB0ae400mzICG-W8F5-6" value="Common X,Y,Z" style="rounded=1;whiteSpace=wrap;html=1;" parent="1" vertex="1">
          <mxGeometry x="800" y="710" width="120" height="60" as="geometry" />
        </mxCell>
        <mxCell id="sp-5pNt451_1ZDjbyw_R-35" style="edgeStyle=none;rounded=0;orthogonalLoop=1;jettySize=auto;html=1;entryX=0.133;entryY=0.559;entryDx=0;entryDy=0;entryPerimeter=0;strokeColor=#99004D;startArrow=none;startFill=0;" parent="1" source="0ugB0ae400mzICG-W8F5-7" target="sp-5pNt451_1ZDjbyw_R-9" edge="1">
          <mxGeometry relative="1" as="geometry" />
        </mxCell>
        <mxCell id="0ugB0ae400mzICG-W8F5-7" value="AWS Services (RDS, KMS, S3, ...)" style="rounded=1;whiteSpace=wrap;html=1;" parent="1" vertex="1">
          <mxGeometry x="800" y="820" width="120" height="60" as="geometry" />
        </mxCell>
        <mxCell id="9KokqQTZdwICB4fAT89v-9" style="edgeStyle=orthogonalEdgeStyle;rounded=0;orthogonalLoop=1;jettySize=auto;html=1;entryX=0;entryY=0.5;entryDx=0;entryDy=0;" edge="1" parent="1" source="0ugB0ae400mzICG-W8F5-20" target="0ugB0ae400mzICG-W8F5-1">
          <mxGeometry relative="1" as="geometry" />
        </mxCell>
        <mxCell id="0ugB0ae400mzICG-W8F5-20" value="Engineers" style="shape=umlActor;verticalLabelPosition=bottom;verticalAlign=top;html=1;outlineConnect=0;" parent="1" vertex="1">
          <mxGeometry x="50" y="600" width="30" height="60" as="geometry" />
        </mxCell>
        <mxCell id="1Di5xU04i7RZSqZTIgAf-1" value="" style="endArrow=none;dashed=1;html=1;dashPattern=1 3;strokeWidth=2;rounded=0;" parent="1" edge="1">
          <mxGeometry width="50" height="50" relative="1" as="geometry">
            <mxPoint x="535" y="1000" as="sourcePoint" />
            <mxPoint x="535" y="140" as="targetPoint" />
          </mxGeometry>
        </mxCell>
        <mxCell id="1Di5xU04i7RZSqZTIgAf-24" value="Assumed Role" style="sketch=0;outlineConnect=0;fontColor=#232F3E;gradientColor=none;fillColor=#BF0816;strokeColor=none;dashed=0;verticalLabelPosition=bottom;verticalAlign=top;align=center;html=1;fontSize=12;fontStyle=0;aspect=fixed;pointerEvents=1;shape=mxgraph.aws4.role;" parent="1" vertex="1">
          <mxGeometry x="185" y="534.9200000000001" width="53.47" height="30.16" as="geometry" />
        </mxCell>
        <mxCell id="9KokqQTZdwICB4fAT89v-1" value="" style="endArrow=none;dashed=1;html=1;dashPattern=1 3;strokeWidth=2;rounded=0;" edge="1" parent="1">
          <mxGeometry width="50" height="50" relative="1" as="geometry">
            <mxPoint x="1060" y="1000" as="sourcePoint" />
            <mxPoint x="1060" y="140" as="targetPoint" />
          </mxGeometry>
        </mxCell>
        <mxCell id="9KokqQTZdwICB4fAT89v-2" value="" style="outlineConnect=0;dashed=0;verticalLabelPosition=bottom;verticalAlign=top;align=center;html=1;shape=mxgraph.aws3.ecr_registry;fillColor=#F58534;gradientColor=none;" vertex="1" parent="1">
          <mxGeometry x="420" y="540" width="42" height="39" as="geometry" />
        </mxCell>
        <mxCell id="9KokqQTZdwICB4fAT89v-3" value="" style="shape=image;html=1;verticalAlign=top;verticalLabelPosition=bottom;labelBackgroundColor=#ffffff;imageAspect=0;aspect=fixed;image=https://cdn4.iconfinder.com/data/icons/ionicons/512/icon-social-github-128.png" vertex="1" parent="1">
          <mxGeometry x="292.5" y="730" width="55" height="55" as="geometry" />
        </mxCell>
        <mxCell id="9KokqQTZdwICB4fAT89v-4" value="" style="image;sketch=0;aspect=fixed;html=1;points=[];align=center;fontSize=12;image=img/lib/mscae/Docker.svg;" vertex="1" parent="1">
          <mxGeometry x="405" y="697" width="50" height="41" as="geometry" />
        </mxCell>
        <mxCell id="9KokqQTZdwICB4fAT89v-6" value="" style="shape=image;imageAspect=0;aspect=fixed;verticalLabelPosition=bottom;verticalAlign=top;image=data:image/webp,UklGRlTeAABXRUJQVlA4TEjeAAAvHUN4EI1ActtIkgQpPEvB9f8P52wVM3OP6P8E8F/PzBzJmvlKlszgDILEHR10KLBlOlUureOKGRtF4ns1K4YjjElNHptROwJciRt6qe/vx11Gow/pZajSQMdrx/mej2ZmwYfvSQIzWTJDknAmuZ+bOShAm+hzTgGUttVrg340Q1G9H+IjDROdHVFRyQetPsVH5SyFLIjSD9p6Yx7jAw+roM+hvH2khbk3BD5qC/cGEuqhstff0t6bKEC76q+dSK9tW9WaibtDkp/pvypKiCBn7HGi6D2DAuBItq1a6Y+eiDoh4Z3/ePDI3XZd3F7JUiRZta1gUU8+dQDu7u8dufMfxv48NJtF87hu9H8C8FEqSu+Mpg2uJymKoaX/al+3pY029PkYTYEtl/pSAVBL3xqjKKBZ3YtL4Fi3OBlDFAXOsbQRiQDfXMdlZIpAQG+51v2YEInkpyN3MeKbuwAawHm3RCK9lt+XiaSNaEsbLU0A4jySjZBIJJTx4PWAtmz73kQi1cFTpx3XkUikPF33G97yto24jls8DfbiIJFI2ZWXsVmltMlXlE2khQX4on+fJhIikQg7LFNpR3wFylEb545jRC515FmgbJbxBADa4DbECHhSvg9AuQ+U32XK7A9NcJBIpDoRmfSdt7i13LKKp3duy/n+MmV6PJZjE+J1PI2E9ret0ptvs/y+c7jzddWdXdnJ9Hzs8Rgwy6xvvvIkjkL8Zf06encpPpa/WF1+lp3Mw79zANhfKpbt5QEAb8dS+0thXXlb3pYpDZglx1JS2/77mE+iytMHf5chNuVIGqBoSG3+9Lbpg7dTb7W/1INdOSrWRcrGbHpfS8n0ddhWUlI+mOXtACjKOpV4uqtpWaWhAIA0FGUC4KN1QyaeGsyGDUNkyooXzQMMijYCUlJSz9jlmRTmeluf0TRMVjQAMBgmQQE0rg2YrUAxTPtg1QLJbRtBkiz//9VV3UB7du8RMQH5O4EtUJAh5CozKHhlBlFAHQE8IyNNHzxYSH3fhb5BaL/rJadnvz9aSfApXz+coh1yzTsqzYSAtlqhC9x7xUypokOiQFu+TntDFdsMPsEFpgCdyLtzpGvhdWYhSSDL/KiQZQOQ/5wbs/3LLclu/u/7Lti8C5urq5p74JzBwwxmZmaHmZmZmZmZ8TDDMDczFVdtqM1rve+H9V/vglqG2aFHyhzJFTbDOpoOx9TS7EDrzAkzVTgr/B6PKvCGGdaRpgMHOtx9ojJ+DI3SobZ2GGcHdrjM/pvtN4wTzTJ0GA/sQIWZDlQ4O5zdUp8w9ji4RjpUisz2VDRb8y3MfSSPmWkr2fOxAoY3YOiwGd5IZnZ/2IEOx2wfaIfrU3QqUnV0yNThLMVzpLSOzHZ/6B1mTtpSKmy294mnQhNVYKQVTsxMO2DqcEYq0w7PcXCOlA53OFUfSpHZ7g5XSzF1GCvSDjMnMzmqMMPsDx3OWBPDOtCR5oQZ1qHAoVHaSo2UHY7ZbkU95g6nP0wpmnBidgXM2LZUkmeFOR88SZKt2rZtW2al1tb7GGMuxsPMzIxJO4k5OaAo8zmxtdYOHcYNk2HM0XutxT3Gtu3akiRJc67zVNUDY0RFMIgUOr+GXFX//+9MSrRtHZOk/YcdUVVt27Z7ZBsju2e2bdvWyLZtuzutsDMz/gmwqv//uk3Ke91dIjfunYvDtqMg6iHQ3HVW7t/3fp4/rP2+ZT64RmfmFHB3PYS5cXd3h+jucgDEh+7W3OFOK22vjTsNaySHOBdpo50AMtOwxhwEyd01Et05hZWEW1yLG3HdSHR3J27EdeJENLl7d/foEl3yfRE3zgHgblGju7u7xnU4AHeXqJHEdSfcIbrPRSJqnIi7O2fgEjVuxD3CkWxbtdLnvvP9456Tw/xTBkHqZO5y6x3GbdtIovZ8b/+9riVAkmTaVj/btm3btm3btm3b79u2bdv/2bYmgBf0/8slSW7e9z18Tp5kzqos6mqmmemeZhpmZtjdYWYt7w7zMg1TD89sT3fPNEPNNDN3V2N1dXFlVXKePHze9704kCc7NyXbV19vzEQ4zQyT4e01M5Rh4ULM0ph9zMfQhld3DMewEAaxphVR3jAz40TU3glbUOYR640J4bnaMNsZ4REzlaDNzHZvrBbK7B5HL5RYPeb3QrR4JZwyM9uihZYZSxFldpqdIc9elJnpvZjdsFizDrehzUyCNrvN23L0xPaY3WanoSNUZlwqMTOrzTwRZRBLZU7DkpjpCBamzR6rTWVmELWYWeobs8VS7wWW2RM7C2lmtkVpZkpHMIxYaehQ9JoZ2uypGzGm2WKeXcOCWTAjbDOPaKHMo1C0wkqzJ8y6qG07Jsm27uf9vv+PiIyIjHSpu6qac69pz7lt2/Y+su29T3Vm2zaXbXutqmpVOsP4v+99NVjb9rxtJN33830/QNKpkl25rOqePGPSs8OZraUFlNQ5x8rJQSIB/P/3xARourZ/tSRN+f333idOREq5duPu7u7ubkPGfAY+gn8jvohraUbE0b33f3D2/+wjOYnZg7Ti0j7D3d1da63EfliSNLPEpYpBjHAYtnfi3t6zCty9Ctc8OCdGMcHdLRgF7pIjLGGQgbtsLNFRrNVanwB3t1G71agVdyfXat24W+DSmriP9HUZ9lq4k4ETibyyFjp1icASd3fIxgJ3CTxxKnAC/+MOI0+cmbu7u0NrrXdahUvrGaEj92p3mWKJ1XpnWI1wMnCikMTdXQIN3N0hXyxxlxi1a65Vo8CLArb/hhvrf84ZJTOZZIImda9t27Zt27Zt215d+65x2/Vum2KVuknaeCYzc2CxjSRBkiRa1D5O7N09DV+ew6TLEQSAAJuLbTsfsG3btpPqO+5ou7u12XqAR04AEKi0/0v7v7T/S+Oy+3gEBBYQyBJIEci8PgLJUxKIEpgjMCAQPtuRJyPQItC8EIE2gQaB2Q8hwDmfC4ElCSxLYKm3e0oCixFYmkDhsZzysRBIf457j3y2I0fiZNdDoEagvvtZCMwQqBKYIDBMYIhA+T8g0C2ld04CyxFYi8CGFyWwzI9CYEUCeQIRePLZnn1PAj8T+PP0BL4n8PfpL+TqUokJFECFwEYE1p0Bb75/BL6Dl/AI3sK4i0slGlACLTCcySk0OMIWfIRncAvuw6xvSyUesAFrUANGDTHPYZNw4+Bn8WqpxA6Ohwb9FtUMCF/gBAzU8GepRAFWEARmd1MzZmtwCM7AjCtLJU3wAo+qamYtQD803M6LpRI3BIAvCCthDklKFBIRUUlQAsRIBHZQywGO4RQXCcCkLIBXYR7xIAxJeEAS3IaSCg4slcinDoFg2qISDdtUiSgUg3r8piFzYEYdCunKYqwoCViEv4Txi0EhyG1lB/NCxTUluUhgqUkqJEdmZSKa+yR4BakVnFcqCUPs/NtUogkbymWyGRPoyCwolgRL9Cw4MN/A/KBLK3nKXLEgqzC1xMLErcWkKJO3MaiVJ7JGekXrbvSe6gPWi9YTA0RJYh2TCnY7KKy6STo4xB/IcaWSDqS8WYmG1X2yOpYxS4NLMUctHCZYtDD//UPKm79BeCJcasmBkkM7i6Wdd+aisWPHChumpY+zfixBhEOqp6wPk11aO1hOrKBWDlZWfVBWLs5JAamqroSa/GhCKBYJhiFxd06r+3zuQ+C2O4BHKdNSbH+rtdsHf7pt/4sZ/WNj5I9QJ0GxWW03JY2KteKBGyUhlCwHqpKAmQdkc/V8jFW+hpW/wgpfYfkvtNLX0C5K2QgRP1gJ5w4QOJjArqWyus/nLgQuJrABPFpjq7a5oWa0j7iLn5Sd/kTr97ZL6ppmE7qDtCA3pYAvWM5KBskMzwd2XmSRFb+cmWEWmFe0xGqtqJCgG0AgQeAwAotKXXWfbEfgotuCRyksShKMd5ufG/v9ZdnOR1TXe0O+pCtspQZLS+GQZSADScvJ2t6aHDB7MKOcJ7o4GgJtMhxLGZETgMCOT6x0VffJygTOIrAVPFpCi7aGLfbR3f38irGzT6qup7Tm0FeLa7C03Qn3FjJXtZ5M2lucMBfO5ExLGscSosxlfVwO8FgIbF2KqvtkIYEzvjPI5kDTAJELGJMj+JPNP3QU5l49O7tVXc+peTe4FGJpv5lma/As3Vuf3qbBiWtnFilxaGwLFxLpAvDSgNFJdZ8EnwSBwyGX2ckAsB7ggiVArCeSAHNWkyWNcRuS7K26qxnq5UP60UUXKUOeZI2akDVBiztbc53ruJMUJscFgJsXcQEgcjwXRWC/X49AGs51G+gL1olK0JHAvQHvTONKk2NwXRLIASFHnY2Qxi1K266cHa3Uzt/LOHzO7iOpIO/2VkD47Th/m9NLI3OSSqrTq9/kk6g8dfUx/9R9shmBM74wOGVs2rpAio4M7gt5Z8k7Ftxdr65BZvABdJbvDJtmV1rZTki1ba+6651xt/f68bOuD+li6RkGQZwIujCACAiKAeAIU7sjZLqxdnv7J+4hSa2H3rnykC5Lquacuk9WJnDhC4VTPdRH9A+6kXvh9S6Sdzq5x8miXAPQOmLmbc3XD+8KIaAYAIQQMoBlbSvcc2X4izOTLhnj3pWA3A1yhCgWVAxgp0MlJOVqJIkBQwGC6OrrSijFJOnqIyOBYh9rsKpM3enyv/He2zd1j8ak18OQAhWRJeD1TN0nSQInEtgdTnmQj9YGBdFRxH2M3p7oboL5wKnWRtMksCDoAtYdb/oHVlCnQxIYDR17nOYOw21c6G1/Co0C3M+CnAiC5JIcNWSISiL2oDx0csOQEqVReQlQAPgAniCUt3xdYV0yBkWoCOUG3uj+fT6VcpnfPO7zwN0rWWt69VVc4pEcdeaXfm4Cx/8goOt5oHeng7hH5B0I7ivXUbnmrYPGQI9tfDXo3RXvu+gHDMYKUiRhczuV7S+V1Ie0o9sKEgduFlpZUDGGiIkohktcImo3NAOOYbSCBSGTNdAJrOkFQBLKoRj5x4vi+Sp/vOn12avg5X39T96eOXcPEXUAYzIEtHfzSamkB9GjQedBPugTdCjdg8Y7lNzLZAFwqu1EwiSAZJLcD2uR9w0dZz1M2aqWJ3kZa9yGdXfiNrg525oXQ79kCLf6KOFD97DINbxdTEQwxFCC4EArGMWDAzoNKBlX0fGq4HhReLzIPr1a+9t/ILy43G883MOhxTkK+lWh4BwZArqtOKS5QgxIiR4d03sjQ92j4N6ByyDabzQIcIAZJpIJtuoz3vRh2tPm03yBrkhiQA7rmHsZewVB0g7bh0S4kVQEdKeBjtKsByWS2kMJ4FCQCAav3WsvjgfYx5NtvMqer9b4zu9+uMvo67ImeP9kUMQHMlQCxO4IgsFWYX3mdWQM3T1wL8ClJ8WoJygBDEZVByCSVZmryHF1wBY0NIMzBT32vpYaP1zh/F3k9D3D6MXUMAg5J5EDQ8+8sY1FU5aCxNYaguD11RzD59grnHNc/T77rtvLF5dxvEkRecyQsCUg6dwXpZI2RF5FQSaB/sBSc/fI25NcHpnYG4hAh1GVQcYcl7kq5koyJwLRBgNclJuD1HHZp19d0gWEp8wRVDWAHFMKimzUyrLFKvT6KOlD3g3yDN+TdRMuT0vyptu47MSuCLD026t4ol3NQ8FmfcvihSN27i64FPDae4E2hiENw3c5HnMMZpVMfyOaNBIzeDA9r9G13lzG/EPm639ScPuL4hEBORVIDe97tMZ6QXQsVnIkQZ7no/+y4E6LmG4jh64iZwm2YcMNdZ9sTmB30CebaEZtVM72YDxf/JdaWQIWZNFg0Im5I7NF1miRwCYKAY90I54fKZc8fzpKXhH0EPkNuBpXjenFQQmQSJhT8ImbM64ZoiaNPNsPFR0ZuMCzLSVE4CACq4LKMBBJcrap7ohG4ds/TwnEtbTUKhYL5yBNAhkkqYGiQMQA5DOm8c5lzB+WeQ7J74oOjYWLbJwk6irmaAJphc8kgr5llvFAGCkIOgMIhKWBuk9WeT6g63UFC8skO42OANniDfKAqJJSbBrOEzYPpKKjJFoQ7FQGFiiMOvB0uPGG8Dey34OU4QDkBznnOp5xxRzwAj6VCGlH2Nf5FCgyrucn8j8E1iKwPJzmAhwZXHJScisiD7GDJpqGC4aLAysuFlhdDDODgDlSP81X16L9RHhVMMVFcHE8SkSRmAgdvra89i1/Hod+M43OQGDI/RDY4rGAykSwaeeB59gd5AQ9agCooLBzY8zGIKjqKw02rwbi09Fjvlh0P/3D9kI15CeCbc+4DTp8MefYxxQGhINHMgDzzofA4qCzmeLCUurIDb4npwQyCvENKEQaLiqSA1WwmljZITJYlQCMLY6wxHzKfIBYr2YxyGfayCbJGQ/frESKTx9k7QtRzZl253qAEXQ2jwwcGSwl8gtFEQNEOZY1x6Zu0Z0BIi3iQ4XyHnnYEeFhUZ9+2vw7VEM+i9vJdJHRCYKvJoFpvSk+vTeQI6gHnAnGHM9W5LRI/VZHIF1aeSTEAL6LKdoKUpTVqlgAv+UX/1uYJMCU2YSH4qkg5Cca57RwhsGHt1ofXmVF6+5YfIBc+OV2CjLPZY26B1wmDzHAgAzSSPOILXptPID3KJMvqKhoJZGUhI1DQ9WQHxw+UkRh+Hjz9Vp7Y+D1ShJyYKoDp/N9BZnxqW6UjMS6mhiAaGy5FFHaRQTQx0ITvZ/npignfPcrUgHyGezGniABXy9E3+Wqrax+eqqGM8FHmHY5/1fYIFEn0FHMMgBA9w8E+mANQQTALx+KCcHyPipKaIrBIOQHYXeG/Kzw/Ubsu1xp4R+2KsOZ4LvH+b/CxohMkhG0iYAB0JsHoKKMjK5EgH2RWD+UopVK1F6k6q2GfHZoaDRRuG+hkRQMeudvrLQRjDU6E7z2N/AC/gcMNoIN+1QBoJGNbbOJmBf2vFHEYGxgkAog6q19nQTDC/lBTTTlDPdNlEiLpa/+tx+svsPVB6qMAjzyNrB8cAUZKcyr0AwAHDHaSiIWboTDSkW0tsNE3wCaMgleZA7kV0tciVbcN7G9nYss+0hd78z/9e9yXqjP1ssIOBM8vZ2zgSsK5oQxmzaNrwGA0FRJ2AnPVQOHok2+SQX2JzWbM8y9XbGFy0F7ohr3LWxvN/WkXR46vH0n8+G91Ot7Sf0O4Z+stq++/ZSmQs4Et30NnLxdqO4R1kUPzYIIAgC/SXUkAmpsBP384fBbLK8Ri9ZtSRvKjchheGwQ9w3URC6hlXZ5p+PbD9IfHsz7QLvdmPqJ8Obq1WZTZAhuehoCIYF74RhKEdni2MFeKosbJNhFibljHDeGir5j0YEopWo5h7WFKg2zY12p/jD0+tTyVInjkqpAwX0DRTap3p6UuxMhGasXABgjdK1q5U52n06RjvoM1dkLI/BxKRoCDxIYdzCmkI0TgCtxmslXzQNF0XTx8BhMBk9fBHvxIWnDBdUFhRbblrWX9nlP25V89NIVLoeDuG+hiKDtvdy3l8qqcEwnap/TeuyYy1dtIegMBO4rPUOgSuB6OEb50jWiffqejQKg6DGlhUfzacQIWuQXC4uqumjhA89jncV4x+meOi0Hz3+05WdjimtBpnmAEwG++OoEv1+joagbbQtOiQB0JvHlw2QnzzuevkpXqrPTE3iy1AyB6wh87xDqrI4LjoE6gqZQBqwWSzteGWMBV2tkQWWHDZVhhyIztIlOq85pvMwSnXO56cu6yy3pYEi8cFElIl4Dd7OU810rFfjAWPpzlFfIe0Xv+DHTVtgLlCGvCZrTk0l6Ieu+dbhHf5T2dyk8qU5A4HEC9dIyBC4AACM1KGxcsbBu6eKG4aAI2sl/8+QxTh1e2+k2BaShEhX01NZpjGkSTcR/o8CWPrffv+5z83Xq8dUDF0kyjkeNcLNIIIkh80idniU+sNHPy6bDnKmmwrxWJEMl8ztirQA3KGKqajUsvZV8aDN1vb+kkzwxzHIGzz7OIsnzrxAP1QmBPoF7SskQeI7AMw7IKH3gaMWJ7uCkK6fBPGImnDlcQOogNJCaZZIQqC78jlJoNu1wsZJvgLTuky/JOOktvAsqhwREDNwrEpjrkNfIKtfq94sA37WrLcXQHFZrP1/egkIp4cCxmai7KNfnRe89T9i4YKKlbJlc/iENlMt4Zyzn3f/kgw/EDzK5dCcgcM2/VTqGwMkEZgAY09dTx2wl7bmhKwNz4HRy3jADVCIULnpmOH1zXUrElb6UXdrzDutz8sn+acEVwYOpbpGIKjBWDqsHgSzLD4c8f2YYmmVs+LTylFglI0XgKBl/fl7i4Hrl+0ySaMl6qdcWFHauJrH/6dZ7b/PwPmUknnZxRmD0tZWKITD9AwBA7Em/26V3Z+A9zbzz6r1UF1jttpUgIqcdWWNn6SLrHkwCLio8wzERuFPlgaUOUz0wicsPwH/GoPVFtb5QHu/fQTDBmK3O3svM5Cnuo6XQ76fC+Itzo9PrZVy/ahW3UG1hzkAOjp/vrrM0ZyBwOYFGaZhvkMDdDlMKwfuq3m91fGQDJ12NZwFO+SKIPfQAHhTQlYXlD9XPBTVaCXcqkuFrzI4g2lVAZNMIWz4HLZe5Z7P9DxbeOV+ZqREbajhqWUdoGHXztbR+LcstykM+ieKDv/bL0yQnt53dfSrx1Ib+RAAXGeQS+JbAHaVhXhiBeQfDDrqCRUFH0ADnhZVP0wB8CX8xTbQQ4IPUU20fWuxXu1vOjIiJUd2hBV+4wGFIBDAIS/jyWb1K28l28no3XbctVtM6ps5ho4RCxJLaFmSMzG23o1v4NrEubeYZL7+il8GY+q7FyPFuXyVBnej6cP8DKv1CYCcC5z98UBkMUHm+73t9r8t8nk+iPq0XxMA69ejRqZIuBzFUq7FO03X3wbPBOVI0EwcUNwRYlFMKgNAfFXn30nxyP359OOlmW6TwqYaZP5ksVjXQvW97l/FjN4PPWwa1t9Ayr7BKTbVfkQ5+j5tPrzbt9dkqkIsEnibwgnf5sQisAFfX6ni2LEeZ0iAYlY4U1IUncVYZoKRkWzA8vH0eZUw55mHz/myOKs3MwbVwnQglzBEDMPiRTh3CdbTDT65kvjUpS2NblEFCERxT8l00unjZLU8ts3GVijziFcigU0i5Np5/vO2bV1jbH/BYscIrSGQV78/ZWT473wJsoA5X9eU/S5oOI7YZjBoOL14Q3+PWb70IECvHCSgsgqg25yunlKOu5qArzwj1cCjcqClEaIBqQl/OKvdzxf/8JxOt+yhfO0S4Wm90t/j8cln9J0uDWs0jBF4yQEhF7Vzv/XA/568SQi5bZoU2GWz8NySxmYbgFq9t5ZU7uwICZ7gWoFmoXNTreqENx6Q7pdf5bVjkG3yvRTzs+Vf9zOPp3QB/w5I+m/jULJcDKjRnJAXXGcQkwBlAs1SUY/zHe1f3tQ9QK88ORXB9lYTB3bRXnfq64bvkkZUYyVBSrL7ge59cZb9hMTKVetFRtIaNlaA+dmnUpJytRWROm4sqrdFfpHQXPirPUjiaMtfbzhG9QrIXOk40CFNAF/h5gAW+SikeEoF901CMgI0JwLWlMpqxKTfpBIDEXgIKucNmhgQBQiyEMKt/4+jzNMk3h2WCBuRYaogLzuFr8oZPLOzA6iW13J2IVZdtb+w7SkfivOol5j7WNgMo5yVTbvqJzdNYKNKIcWM9GxfmHVkAUb/yKJhX5q3ZwN64FK57GVxe0CVJmoMSAPy1faIrPc2UyK20JbdyzMjJfTwkKQXeq9FpU0ZROQAyNOXboXA9YefpAAaAfVUDXoySehPIZJRVGPDcOBnla8QAi/Ahj/oqzULfLnOXJTWP9/gvhzxv2omZvdDe8uIAK1lVkBuaYth1DSPu9Q3u1nh6qv2Qn8kBe7+yDZDNSLcnf9lCNfcC3E2SQl7TPB0Gq9oqdL3rRWuotaO+aIxIgi1Jx9thKYCerTy2bBnQz5owZzjHtWLGsOTDB/gG3EM7E1LJCkclVuU7y5IkqkyFU1LDWYlN5NfY88RzHDEQB9TBBOCqWpZLfQxJJLUQTg2ci7KErHNbV15Gckzlj7tFCl0AC7eyWfBRpiwPka0jkMsIOm79XjN1GHoqsYKHtTpanlk9GACaTCiZxFhNED2jIloqAhK4N2uz1cAHU1oic62fJe+MHSRBV2sDGQ/hBJIA9jwhn8hPr5KDBcMqDUWMJdqRKxe1yju9t3UrxwRd0aUxA98NBp+iME6r61ACcN0StD2CckdZOqL5UpfzOgPFhToVYIByZTwm6ZjLDJYCuQNjdEiAAxlgk3WZm15O9YoOTAZTdAOOBW+uTAT4zIgtz58Nn5Yl9aH3g8skoVPNzRoE4YUgbgd6c3Zl99ieFUu2LbcXGT4Zt0C5xtLj7KwBkJHNLBcMekd5t7BHBY4+2Li39EwpR2hnjuwmkJt1BrRg7FQgHzgyYBIoUpmdw5O0PeMNBjyh2as6R2ssx9EfzEsBUQNOxadRAoA3hXSa1V0ZYcx0hetUxJxvtlSSUWw1L1lf+iyKAEAoaK0q5J4ie0pjhGsHZB5iEBcX4FA7KNqmw8cWG5oMGry6cqETga5PAQEIVoaGFCwgFgZiZaaOWjOY3QtdbfST5qBMMsWAbB4AxKcoqUenfuaszejnhpdqbK9dwdH5utUwIU9DVAAgVFphJOWQr73Z7rtmHZA85vMU4JyVIDTD5wqrW1s2MyYpWf4haQHvjWRCFizg4kXCD9SkCBGsmDk+0y94IE81BPlEQCq8CHjORXkJrP43ebjRkndz3qkY/dKOGGw+RkNjHLB/HAR7/cSVP/hZ8NyWp3yeJbg6nwf+2Yu/uU4OVlbOo5RAoEyDkUI0trXBDL3s91oBfWdnnWDAvQXX9n6K/01aRz83GI/Ulo6/w5RKsO1gJ0EtggcC3QkSlRoyb/a+7QdIHOSL5fJd2gXtxdoFdnIp4Ar8FuNLxUAErQD0yf2itZAyGwZcLu9bxAO4kLQc/S1pEQRuLDe0Lz0l1bSTy66U0Th9qxQCnXiJRjBrkCWZkbsJ8kf/vb68qRMWv6mRFXag6VEgSPYW/VEO4QkAVjOAyQFJ4IEacCP/qu3EM0pq/+xPdU13GIb2CoOhXcx9C9a4WcAvkzQ7G8p3fKrlrx355T2E7mh+wkxpBbENsAMphwLyoGfk7ndPsrKHNWIADJHYMzEi4Fa+bxGw0ruIMAeZrD641dBeKJJyuu+qc5vYBmrAdSDIo/pOJLIr8lHWjLxgStlY3JUI6cDb8SePkVXcuCLC98QMGGwIMboKdxXw6PiX1GUnuH5f/dyjby8Wotj2Cs1geTcAL7PZzG0/jmrnAOSnXFilyUOPntfFSISkA/sTMLBu8sE4x565uMFEEJodNrgIbvb1XRewhGFGTDJr/z24Wd97aXc0xro+XZb4lwEuSLTwNFWUmyKfFcKuPUbqlxumcJJA252kEgNoGrn+j/C+MmkgCr+E0slkA+7mmWglKYEeEbHi0qEbv9fPPTW63kvy6e1AG3dl+aOEgmA1w9eMZWiWSDC/YUX0OrOccBI1RhCBJJB0JyALrMagQCtXGZzUQBH5FToX/iq4zyrvsASwkHARnA6ThQzcQ5yUwTvDsEcZ/cvWZbJEZ5nGZLG1va82yuU3eMymQY8k0sRpJYF0WW8C5grnljFbOygLX7gzT4snhcpw32vva6CvHbw1iMvIUxkH7mVJe++k+Xrsg385619bFGXMq0xfZ+Q1jIn8N+bWK6ONrHEoCViA15uc13hZu/NdBEikTWKWNELQBvfXWKJ3Uwb8lXWapZ3/0Ra6CW1Gt6j89lin/6wJb11Bzz8xm63x1pEPJ0yd9KhHzSSgJC3UmXSfBD+Kk4pH9qK6AIxZBsynxjAPSFBv7SugUmUZXOVEdyFYq1U57eHqs2+kw8YnPfyzrXe0GpbCfCh7nyHdRPFE0kDZmfyuBFahsTFHjRbuDJvZmesyTDEy4MFSY7SyFD93qFm/74MR3NYhuLiXxX+ffMX6exgdR7W/bDvmO0I+bEjGYHxoMHOSzutMvkwCBRryg8ORrop9JUfKtQj5SpgnAgbVKgTc7wRZKzQ1wu1iZGlTnfZ49T+a1ttUZ387yrathpTkF0KVKzapWlHPKTqKJOBzJs8cdP8WhwfIB53VUc08Ax5kZzawyBA12UHDplGuCd0HWo3bbMnbD+bIa4y9tzbSHbnOiMe8TPXVBaswhiaidCucidLiYCmcJIHM3nzJt+wsWf1QxSQbXapYnOsXYZ7QV9CzJAixqL5FvaIyF4iQTsSuTqqtLQ5uDOmXex3u1BLIFH/eq1FmzcGR0mrj/B8DnXAETXA3LCMJmNv0Jdfs5EvaKlPMSU7utoi1wZOsr16rFLSjURr2/afOnAtAdTFJkPtczPwydT1OZsTfvGPVvGcuRIwiV05oxynVqAs5JzANjDBD8RiStDdfQqDkZP9Fwf1uOgzX5XINRMwjUYMwUUriPOFmg4S5B58rS0/h+22aODpH2vF7Gsx7+h1B/ZRExjhZpsU9tOBE+D87nWOwNaSt3ZcQKDqp6wSmS+ByzbIiG3jGFBhjPRtJiOygTiYuacwirw8khHE4JWkkcZsKYq6+Lshz+l2VLb2joYWukyeiL6x2hL7h0f/jSmnA60v+emcXzwRNdzNPs5vgSaPygz2bUhjD+o2RS+533vL27g3KR9C8/wFObE07/VANecxfZOzU5hm7vItg4mRqypka4oSWCkuEpUzakn3Jc3HiTwmsJA/dXa6ZIY+wkJ7DiyIFDJkkI2JeGshYOVkd6t3UbjbN7qTYfhi8DWZRT80RdftckAy3WcQaSaWy3QOiIGOS9Wyrp4jLu5AagsxOp4zGXNnbESctBMOw0oDLlXSfRIc6YTESCeByxZbwjJ0YaClWUZoNGm0Z5OHenLyegnbnoN1J2W1SDxm8lIhAnu8scUxKB66RjKCszN3ndBlXWCLVbd5SOScpc5XWPRBdQ+ZJ4ARCP+YxO+qzTpBsoiANeFwJgV3HOkmYBS/mHYlkIQ/t9IAJCTNGijjD2ph3WEknZT6021PQdspquJfaG+a+Q6VzVEWtOX1yweEpYr13mEj02mmG7Ov5UxbHBzAy/0s1u8tLEgkD3T2tW7yD5SFxonGGzPS5sdf2dsDJul7/atNuVOJIuk+OfoigS6B6m7mDSDeugsBDTQ+4n2BwEhpjk4Zsngl4VbsZtD3LC717ewEYRucGmyZ6JLIdnSQZNL/kE5HvTAqWkzDf85nVP0Bm5Cafj5S8F2jV5pKDb3KHEnE3J87Q2Q4OqmWdWlImrU2g8iPdJ6d8UnCesBCe7Pj1VnhGAJv2LcUNx5nhWy3RvEKqRFSG6t1GxPq84NCcEj19GZpNF0tr21Q5rU7er0/IJkFnNr7+c/YJjkXSXso9AqMyAAB863ZkHjqEzQY+0tXYsFFi1gOi52GFHbpqozWDo0i6FFC7ke6T2wicDJkBP98qUlXn8sxfWmERpSIV1E2s0yePEMhoSMwurNZAOLZZCMa4XSRpC6Hzi++nsUf4VBJn/zB68oXq2CVhwy2kwqCVAw6zHX2v8ddza9uhZy2bCSeP4xKU4uAsavNppWqQ1GJVLwI8BPaG3CE7cpmCRmubZyorzGoZG3Sun9NTzCO8uGJgIJySoW5yGtu3oerQyTc3vuzfDly3wwTOEhVsWGAFyxWyPsIW7ig1a9G01MG6DBA4tjaZZf0oOUnKnAdELylwcP11thNlJKkrH5Kqj2LJyrpEYj5/4z2zB2bhmbRgRcJESWJDlYiJ9vbnEX8HilEEF4X4i23/5UdX09zqcVpK3WO11kWyDMF9Ly9UvOP1p+T6xSUk6W/0Q7uBVWVueW8HEHSTfezYhoqRQa8/JdaJrL/kinYvTxvsZkcOBAqlQq5SoiI++TQEzRo8+zhPWAlgY63QtFhau+YRSDTgMivir5zupLu4fKUiWTgi2V0x+b5k6D5rUmuJgWeTgnpzmP1o8afIPynsmk/igXNdn7rnc9w6s1ieSGVi61wnxiysBnBBtbSokAOBRaVBWvy0ivyeUeISD6WA11wMK2qtwdYPGXmU39zrEiQy9jx7Lj8+YbPqM17RTjyx18k0BLcZzdgFDRhP5GVE1qxvOt9BOKC65BUlPlyovuQOu/FFbxkMqazj5PWwewJgEspgj1oHAmf8rqU/rgIEKvLf+CcpMgbM+5MHT52gANgcjflRWGVe8bMUrveufb5NfbLv6O6n0d4MGZLmeBFbQ7XbChVb//9AurAW+hI+ny3+LfycYVdYC8jAGRne/9Qzt+ZuJZJq+KM0TqXOdti/oBrYYEMT2snhWybwIYGFpT3uVqKiH/6Y4zDvgJHAI+zzOL7xYuO1g6Mb5xVcnEDX0CXiOjspn06W+4nqYDBazzUOdZtg7ndYGYx3GjbWra8WeBThGM2Vrhx8DvqREVjyLaX/TrO4bYdhiVZr5B83vvhdOgDVj3mHWgfc7hP4wkp3XAoIVRx/oh4yETCRds+89eMWWAUFYaZ8R1FeIaWV9R7L6FSX6GTiy+0UZ7fd37yqFYMWL+h7DN55QZ+b8CkP66mHhWhGMujNDPCzBV+geCLsgm+guTFoO/4OLzCQNqypusFzdv/Fmo+MI7eNdRSdJIJYnDC10REJN9ImCqRyigQoILAagc8JLFuaAzaBVLYmjlMKMbTHshf0sScAut9Dx6msiq4qFZ68wvu/M5uGtIaxNcCFASrPN7eT1aef5zIV3mCgc8nQ6yYD1p47Aq7JZ6kg+GGeaP4Zfzvpb8fmuAAq8kKy+1XUgNX6vGxJWypjtaXVTxLJaBj61nEhjfLLrnclaRlGCUKO65lUqKWBwLJP8QsrvbF6mJNNGMliT6V6m0foEMXj8C/1M0wU8x5nLgLoQmAWe6IdrLpljp24cp5jVwCYCUfIvAIK++tYynJSlEF5WLOz144kIPClxl/eTvhKp273OA/n953OlAM3VxePG56ovkpX2kG5zHr1WbfEdouwC6ACc0OxwA2E8He8UYBIBM2zj/kIyzFhRa1weq1ftNZ7sAYnjVqFFDjBhQm8/o+X1ph4QXYg/aRHWO/8H5u//hgyro3XMdcCJ32/1kBTYq8932SLYRU3o0fKUsBWacnsFBSRg9knMj74P1wf8m4py3qkUp+KLhSTYlAugAGdXypthzUtIh9xt57SykavzS8Q7EXKgrXF5xYh9ZDxwrXri1cTUdPB6nxUONT1sYpLYRdYhYxIlCoKKKVUWpe0rNiFiTc+zag5i77WmcYNqgArajWutGGhh0ZvUrHGSWqdgcC6BN59caUzCrCkDMmb9Oise+6z2e0/rMgY8XHdECJjwanf9nVYFgdXnXl866q+JgfkgaYQIwA4w26/xAnEWsSWnKtMAs4mrExE8IaQMfi8gxqw6iMtLh/k9WHAGQZ09t144t2ad9hGmUhSAC9qkYetT1ChO5CdjLkym+OHngABiRwrjG9SH8U8pcpihFoJm71VbC/68fvZo/dtvqzBnWWRDGWScY970is56UEuPt/Fjz4e/MWTX2GiIBJb0SPb+qS6SEJrYYgMENiUwIulM76vDI+SGst6Zz+bP/LjDs6oahrp4IFT/7VY21xVXa/mpfAgFj1rNQCECkVvsi7XicQJSysVrukkMYP2fFctlIryIM1JT3TJQw45LwAQshhA4NYmzs3w2w/G4eIEGQkGXRPvjq5ZB1jfxSp+ZUZQ77QPs2p99VnYJ2R1MMA04/fmw1Y2bkWv6MjnZg7XO9CLp4M9fzwkPZlWWxkHVSLA3dWkOubLBC+VVJKJFMjB70bg2dIYsKRMp7/+pbPZY4+EsUvMs5ogDHEyFrzaa4FyDTDvd0l5eBMAVMNRfxQY9j23rMO1sllbjKyiJYGehRde+AemelJq3lyeESmhaunLCD8HVxkZ4rY+Y85ksLZqCClyVLbthclHCu4Q0voudK++ftHb2QjKhOX8LOs8nZ7rNsPOSqKWL5d19YNj2SKYEg0FpfC8JZtIpDqIURLFVx0iwAEBpLJvkzEsZo4cZEKNskDgQAIP+AuYUIa0oJoG2OzuH0/8pgtMswgg8JAgY9njvkaQa46zALACEcBFQ08NTKoPeBZ5ycbMIfZqVAwbKEVKNakM5YY845EmrBFN4QulnHXOYhj5I9BBEeeAMqN2xL+zXUVmdnEO4HZWvm+R8KXruQP90y7KuMEafDFl36DgiHUc5/jG+khWJZacsRbK0Wn46tjwwOFGJXAoeJpx2apOV/rqG1nBBD6uFJCHnxvGvQV8lZ3NqdQnTOSzuBWIgJOXLlJEZ+AYXu3FBxCCG1lywJEsMKaZGYAefXRFVUZYokqGeYUhcc3bhV+w63vvvclEmhAr2oiNFS9iqHrN/bvEWc7ilXVSLp2pvOzzpyj7rxOqCaEATwoe8cnr7d3YdizvDiH/Vku+ShFfDBANUNPIALT6+Gr+1xAPhZ106joYStg8yKEE/tfmXMfR+QSPXoetSGmp2ez8knIBgh++orIyrKQmfocmWli1WyYATl7WhhheWAY3G/qMfDAPBgNSQHjM/iT2WbAb1oaSPCK1UtHjf/39/M9vck4DBL9WvWgUJNB6amx0bU2iqyFMsTGvZfj54/DPn6ai2oBCgGtrHuXp6z3cpvmxgjvQkrxmoQPrja9uKQikOsv7yTp30+EFnlaY5re2pzHgc1zv0XGulBQ0Exc4sN2d4uxN3IZWEy7sKRaEAaBZ6iEtGYJ/noLAB1jKoJJK/cAj8tkAbISw/cQ6j6EPfBehZzw8NG5osleVQQEQDUVhwEhF0THkDkNVcskuSb3cYR7Rtsdiq4/meraFDs+hrD4crGgU38DXWBRQ0tPi1u+sZnLqqQNPpxowYY8Jnr7Z2TotjnRPOO9Gi70A70dveyMQNGPu0fwm/5EyHtBCQ+rwYZT1ZWc4Prc6OguckxKbbCnb0JHl8Z++OWL72tiz9b4Xhrc4QiKHseKbd5plfL+KnxjetKFkXXLykZRSMxBgFkgbtT8HZiPhuCRwaYZOesNIZKiMymD9G26T0fmS2vi5KekILH3hQaQQeDrhMbWa13SzzSvNu2o25pHY6hw3bL8+mr3LwKmnv83SdcVNwHEAoIY0eWjIHKCicHNB5MaF7jGRNURjAMD/tfUYw1WfNImOCrSVzD7NKFJFf3Ac1tUHz9VMFco4PXc/cnspIUuandbmkQRAn80OvyeAvWr2o2bP2CMEKr0Q/nsJ2IAxqfXAUlmlUQgA9Bqg+oKSfe66mwuC2N74e4ckY1W3WqzjjTfPucwKBtEsWCA7V1KG7cJVBAdYPySiYfQQBI1mZExrIBOZ7iJVWacnb4QbCxb2239EsOScuO4NV+bSbWKMmA64ndfOmMzaVg1BEeBs2kcKo2/I7iE4AGt94FR1q5aGdu7RRrYVSfDBauKtQ2WHajNS3/EwdE7Skc0n9CsBgOJ7TQIArhPDysaPpmr72GMQRiX4uXonAR9la5LilugRwEwAgWcifwP56/zJATjlO7+a7DhGjnlp7i52xl8OgsnazTRYZ3mkxZdQrTYyNoKXfe11pAwTtaDgQKSDeG2ntQIkEMUUBEvQeFdvTd6gTEWXo3xf226u9bjr7XFHVywhfXLk3MaphWHETJRkrAEIN0wwhgx8FulzAJ8pET3LXtwrjFwB42DkwOEhSHTOkA0NHe1cOpm8T9MjqaAf7EUyXDYTQOAWY8XY9GmsZpxsBEYl+OYj4InseUJLeiT2IB2NAPRdSxT1F2SwF5ySpDLbj3raDtK5+7WRN/f68UvmWMaBAACMqOlCcN7mwuF6ErF35O3QY4X6dfZgoW8oU0kKVcZinckjVSJvdD9HS9p4xkJconTSEK8/J4JBAwO9inADuH+DiFsX6DtrIkxuAAhGU5kyVBHr8w6wpq5H6jF1b7OTmftbetnLXN5sSCr6YbMamx8oCmvCabGBz76ADg0NewqrjY0fhGScQoig0rw9BLyFVUuKiEBkjfRQIDDIfKQhvwLZPa65mxPeBN5hxFFO/rn27QdZk68z90I5cNVkGvausu4+okJoVnW3E4x0MM4Rmn+vDYJjaGNUas0luzataLbmDXCyyos5fO5karr6cWosMqSo35nA6TCTI0LnoULKJSLIVUo8okYiO/YgRQR4g4wMakvTAK8jCKSrS7Q+bNuJ7Ue2HyICEOBi8ZchMQBYKAgp9jA1e5+N7sZxj2snUMEKfPEP8Pd2MvlYKumNwRrOcArIHxj+u2Vm9cDxwGrSTsNma0/zSFvfa3ExXPe8A4JzGyBiV4AIAH9vNGNoP72iQnUknNlXjqm48BbVWjFvgBC/qXrFnMec0jmN2srIJLxCrlkjwZJnUiTSsiVJN2PsNJ4ykiPfDYsVubuBtpp6xvQZUtuHAYCQ5li1SKzyDxc7suc4ETkUN7szABCSGiKwPTyTT84GV+NMIilaIfi2Q+8AB/BWtlDSmc5EQoQEA4C2a4T+8r5L2/sEHHnK2DgiXYIPssfNGCBxAYATeD8nOADedurwi9mr8nSCvVg0op81kaKaMCaFJTbvwhVWLc0jKP7TIhco1y51yqLRj3ZJbC51YnkTVj4dhaEMQ+UBlMsP92kMs5rZ+zVlqTCXwAUvWCLTWA0iAFBEcDTEGzAbPhfcyTk4GRByAi1Z7BzrX8o6p2URq3QW7wDPZHLQke5DwnxReEofRPx+pa/IrIBD7ukQrPYhwc2WuSsKAY4wg3YNvYnvkgTx6cdH1kgmcAD57u7ZLl6NpAwAgF4dMU51mULHi77/Io2y8M72Q5UirwAsvFQNBi25/f9TN8YWVp7uhlWopmvI5KVPHeN8WHpNHvPyBOR6jXrpAuEHCYICQLBKggzmfcn3zudCqbVJPeSwAHFIoi1EMNepnQ3vYML+SY9mzFJ13wDPYcfSLXfRybPdoJdTTHTrRP4e2BW9HHBSSTBaCIJdWg0AeCZBO8Jvt7ant9l6tommJ7UQGwwbDn1ucftTzUkAfmX0jZ6gYKk8Zgd1fQ7nZ4EnibfP39K0sFRUVcw7DsskylpCFRXSBi03YKHFaVN7MmEploacIhg4v/XvUJgcIJgDUrNhyCRtpuC+mu/4YxsoAI+RQggETjmCZKMHibTg5JIB7H7dM8CHS8tkQ8feRKovHUPwtousey4hv07rB8KxysbcRvvRTbOUNQDQqfFX85Fexf3jZMoiCTPpTERL6rqjRHeh7vQdbM3chIz4wNLoqzlpb58kiE9hAIBRjfExatxtoow8vx4UbpQZLFVQrRHzlqvFWJpymmryKXMnSLZ+AGoeXYxxCUsPzn1rfsc/YwFAgnZDgQEIjJ0l0pgNb4dbzRqCB7dzDHBdJgs9jp3EinSQBCtsOxu9QNBPw3ZOwK46UixR1iRZSX0QANiyiS9pMWbvy1fT+q7QFiklshM4ncyIQ2Zjp9ovq1uSemW1RCpS/BTNvXU1RZsrFwBMNDzm9uIhgtlGRxNd5QRVeqdlVdaB/JbTLNIcWoJKegF0uuFYEiXMfbxuq7HlxAUCDiCBPkOP5AGAID3GxEOy/jUp9QenyxqC+36hNZnZNiRX0NkGpfQobfxm5K/7zGDfk0rzFA225lntcgDlPGNum/NP59CRqK2sAPalW7bVHpnGonEYBzdzvpqb4wzlUZcPR4tOWffagg2ASi2pF9sM+vrU9mU2S0FAYs/3qh9Sld+AVJRrWshUqQ5YCYAVtFak0BQtPX3uEipjMAYCCIXMoYhPBkI7z3oXzmCuQK/IGoIbXuHrO7QIeNKJVXEcDC2sOo1IM5t+RIAt2LFwDdNBoz4RV6cBABVm7Rl3PvdXfnKU5lqPUzUCRGAHbNIOU7qk1SktNafDYjdT3iPnXWh4uRInMk0RIPH9Z9K59fylqIgIUQHtKvoePfMdrkpaWFSl2f9ZDhBoC8Ee4wTNsRpd3VRy8TjwZYCw74NJEQ8916mfwb2FwTzAMvMWfJiFT6gIV2Vma16CvZFk/1nAUDsFJuzBpp/ALLiUXZfCIzToxoc6BLA+k445jtj+zU8ZNOG7CETTf7TQAcpejJREGrY86IgtLTrvtrwOXj9t7WokAFEMZnw2IgBKyQqsWJrvYOBPpR+zRBJVXgB0QDBqI+WxWnzuEWzhm1gL9B7ACEAMDxDBnaTmGQz2AWZf8yJQYAjuVHQJw5W5pZrXsMdkZwScMai1XcukE2aDR4a5bS8AXDxOz3FVNOLqjk0AVNDuxFHv3E99dbR00+q0nTiG05GizKDZjijBEQjZUZWMs37HvruKne1HaNYkG2sZcFUm2hUyHBnkP+AUkf+ztbp6mR8QbML3NxTTlHdLqRUSYg4LEEMEI9Qs8sLYn34x6GsY/N+BoW3JEFzxCHB5idZPNPCLIGGWcBbsTGady551bx7btbCLtXnlbWc9fIm7DgcU6fa9HHPE808zOI712t/v5nbXLMqk7Lz812k0H4UTdMr2jtIeI9aVMkq/hBWn6p+ucn6KTUtwYZP0WqlQyaJ8CJ3Uy7a31Uz9SwgJgLdKUqN2hHJok0B3dDaGaYQBAYiNEUwfMRTIfrmJHxjUJWiFFnyCm/6AwB8CZ6Dkc050kcxEkiPr0aqu8XQVCYdQetkhPRg2ObSZOUEAcH9OvWuWrZO8+pd7fZ52R2QcOcUrnS0ID1HCpYjm8LCyQAAta2tMy3HVr/zZ3m6y5H0MIweP1JJt4TU7KTUKgiMZm4BmvXH5EcoVO1vs7KNSRDmAYEmUVtMV2KdExdwgbBQGX2sBIEVW9fWqEH6w9DjJAUxtWAECF0fhDghcgZKNcOwREv+zwPYyBuXQIrvyjAvCDDg0YwKGTDUZAGDqN9tz7Id/tfMrF3vCn/Wwp4EULSXWWGSSHIkcgryqaKWt+LSENaQaJ82kHasKs5OJhcFRp3gA1sAKt55MH4iGOYr8RhTbTWBlvtRHIqSV1aY+WitSATRvuNWTFgeIcQPfyhNJxL0GJMMMze0jRhbQhpr4QL6UMMIK7MsbEHhyPRW8ZDw2O71tUBNGp524/DQxO2BBIuOTvk52H8lukjvZjiaPKFKI9EMWBSWDE9vTveKEpz+7vJc5Yu/1xE9fj2U5DU2EohiYxzjG05/taJo2+wbNHSqwcWljCIDwOCKV0cge5T4sQ61P1vZ4pF7kz94O+z59iRcWpQEon/WJvnAuM1Z1yfqgfqoWEgEA8jGs87wlJxsStEmfZC+da1gB1+GDMyBwCko9PT4PuzC7s1boIdvBdWkCQo8DubdOwtvHTuqwbVOGx3MUXng78RGpAUkwiuUIR28uuMRDmjw0/s5jPXw9pNnESUCZfEUzwKCazEO3oexL9xpAQVgYLY/85P8c+un/PRjZxt39oJT923MUkF+LFubOV5mCAOCoTize4RuVLn3e/UAt4n2AiWCaA84GPN+eJNGHoQbq7nwBgZsEfioqVpxUmh+yrBfqJsfBsekCdIiAHWUJl3AoWFRbggo45dqPKFUuQwtuT54H1r5HPzJocUjclYd88PqlmnAZtbKITD5QIVMbGlaveP+1rRFeyh000vwupJvpk0vS/nXjEuTjqnXj1ncjPCRUANDzSK+pfS+oykuUnNSbzBxCuMS0MqyzAhtGEunY42OYCRWwMGVPACMEzkBJGlw7LRIwNFjVtOsn7NIAJD4e2HdiqSOC0Fqs6oO0mInL99TJId3RKin3pCTw2ps/YPtTd1Cd0FpP0eBncvynb4YofmGGbKsjAPhZNbVdRuxTjPz9zm4h76T+KjTOgajN8sATf8sxVdaed97buYkMKegzIiEGfIy2xrqmskKh7qo4AuiAko1oflViIGYQhrLL5Uk7CDEBgPC/fQm97ECjIy9tywtcItPZsio7Wl/G1ugNALDAgD27SrlsBx20gocNcAC8JBIC+X/4zR2y5SSiACAw6mmVRAs/mYQsHn3fn+kygIUUM0zoA2yEksok0cOXDhWCXj9wFrikCH9NeiSxvzmshnKo2a4OUYgEACQc03x+q5cHQOiYHjoo7kxrkRFAUsmWGwsD6rm3Twu70rbHjrvKdsikNF4WLL8Z8lmJaJ4AEa+6TzDATJAAADSLJXNwFZ+k6z1kjXopfZWJAkieC/77436gDZX4auxKnjcJFOuu7gZgSEoiCJK6mbjAB2OFJhzbpqcJmYsMEyJDOHY0pAUEBgCUM5RRywFIo+VFUkxIGeCxg4VKS/dElOY1Vd5vys1fIq2CQ5yw4gGMs1ywwkgOOqsoAKA8L0/vlwjG5FgyjzgbRRAAeWNYmU50fLEI5DRja2jqVwjavUB38M4IrRSJRcTmxVQSQtnueOPWGYAnMczgkG3WsatsVYAAoJjRKu0KDKAsJZwQJL1wSGHSodtYOU44hfYgTZsszl84kYIy1Uexg4hUD6hb5L4/VzUUWN8Br2m73FvUy1B//v5q2vFDt1rWvHNJ4wtshkj0k+zNrFABr+GCE4A+hXnVadZOT8ffhFJgpDdOZQijvaQ4q/4pthMAlLhw0P646gIAH6129gFMcpkVqykZAj5H2PRW9+chtW0cab7y/CQuKbNjITx5qh2c71nR3Ad1vqc6zqNcqemi2h22q2SQ+6r7d7b844BkMRJn97I/EKG9/v/c6CXsJRj0AacZnmXGUjeLxCBmKKEiaE7XI+EMwXsXQ5vXxnbYBYslK822apYB4KVTfQCsLZFGUHimDo92gJPSNods+4L9Va86XSKCs+QjQVWLiB5aiFMZTpKH6gFYar7X92RmTHIAIPzQ5kfJV9mFjGB1v1LdYRGShBUf5DI85+TGxJdimlHB5Gk8ACxAu8L86dODqf0myzS8NZHj2NPaBOXyWdIHsBvsLpoeNBGyTg7gGBWA8FN8Wv9o3xIi6Qy00vaeB4tcju4fs6klH+GUSDAeQGhUuqiXiAewwBO8+7f4YCceHAA8wMM5qa9kQzJ02zG9lQ6QoP0IYS6gjyT2/6QnuWD2ErR36gCgBeYNberUfpe0nU/Pii5pP65NF9ShwCN/vWTCA0CCFl8LryU4BVDcqRQALC3RbqhzJkpKAq8zKtBlgjoPtkrKXrMFifkHahNBAJDAeZKUpDzR7anesw/znvO0CALwxJsuGT2ngIwX/qBWC5oBCREKZgO9OWFDx55Kfdd53loBs0ONfzADnQqHZkOSK6ibkcNDSSTjn1DrLDAoex1yL5cCAKnGvIZxcPmpAFbtXAxg2biOoYWBRcluA53hwoYmaYMW+5BvJtpDvEOUg2Z2kh3JUdzXvMgzvVsfXe9mZREHCL+mw0fLgB+xWcZdfkVrVqwIGDlnM0JPThD+udhKUpmZFYYETa1Hv0nDnNEv5Ez5DAciglEsEjCPS7Iwsj166UMlp7DrAhAj5BzeubMRN4rl1WI5gL7f3DCRN7oKGxS7AJ6W4PORWUMScBwfbEbQfUKh673uzeP/9p5X/lcgvAbXO6Y6PdYzhsz011h74ZNMdYBWI3aOSvrkhgQt29ctgKT0G60PNfoROEAgyYvFM9g3xbT+MjnkohhyPByXJmTtepHeR/YK1xcAcIcpvia3Un4SigcMAACfbuToB4bls87pyLuSr4oSKodrJVgAeMprTc0enBhjTbj9w6Uzh3ryJoFkSYCLJccS05/4fw5w5VabJdLx2oARy5y9cwT+NbGeHI9loiCQ/C8b+gikE9gD7yb37rj3/VGVfJ4dYbwqXU71gc6OGE9O/rQ3DnuNjalk0ulVU+WKi+1IkZ46SriNo1jiKgr5lYJ14U0YG16syVoM/WlsxZpwu5DaMtQtjytdFYA3lw1XxjI3pI8QXAgMWAKqBXCHFc9AmCO0tdbNHmgv/F8CqQ18/5dAghcbz5C+JkbkLxMgCjy5S/jT0wWfvRQf5+2wFQBcmLJgdKZK6O3GWouLvQBgJYx5aWdBVreoSP5Ukbhk4uFHS9np8s9/mXzwMaiwt76npRlrrgq3F8gM+S6XvnXwlFRDAPdpTZM9amr8pWYBF1/7/7mUgAAQnkiUALkOd4itIp5OWUEgkcBuwx6BeAKb8F7h3hX3rj+qEkgS7VUiFMmmC37phYoPV/56mbkAIKMbn4pcUirLyz12lEjqMZ65/4d36RHGmj8pA0PKUfKpRaTxvZu6HmbF0kx9j94SL9y+gQrir9RN2nRkw8J3BAC1gyO0PdHZevMeV1SY1NJcaHAApMh3siwGOVcQMj118+dLEcYLBNYJxDToEVh4cF68b/rGmKE/ljXCUxNJWeIEvraQHlf5Sa4vAKAg1vwxGk2OmMu5ARxXpOxx4PsZ42i0G5A/Ra481V7nBqXNefLc1vm/N3/ww2tGP7iZu5TWib9oxoRTTbgqX9OpJgkBJf0uftBnT7McGbVVcEW1saVoIc9JBJDumJFYYT63zlloRhPvyZmXFQSyPkmDHoEVeDe5d8W967dIaiRBe7BAhMND8H/jyo+vt3PjAKAGfV1Xk/CqPG90gIMSQ0i2hGf+rHyJJz3TO36j2jh2Mm7Z/UH5EuBejrAZtnuOuPp52zMnbXtcdUppsETREo4vTzcI9q0o1uD3E+DqJZYys4VEAst3OOcR5F7IKddsNU4pgRcIrDXkERgiUKIwniF947/OeVkjPCsknfLJw3/gw5d/mCf/YAIAKuLTnDhxyvGKurojidcBKNMcmoPN8iWJkjE6mt24TP95B6eUex/LokVwK0fZiFx9GTT/wxJnPz6l5kc2PbBqQnCuCpCKUWaxEtg+61E3CZnajQXXmkTNUQqBTivGEgnJQ2hGmbw3TbsoCJQSmGjA++Hw1vIu3Dv+iiRZrD1IYKARdAYrOcAW0jNUX+D6YK+klHPleZkGL6HduJSjfFsJrdw1l+EXUdP6DwrFSN1RILNEzX+v2L6d595PJgpOpTRhbRijdBAhVKcJmcY2cbvVkDvSJrVhDVzd6Ek3kZSyFhBWxRBSwjygbcJWU7M5bnm0Fx53wx2BKgL9CmKkrj2E/jhcIzxLRNJdQi6JYAvNT6v0FGZtAEBFvDJddPyWqIuPBJbmb1I3DYSn8bMtmbYTPng72uZd68nHVKycsAIqJfr657bmNOvR9yeMTgJJNEQjDMo2QKAkK7TEbdhwB5YhbpJ5SHbjmnA9qNgss4gIjfpRNoJYyfQinyz0TNw1g6GCQPudarB73PAmjDOJfeNfVhJSRnsJzKJOnZPAa5V/CNVPgL7TDmXalMM0bTp8V/9ys6Xmb52lISE5VaxvtJGNK2r/rgY5lKYRtvxKs/hj2skPZklzAphGI11EglZwfoAK9CJdewTbDi2jlLBm2p69BLjO/a0Lwid7LkC6XI8qC9clL3BqqdmBaDMnpL1w2xrqCGQSmFKwUw/5v0U4y+E5tFhySsgtUWHdoJ/TZ76FHRclW9d9v5ufynczjNk/X6NNjVx3fX+Exgma80SPXrZ++a+Lv/qf2ehadn6vv+e1hSy/UK7fZh18vHDvYdrodDCvja8hWpyWtRBRgMIbbg+f/g7k9t1a56Qf1irWRE5LB8xpWKJVgPQTicU0GcnPXCsyE3dlNQkUBGZ3bqAjMEIgyku7JYxQjGQoADy5ndiwzlE3+hblx6r8TG3XDgIAGhLTNlXcrpD/UPvifKEid3kk5kb5gNmpnSGJCRFCW8v9f/BwNU87yjt/lb3/bePww0vR+USnKa1X+e7lx5F1F9Pgg7TJtxcL5teYg86Gj1CpRMDTqAZQcmcPRCq2oexOjnBL1oGZrWQYgHMWVoxeqyz0B95xuxHzh9fPIVCONERoqeRHO+6ZsANn9o20F4EYAuMNdATmoHCKTDqaiDTLtccQQYaHkGuio1vwL17XvkUAACQQY/MIvq6Co8HVlJsMuqM7lYxw68yN2RqEHK1enVcZPhsxEyyUUCoSoDFEyd2yRoEIKlU0VBXNTls7mgLpsRZP8/E2UVLlGUNBDRwAkvqyZQpVk+1EdquMcTdsTZLHEhUBzln4MuKW1r7MqcbM3hAagPtIF8ssab0dP8r7Ig3oME9ujUgTE3bEsY8CBKYb5gjUE6hRfKjBySePIUMCeDatZOS8m+1K9Y9r0M/rc3NQoBFh5n1L//0oifrXKgUDOXsm4W7CMk2dq9j10tPj5dbPyXqnZgSurmPxHsZK/KMWOGNFLZqpXKkIgRAblPI0FPTes+Aes5USdey381xZCxEFwDMiQyMrVhxsm+48zW0vlFTbH9QW1MA5R+bEbKxz3vnG3dX68eA/+pSAVARQrZxbpIJCAo//qCLJuF4Ikx8wuTNxF2a1Km4DgeoGuQcEb/1EJh1H9bZ06gweCrqHcgeiwGwM+fVL9ojr6gYAFWGoye7fH69KrXftOQpz0J0060+1OJdjT2MuHvcyfzra9eUk0yNS57oX94TLimY4pA3Z6S7D0zmVRMnQirXrkh7rcUILmxLWGTu+GNjzqMiE9yrRaMjasdxJyghX/z4w6bg/dymcF3SLXqBeuvCIA60+3/mPPk3O5UCVUd9Pei42yt7vPHQjEoHPPBLBstKKPGunlmhLqjfnhLQXHlBD3JntpQh7Jx7OT3hD8GhnRh67vWn564T8inXN5XboH5H9Ri4rPj/oq58rqvVW+TJEVyo0OMSVc8rxdo97W/23xbb/K6ZJ/f6Gwdr/3bA8mHsbaaOZzhjGztgj0Bw9zsiBk0m4SMSqsNpcTi/lrPowaqzR5dZlw6t/14+/mbr3Ph0tgXPuDJFrg6fMf8aJxK6fPR5LzdRtDO72yGj9kGKowxY9Fk5+sxwCv2xVU0wDSckXJI9QmbDNIFQQmCQQ3QC319/x0qcR3WEmHoUD0R5dhEL+DOUDLAK50bE+BA5JZADLPsN1QP+5/Ogf13Dz/7s8Y3lCW+hxRBZ4cKwRt0TW9ZCPz0fivFk9Bis58ZKkxiUpj6Kcan0cp7BELNjL9nHi9TUxnwkqCAAgMkHBKuI16bDwDkPE0DBiOIb8YxNv3SzjoM1PEYVSOOUGhO4Injnfw56UTqi246BlLKq1HcTzzempwMqQO+Yx/vygACAqz92tZT4J8qa3r9maqlRcB8XOBMYiHIFRKJwyEw47EZPTRyavYYmD/IamSjpLagwRjBc6JOLaICZDXsPVI+fS5vNsa8MkZa7/YsExCU/oGS3yKIfUaUIRoS1ELQRWkGhr6CW4MclVBS7DV/iFx0wondwARkQVMrJ7uH6ce3uR6cxAYScCS7pTcjWZKQ87x5IGQQM5JNYntUT8FEk1c0Kr47IBiR4BTv2sGVKNuLb5aU8pJmQlxxGuGQzB2Fb7Hj07vErrYyiJEiYxH3y4PYH3IDmhl0h03uB6seJUb8NOhPHCweMbgXwC3Yql5zzpKJpJ4DFEON2lPCEQCqlsnNppYw/gXh/zdQYuHsoVhnMF4FxqwSaQn7+nECREGu+NRmmeIGYzjdoaVYVAz6asUSM72pp61k4kg6uj3FeQitliq0fc5W9Cy41IgxU5Q0XcxqWsU9WSrhX/yudlUr6v04YmQkWIEWwEiwgzrlM719b4ExsGaTuBkQLhCHDOnTdiR8yFLc86QWYCaKmGMUOANge8nrpsB63jK744oIKkCXOpHy+HALNE9pT7FyL/JOg+q0ONKAg0A290I9BDIMxLP5GafVOzP3dHZ/CCMNT54i6Jj11B4nQp0IFj3hIRxdlUcMTo3Nmj2PE6oTQ120VedN1YrFoAbJIsFGkc/vSfQu7S8n4lLuUyCfmKKlX0qLEfLY8mZ58ET7+Im36hAYPpyQn6hxbDFnYmQzICOkknZB3FtkxvW05nS099S4sjeQACXORkRvTSl7TQI06WOXl0MVaQZojwe1gIlQb1snw0uLR9nxJw4XfOAQtBR8DDFhVv1zSmUgD6rUY7Ut3GCWkvApGLjW4EBuDN0svE42LgsxSZQ2tnl5B3JjmP/WxXqgB0vNMEJAlzzzoav8gjSFSFaj+wSYbQxX6cs38f7/r91vdLhQOFhDJYaXK4+Js/TM46pq6nkscQpz79dvv9j2JmSipPOruFDmjFWxxw5lQQWNoHDnm4yoFKhnfWupDOznbWE9BjigVYGkYk9XHgVvPuibmnWVo8hAqAGsr91gxSagKs+98pPuT31wWAkf9Wsz1EIYEXThbb7hyBDsVOVgsTDuA3IZNXEEqzzh9AhOWSHoIMamIoMjuAmQAHYJO10tiv6NHP93J53/70KgrerjzC4KsaLBEEEat374F2kIOtmdMKtBUnVg8LI8LWw+FSEjtuX9aVST5pU4aW3ZlggEvu5Esp+XRC5tyqYsdip5yo3ysPThqrWTSUESV9HABSoTQXEId99Wf6cbcUgGCn5aS/erAUEXj60gfI3qSEQtT7VHeMGUG6KBYL3JHttxEI9tLu5FTvnaptcpo6o0RSwhIKkec13a45PbdsMJssS/QiNXsVZ/98wJfvpZ5czAkqBHyJwcfgE4uYIZigJDRbVd2Q10gcMmpXHbZ+abn3MKdFyfnTMqMBNqql1AvrYX1MlHWjsVKhKLYo19nsR7G2eaS2JI2st4ANRFHsIwaK7QLoigKANuUYe+cljEO+7fRko4kLiEOJq2FNymqfEq2EUi8HAET0nC1ECzfqzpSWUoALu8ksicVpKAB4R4oPI3vIeGFMizQm2p5p2guowCyy3TV4h4MTDmHBCACQYAVhunVBQA8Szg5mkOO0mtCcg4J27JfTnQ748hspJ8+Ghn4ACKxUBhdJcU6q2MPQgF9Y5lHv1GyRxGAFABBStXpeNM32yjIK0fGZPM1sWlB9zrgwUkTKs64ZhdEQItQyWCjlRnK8MOVIqj17Ui44+L1+eFlznbRRdT2ljtIxyQkP2wLaQ2vawrIUzaDN8Ry1ArXw+2E/UCEzYl84++U3O+XCAMqsLadJ0rIz4Omm+KhEhgsCg4bKvxtkLz03ru1MoFUxzWpNzf75TTqjsZ0FHxTqOCKpbPnqia/ILfvSxPFV2tLYDtvh+v+kH2NsSoUA4B3KBheJWHjaYzgAsCrohG7QrAG2VJIA8EsCWXfLlObYK2KgAkB55XrPq6K/DSXyRathGSWopNYMsmwoV+UayzxmGZSuyyie0gKwsL5R7DEcviatIWLp1OPu9dkjq12mTSKeThDWka8ZIhx3LSZIcsLW8JA8AFgZtrPxpDOo4QoH/LCSExU/BnaDLgy4Xqrb53q0Km4FXFHtrhGI9dLuJDV7Et2KswUA7lo7SDgFo2e7LKunzMiU7+PkYyZYRRwf1yRL7n8h5ffpQyQuHIaJYwwmCDbCkYow1oy9I2OwLNkBsPeWMSklITaXSwQ/B8ddN7DIQkZ0XKXjKgz0Ke2+LgcUAwH4iCij66Fe++vLOk/Te7zk5oE3ka0GAAfn/s29HQdJA04A4NXOnBK+1rU9wINRvFXZEx4MCvSWRpoSbeFstRdQgEFUI1AHb+6ecFAMyHIPAzODUbiahRErQbKbbaef+Lw4hRjRGAbgbLLlEJURk1kHF4kLhxxfCpNkcNEUB56wZvrwyBrUd+GunTgA8HOUr3rkgO88LcgtRicNVDhy/wNpHfzuPQcZkSNND1yu2ZjgMEnKEeDwnG1Pmdw8pwCAKCg+5tthq4UieQyNY+oNvQR6UY1Ao2InK5WavbnXOmNoYLBUQADDjNKWWJu6PxNfFDsXIpgmpKZL5dmEUAfAsVcf2jiYsFqRYRpA0M1n7C2BjJRcf8TuFrt8txotAPA2i2nw8M6P2PS4WjQmEJlakDtlqaqlJwUDGMPngauCqJNqnSKEYRQ47h11zczBrxwuOYAtUBM2PD0KVc890Qc4onhMSURLJY23qfir0V1TtUOcegCASYkOdUEBPHZap5xen+TKiS8/yf64RfZpM2OMhXZrnG2iB/9cf6mTgcSpVwaTYK0GQJ/+Nm2pRCiPxs+/MiuLxpq5f07q30GCAAQuYmvIzCnv9xi10whEy3+W8+SCkIE2IUAE73dBuDMbe91wBFe9LCOcyPBBTGytlCKAdyR/TflbPphAoeAVR1JEU+M6aC8QBbmIdnh46+XVu3NY6ZOB7e6jEIOC52CWYWRaOpNUJunhpAZIDYTH7F6MTrRNKLZ14g3zzuBClGG0AigB90wFX3XZUZKjXv9wB88/2s6Lj5Yq13o3fzDZgH3BGrWu/bgmmHi1zpwigxUig5Uyzm2lRvWaNoEyqPHDKQWrJwcStiHNusWzmLOCow1iZsy6R6NEDFYDAXaD4hNKjnn8KNieC65qjSsOlGAU0cBEsfxRVu8+MzhDEJo6K4UHgNdcMGnMskdzHe77pDZghrHrkmS0dKRlG1DsAAqvgoNJjeSEGFitzXkhbzRqc1lcDvP8/atkpVuSYCuMndlMvvfdVe2AaiXG3GoYOeeAqbyNYDGDC4brlwIr3SMU2PDNXVBl6VBNoYMSq/wlbHIsuWsZtSXzwEIBjku+/B8jM5YKAbwHaozqM2WrWBoTJdo8hkKj4jHxLJXYQFlx+lVbEN2JY9cA9C2pMIpWSAj9XOcnTmxxrAY8ADaxehfPevtxjoxrHWq4KZcUQRIRkyDioVo6SRKpQudxjDhYbrVsvuP+u69HnQ9+nqUIDgBOnoyYqdja9IwZvVOK19vaMAVr3I7aLBFyFuheIFxwZZksqAL8/V9ZK+kbTe42j4ch36HrQYZwykVunO+4k+VGMFgVCDAz5V8S+ZfIzFga6eOKNOciXR9FuarR7PDA6KVPMtqOZeTzAQDhNBFDAMUzaKC54ArsuQ9jsahu//hL4NQwFPc8raQopfG0PIPgb30oCDOrFmPb01cKRc8hwjs8ykYLocvj+ANVJwBHSa0TdhPj0OYjFnMWVBeEJmJt1fRbR2efxyzGJcJhZ6Ub9BdY62ltMisoM1r6UqYmHD7YA+7fsuON2nnanWAWpXDasYXGZc7naomzJXo6AN410UntjJjJcAHhRlsxTmIfBdD9O5qVkzc3RzeL4VPJGOqSAl08gKlCGLaDQjQLM6zyDieNut7onjtdPujXun0PseEiw9Co7AWoyW8mTwwQQSH5Wo6ADvsUue+o2hnA+WWqxhM8Y0D2vi0yyyerlXqCL6AP6aWygQ381k9LJAFBzeWFBMDBzLW1Ounj1yvS2XccFFz/OaIwRnzRw8mDKNufGrwk6bRPiXLh4sxtrVxd8bkk8Ms2gAZ42rY/nMRKphVUReCcRKAQyEezLxsuzfWoacFVwgB0LxjFy0RixaO9Hl3LzBLhDzHAkRKvV9zT9bWuceO9uGL+B0lTnom3zypTEORzACCKb8yKVpbUKA/V+jAT5TiWGkHF30cZ+5yewMCgZ6mnyEX5YNP8Ul4hL3nzPCojlT/VaMYFnSv/mMGVCZ6+UUiVEVEJXlh89uyRbY5YrzQAF0ncUs2ln5irwNka/ThTAKsOOmVaiIQkUMi6p7pxTJ0exf5iWSowg6xxktcvkorL0QBY+kN8SkWE5kgKQ6HbgVKk1c6VJeNMBI4AwSGO4pbkwH7gvbz81HNqvseaFfZE0GhLhIPKXgDQLGyN3X+LYkA8Hp44EEFpDgAwydkhCTxe8xVveezYC/7hRTcpvNF0vVSokVQ20BlPiRXqYJht6MzLM8u2Ezl0F+B6pymRXF1xNoNftoF0AMSxksTmntj8PIywoPCKrRSROK9Ye4Ew0EYyEAfmkH6ZVY0xIWUAmOfSkRBdTCcZsbAs5jqAJGW2Wmt7lSadaFE+kBy3mKbsJ1x5vvj2hDulrdnZE+DBjeaCWEuCz+GAwMew2sATvv055bZCdfIV7fu89hzJDUcrx0klcJ6BHCeUWs3XCLcKyQMvQ/5cTTivaC0AIgTbTjt7taCwe8wgkUTK7LVQUI1kH1CYuSrFHsQAoLv3R1G7LH/OiuaOB+y44GD+ZJORIfM6aRTMKMMtLRl7VulPcvPqP027FX8ejwTVYqRwKsxlKIid7liFAp6GAWuAdT5D3E1aPOD7KnGbVzLiSV9NfjZHn22BDoCnJZdT93u+ERcYC5JI42EoQSySgYoxcrCHKskAQIdk0zOvqCpCTbQtFTjUms1xjoxqvTlROGaG4pZZv+LHtipfrNP/50Sgw1OJpbAHwHTIVJMbRTc4pgntYCaEN8cGBzd3cO0Fv2s6KM0zpSkjh517hcTZCqYDAGFW1f0dJ8sFo9DDqgYMlXHFreJYKhCDrGWZicTjStEAgpGZuqhI0BNtxwjl8TsofSZzVN5ojSMoJhJ0S/jzyLvFsfNRRx+Oky8G3qDTCxSbsAdc3D3ztVZ+B8eeSPVBVBYniXeqdxHZV8rWL2WN9ie+E6+QN/qus0vP9bqoEhCaFon0iS35GPGEBee6WIl8KlkfxfHiGIiAZEjv+lPu1AgA3euyQXFr1060gWiKd+SA+3jnNFudqOlwoglKb3QHbGdl3miVfDJvh2vkI/FWp5CAt4ClvMbr7RWkCxFgy7YiQtku7sQczY2+zH+Vte96hcLST0g+YazC1iPPUKADYExI1P2FrKUFBX/HLWO+4ojidyAdxQ4sU7JUJ59fUQZAOJJNz9riQvmdRzeH3RCwQyhdVMwXhExlhaPGyAzVLSVqgcdjz6yaj+YbMyA5Nv9viYWc98Ax3qJamH2PPkLy9CmoKNWrD12pjByOKbeGQ5txU271/7T0eCE2Z33Vm4RsI/wqO3VtOo4BAHFOK7mW+FKmVQqvsqQqlXHtJeCPYr8zJMfQmClJGEBpfwnoIuPWmq3y8Wzh4P3ronMEBKeAI4UdArcSRW7V5Qar8VF7ZmGt/h+Xkkl/MXlDHPISSCK11f8TfG2EqV8fKLHINGGEEBzMHBYHh4ZKovgOtaF6mQveAfb9w093B6fbd9/dd69OjK0uLi4u7lpcXFwsqby89mMrKcyBJ+Oo24vUsZkmDAiAUemmfl6I04bCZ22lIqQQQ/HUKAaCBlGmR+KcqQbA+zOKXDtOHqzyM6XvJAw7nOshZE2uatcRYFJxxR3hwsLCzyaHz3rmTWodFh8s9d6RMrAJ5iW4s7SXWFuspaxOAlYAEGANss0sWaWVkSIGwyA07Cq6qJN3bXwevDIVJsUEZQaHiDX+WSKpoC2FDBQWVRTSii0wJIeUIWJj10jMGFB3ylhhNisAgI0Isc6TWh8jTFgEaI2YczMkRQFKUWyXxogVjmmdZgCEU37ia4sNjYKg+akQjed2MGgOmE6EX88NHBkCE290B8Cf1O1d9K0v7B5WlIve8uFQ3rvRvAUs6V4D1f6rRCEt4JiRNDVLE/aorKyPVv34sbnnic09j0mIjN9WCtGyoj9DbUpRRX9/Gpet6XTyJ39WApdJXF5aGDNCKMsLABtGnBy39BlpFKG+48/hYGUF8MawVGACUcP1E7HG1OkBUHrgs3XRBZ9O+dnK3yp9azc7GVp8TZkk8LU70vSY6pZwwdCiT5TqJ73zZFV3VuB1hGjxF5P7SMxbVD4a23/g0t59Cgoisb8jALwPqmrYS3akisLYXSJDVIQTYSoQBL5GKHnMyxKcDhYjcmqrgwou4Xcfr6SekkFrABBmemxO/oRhwMWAhcI4psW4YmVdRTDgA2qjJ2JhemRgf4lSfFh6Tu3PWz8nUbHjQtI4dXTJgz1kgyMoZhDW3AGUvKMl39NHm8fMmI4joKR7fL1jvQSoxDEedP8vPtMo74eWznJRKPjC9uPnnV2mxRkCXCVJ+h6Jd45TNXAAAHFOK5nOyzOjYRSlFBgqkTA9OrTkj0UwUFS4ItRYjQcAtAQknQBTQfraoF+I8ou1XdnNLkQsZnxOmuV5A0fGwfWGW8L7d3qmJZz+fNIJKPN4jqU6+9qcsLdgXOKFV3uPA754vNNE2VnMLQo3bcN1O+nu4DXpx7WJfq7wFlh1HEHayRQIAAixaspv5y0YOkVCDKEcKxbmkIYZwT5mdBrKVDU/ewIQiHK5NBXQW5wu9Des820RAFDac7KEuX9TUEfNEU30SrgD6CnfOcOmhby4U8xLH+jhPGzReE3jGnVfMscph3jv8TTc5DpFyzVE93UlZcCoJgUE2w9mI/JOEa7rJo4cqRNkQQ3s7TwbnMwR38vqC9RFoXtu2fxx4zoRDLiN5UY4ZioZQc9wMBVAN/oC1RcJ+nm1XWjHReIsxpwjIq/lHCDRbB8hyj3dQ5ykI34ugfd40DpzodLioPAWQW8BxyZq3Wka5Fj9NWG0sVg+IlBaXnuNO+4sdO/p0BKSyDnGJNsK1R2WxgBcFjIH1r3jfeu1iAAAtFvF1Ln4T2fSPtg5CIPiHLGsTCd/DOCKYCsL6RsUSTxWeMoAWHqDqeOl2DVhv2nJXuNNdwOghjQ/JgHKz4IjNSIZiXDCLSi9Pysl6wZpNTBsXN0L6a38W1V7C1Ct8cTcmHLMTKmTmzOrqfCUqoNQrpSV8EoHEFSGRIbs3lZRiIYkBb/BCLhzPJBy8DR2vvF3MTYUw2XBJB72GBFYBA/Agxe97tE5ogdDjONCkZZn7V02gCN+pQJZtRBGfp9hIlkAPSzpEGLq0O1NS18l9NctdglRAMAFpTkVJk0uwTsGUMA5krDXlXAPyqwPWEENzFOK0FqUxWrSX86GBHkN/N4fLvIWS8/F99uELEaXpE1Fe2EKb7ZiwwCg6WZRNWlSJlnAudjJu0WHfvrmECn72WT0S2XFpBOWpUK47vndxwkSNDIDksB+/DQ3vTnrHY2dRRdLpe1pSxEDeD4dvYAGqI1dztngUwaGyuWhqQMIw3aeoJ9f1U/huXUDWBmO88MkpnZ+v0GcovDMzoqbWDCj0x2vsZcFYTrh6AFO1sK8BgAnEcHV3+Vh/xTtRtU52XKtgSSnRhTh8iH1t58Obj9NTciY0/EV/iH7TMJSc6+tT5o0whKUEAKuCxkj6iwzSoxslYf9Wz4ug8zmd6R6S+wyRdNtKBysbFQDlugFvMAUYoHHik8jAC3pdBNiKhH4OZ9oyK/t9fycADZ5/+MbhuGLtlSnNM+osRcS7oGaEuS8r9ULhIehrI5zMkr77u5N9qyoUqLMkVQp17TwlqsB7CsO2Oc8JHHkYReXSgKbCutkRzJEjoUtVauOHvWapaP/bmRo40tPpPGcPoq1ssQKQBQDSIEueoGwwiGRnBRIAGAEU81uz031qWp+Up9RAKiOw5nFKVvDbu6KShQQxSPJi7kJ+1ovyhvoF3AcYYImzk0Tr22Ily2Nq819xoqE28ymAhzek3YqmbQn1dvglCkaZiMSUrKlkM4bvZZsQE8DoDslm6kHzk0Y6p/If3QpAFIpcU9Ezf1byd0Vp4B39rWPJNwE3MIA0S+KtaLdWkhj+MYd+KZi3cTBto7oZKEAx0SgpYehUb0tJIYoukj08N6GNB8xjhfNhg11LHNmAIQjWcpDUw/CYKYoPlz5G7DLAqiOFVMnJx0049VxZlorz4gF97W+6pyVXGJV5cTM4dEE+4RGkA/ybXprtQWrnZZwhuC4+p4FcbhIQBQzTNuWjGrRa6FGqxnhtPYFHvsbJjrB1APv4UKyx2W2EgKAXFhxfHNZXhTdIU5R9lREE3cXxt3iOqX8lkWBoJYJSYWxYxWfw1uMWx0s9G0sOLPveUZLmnWRSBEziNAOHYx3RK+yRtkwRhh0AnD57Iup6KXuidr33ABQEA9Tm11vrrQ3YxMUtPKOZJjbVAE9pH6mhNTfWXn4RypghA1e+RzalHXWd6U2n40A1znkbq25KFaOmsq0YgB99Nqb0fhJ5s8GmnswNSUSj4lZlGiww1M011XSHy3RKbhDnAIhikuGU+7CnZmCsf2ZQwUQwL75wUCjmToS8i3CK49ArTBaeORYuzyrO1CUzX0t/8uHuopeQBfSu4gg33YchBkuP/apCFGRHGu7iPk7Q4312FXE2liVP8s8P6Xdo4VGFM9RqboN5VFlEEBUIWpuftSX2fn8qg8puNeeuuTLKxSQ83m6tVHrYiBGm6EyfYXLAkHs+nSIdzySeZ0orZxNOFMPwvkY/6PMfxDrVZ4cHN7hwJ6+fLF4XhXfoZmCPeM7J9wGnP/WBxYUjtGwzZwBwQXNgc/wbB5UvYf21tUlciAcFtOpluZwAZJkaOiTE2GIBIW30iAjAqcVa8aRKxVoZhwCRAQw8IaJD6aWva77q6VnaffHh+6/5ycNOKpOq6y4vhFPSr3/oC1OgcDBFA/cWVQqbA5OQTUBKW/6Bd920pLiGxjz/QdPbXM/88vP74xwWiytgwqNvRsIdALBIZLjOpvwlAuv9yReMB2Md1wqclUFWutgQgwJoHua9dSBe51Tcs/s/5uk3x39/1d6j7fscYQdCjOr55tF734SxhuN0sw5ArN7s/sAofGwsxsKA3YgaM2ret8m9TVmSGDw8wwI6ZBUZu0xK3hP28kJSTKGL/XPv7mXL/08eHPOGD6zoliBxURw/ZzsojVcaDz2/2SWlESuNmccYv2MGhn7PnFMHT0/gfThe9Yf/GP6X//z7P/8Dw9Acv9hHQ+cs2DxfccYurjP7M817QBY7SBikZFc6ES55qYr+hgglGuVKVgMmzZn5fqtutwYG3mNEXIl8ZyWp1xZ02NFA88FogO+IgMGF9uxaKQOTsNaNAiWzgDujH/a/v8S74c7x9vAf44BsqFPvyhynUL2wcDB7Ddcmhp4iJaP57p0/+mfsv7Wa+vzryQP3yf7cx24KmSFQfm84wTBM604IklnayohcwEBv7xEJcBSMhb3YmSabei8zSnz8JOQ9dcU5fISR5mxU1/yBPd6eFiUI0ZTgxVwSIq+WWJouS0T97j2GjPQeYJQs7MAd8q2tv/B182doLnAROhc2ADC2AUklj6WeahIwTDhFJ8HkiM8xq9Q/58xfd0vyP07yfGdxwPXy9J8jZwyQjFrP10dgIzYDJstMRcAVjxsjcXn9/lX+mazOKbxtdj4W5rFH9R1f5d5hmMTURu1M2a7x9GiVyuXiQMPB4c1xqhVjGSOZlnBgJQoVShqmFMIjEiCThB4jbB/S/bHICm6sKTgk9DAEJDGMpz5vijNJg6K3eOhjqSGWr67hv9fy7fxjUofPBAp6yDHG1/r2BZZ956hHcUOwNMcXHFunLmCk7G866+E0rW7N7Yxa9qy978ddfdrqaUgT/jZ1LCtUVdZ9EGPbv0KUmkCecwVcMz/wGcc1zK0YgALrQG4DlplM0VzBrzlv9D+TE4VQThzLqTSvrKjGa+YxxiWgC4yz5f2YK3PyP7v3vsDlpw4aB24kVSMAZG3EaIEWd9RsWhLRa4GqqXlGhb4XjVQ8BGGyLasUwYzTj6W1CNy+QWZJitIXLpxpPgroi9c6r4naHqCaHOOSM2/oRqO+YJMiJS/di2ZSSt4APCXYbNguYwAXuPpO5MDgSmkTkMiH90a1wBaMhhF3YtsoI59svr/p+H/Ql8qPSrZpxfcS6EeQzEqhWBRgQOUd2Z0FOcGwNAu0aqSzYQAuGBB4uwwaXTBe59qZ78L37xN6+ERlk7cecO3W/DU5mdMSo9HG+sWohmOfg6O+fXN6uc5ltSITIVk+eDQr7BwBDVOAM78zeOySwx3ceHM+5v5bGTj4MyBXmKji8nTjToNTN+E/r9p+RGfIjnWAxd93k17+O9QQRl0gK6/iRxseUBRYCx2KKZVm1GcK1+YNU1fAz8iqVHH+qSCAqkSLc4zGUygLH7vJ0OcJ/2YtD6isHQpkFujp/fy3Vzw3ttTwGS0sfq5RgFYAafF699O/dptpBmazQheNecE0EQgKI5UysDiPiliFxKSksLpFCR5xbauJuhFw8XkeW3/neW7yf6f3jvV48HCA+d89//1XYSJIRUF67804vWz1AH6dNA7fxrBLWhd3g7FjOrNFZDRz4BJSYw1uOWSeoUHWJYawrCNOiHdHdmlMuS5xiHJ+9pCYWngl6jasoXd3psG++yTl4nCqWhzqtWoFji4yFhZZbBKrbKyEtrGqJwPh5R6KNzcEcqZojLNGbhr0X1pXVEwWJObXCT7tDHzzNdIHE2M2aWiKb9l6hDr++r/l8YvK7Pmf+nmgXPeBgZByRjZEOqpYcqLaUGnpFn4mh0B70fv+zyFlP0qtmdVlbYA8PlLEcgNEBq0DdPgg3qrr0aXQXaXJmhKAfz+EBms8fwSNXdEdpjGqDNuLeXEbFMsyRVGSqgmEnZ3b2uOJgeXucKpYzWSWVrhjNcMDi7b8op2ItykbKa0RVVGnFkH6xvd76bGETCXMYJkAGcOu3icOl2FMmNOPmt8OnJdxeAukgChDPdWiiTsl5x6btNXLsOXQl/nbyYH9oJz/kwGqpS/QwMbdVj/6JYmSUA4fei/53rOxOvHgh3T59jyLfImT4YRgJfnOJ/7/BSVUyVVSEt7F3L323GjW4uD5ZasMJQHBxLTjYxY4cq2yA5xFEviBQ8i/aCmsFpwD0eh3FBWg6f3xc1On+d0ZoCZjaWEGGGqsQ+HHJJh5/VYVYq8VW4qDmOObflTs5UzOAnWhlS1RgYPEc72q29JwAXBQkpeJhBHLtg1dC8xoKWYHVGUjJtx5i9H/3+0fJ/UmPdFOHAunOkVfbwPcggZKynFSG+WB/yh2DrWJEi5TiB2Udo2b1nHWhyTjbQ2R9T1ffga0hSLPSzt5B5PgUrEbKxz/fOE2e+CUGbxk7HM/YdVt/nsbw4gxrPzrRsssK9ZLxne/1DwP28bh0uJvpZJ/O6mpCVaEJan1icD5XZqFucBacfPSbBYOKOYVV1CnCk0+MEo5OBGTgAAnhaZ8DvswPy0X1GNIxDTHDcUzRlAmK7X7No5HBEKApJN1hpF5IJNo2O2ZKBUGdTFwC2mSjo79aswfq1eySEBD5wKFi0Dt2Ubms83RjJRg6jg4fAcS4FNpSJOIPoiFUxTeqw1Jx/Q9ORZsxzxlyO4g0pyIKTXDf1/8Xq3qp05i0cfffOgix/u5fbjfb2Ye3mWfT/LgX80B3w+L5P/dvLHf2qNbsWP11RVDfsaG2YGOjXYMly4VblVctPRMvROMvhk7+APtx0SC1C5aE++JWy8ZWHrFm69z3tp4S4Oi+MixlLY1pYBg2UISiSHXPV506JDKO970zPxjgAmIUFALgnmEUE64xSmQhgugMrCbN6ArcgFO4aWPOPz0I0iDOecs2Mnlk6sJ9P+5i+hF5wKVh16bmqdGth3hlF/pZv9NTgezsNVY162xIU7OQKK3k+CRZys62FXPcIqp9hvq5MVtDD2csbdbBHbyExeEEWXRC5xqnLrcTdrG/G0lZePu/uRXt6zHE9jSjIdzg4zK9MoE8OV2rjMF+OockYlTcoEbwegZvks0INK1ib16UuoY/5rrzADpIiNm3llFKqKQnTOXqS3WlesIpoF6bCpinGHp/1sOOS+PyM6hhw9JZNW8E5gWBCPZtU4Axb3vWLHBh0FAEmnw3YM2I5lIVEQEhtdcByYepBcR2w56ULMACIYD5wKNlWvXaWtvr41tD6J0Ye0+mtwPFz0dhb1PQqo0BlQJI++zBCxaOmJtj3ChsudvzrynpON9yYHh6Qm7o74BbVmjd1wDrWxzEZVnQUHtRZJ7hyrPDa8+s9HumuL0lBZR9alsUq0iBRRIkaN07hfsdFbXEJ5ArwzICBUrmeAz01Btool1bzh7z08asiNv9x5Raoo+SKQhtQok1WMeWYsLXmzSXi3zajdaBXvwklNAAJiJJcmAxhonMs6fwKxf1aRDTPKmCkhBRcaCp8nOZS6lSQyNO0eMhwLnJHb+6+rbw6r78XzIcP6+ruTANf9JGFtmNPhJWPcuDOAkTWhIiGnau6uJyweetWDrV8dZPnqoP7TI9v5JPk87WBbtPUZejbUFsK3xs1be2rCItFbw9zBLk3aWXv52bgXn6UX6uZzdPK3RbW/E+D3sywS/hK1sowfOa62I0m0bC4BqKg3kRmcI5BIGLke8PwDhNnLY4fNs2V86QiRiJ4qK0E0QBLYzMSoATkgMt3DzcTRSXUSJZs3CrEMkg2wcl5hhXMM8zhe4j3E+5CUg5EEQ21kp2mMPhhM347R++VvqkhAzikPw5HVL0slDkFdIBUT7UuSDhFmnWQtUMgm7hSV8dfjiqenQ9z+p8u/+08HvfnPB7h9PPDt0xXePR1p1av2Hqfh5INO03aRhjbmOPps21f/I9Kok2UFC1iaNpMA7gwQJSuYVFnkmz27xwXCeA/P7NskFHIwiN3BlkoOz9ThHWGuA6D/Gxhiy2uOatV4odIIUiVTv4ediEbwZAEhsoehRWC6k0JPVmbFWEYIohCEOMTQheTBhbqZvg7jl8d2Eclxnns5nMb3LyId1TKgmwrniwiDO0lS/ypzBnjV7mzollYl2xejxECZCHvRGprIu6CDgnXF7qKSpbYG62Agy0edfKND5N0A6Vhr9MLsLM/0CUoZrkoOuZY7fkyHDi/N02znmGSi7Ym2I3uCZMLPaXkW/ZdiexfJfe+pFyAhJu36fI33D5tvn/MiO5jKKABCqUFmog0nSkbgEXG3Y/rev/aIOF8rZR8tlrH0g0WdjQXkuZ77tP0Ihi8dpm/PPb0vD5wyMZiXWrMU6eGkkJl2xeDu2PQvwhQwJ8WNmz1BWQo8SMr8ZRGmKs0gqvKSClx+UBfP8IEgW30AQBPD9ZA8AjG6prCIwFJZzow2od6jNsYN/aGGSo4wJg2ubErcYPIEyNR6e8fJM5q4AxN3PTVb8iN4IObP11ZM/UvaPlD2Cv08AEnS9EJYP+1IYa5zcSrupNyupnR2Jk0MOgNR0gXCZ39i+vyDcyZOfkqSJpuPZLBqNTpuIAHWBcPl52SXGL5yGL8q7NZzEqYHzi+sLVRachwdya1tzuB+yeGTkkILzxgUTqx3j20Hk9WFHtOaU8rZlNaQpDCxCI1OFH3/v60s2qWqjKeCzddQqiIgAoSAM4UURFJ5Rp/7UNtjye6CJAD7e7aCkWT2iK7KszXAAKAYEDdY11LIFFaLRA0eWk/WHToi1O07JEaXxpzfy3cfTfDkV5d19z+T79woQwBAB9Psaqavd9hM2u9EySx2ZGwGUQl4ut1L7F9smz+o9R1lbwBAxtDpNox/EsIJ4aLgnwAPNApwZrPqDNYvQeXOAPHVk+Un/96aA+RHn22HMmE5csECbIT0jmeL3s6CYaHneqw/rOFLY313PFhygAdO+TMXmY6lHujim8/jCDwpqC1q1pnIr8RofR40onfa2ncMwAqLK0vQ5rIltIZMxQg6mR3oaJZ5w0yUFkSp51OMDioBBAjH+p7V22a9E1LTQcuNfiKJoSQ3kcpMKpfTZFPHCGSM/biItJqdDzSQibz6DtogqwpX6VBK/9Vv1pr8MmSBJBs6aEP8yEbA+n0bRiOXqlf2zhg3+jr6IQcbPo7/4gjxGdHqKAAgDPmkC0iWDY5ivcNTLY+j8bWIEiCAgIe+RXpExB+l5S+QuYU61IPOrzpb102KBUGVJU5BMJxnGI04bZKT4fHx2p3rYM5+jmdQvzpmOJyXQFahQ6UQrMN85LphlyFg+31XhihMxs3Y/tc1f0dI9Wv2eOCYv/Flk0R31UPtN08jCB6cZHaG9+VaOU+nzwKCE3fA1i3Nq6prfw5cvfUMzKLZ4nrb0k+0DV5vU7hgBx6A9V20v3BtftMxPRw1exLCoNlNEmwv+yeHSQwQ70t6LFJghjC0jIVZ/aBtEnPZw1zBt98t+PQ62T6LiFeV1rZtP1s+Aq0b3BkchozboKTOxrAxg68NnoVybNnMPW64cs16N1ngfg+4eprt8hbPSdG4CoCx3/uR1tmdDU9ms2NwtKRwQkIE8Bxkmyp/YMhvIfnPCsAHvW5FBTVQeCAl+UFFPK44oCZSm6kuXtPojIyxf/2n2qW0rsmHDt1qZBYKkavLOVhuLTNCXRjhqgtOD5JYDn3NhkSjB06rLbh+tHKudFCUy0YY3D9eqKOsxPTKtWKeVuapn5AEV2M3ml0oAIa+wVs/uq89u644vmwXmNTcqZEAQDfbByo+uhL/yS7QSbsRAg3WgaHGENlDkklVSXRTv4ZEelITCT9VC1glRI7hm9vhQY4+fB3/3sfW9vfZ+yvz0NS+z0sZqiFopWaRzVij2NJym38WI71ChaZY59IJn679Xj8lT6mb7LYuEEjOIU9is/NnvX2CFAlRAg11gFWDflqlZzAr/zt4JQy97cP6dyYqAA+G3mhhX+ARBQQ12tCwzUY7g/TqKT3KIVvy0fSKXQcSjNVPPHLBQSGktVtnzxkoRNbvfJ/EMlK99L2vXnDKs/TOlFBHxMnQq2mH+3k0yU4GOWvnWj5Pq+bKCgha30SYSKyNtB3RzGIEoOoCGWVdTvbwtcV39izWcgkAHWWiPHBub8TvWGWvljBQ8pipYrA8u1SJeE8OE1uGXcAInHPuD70gIEylpREzzv6a7PPCiEuTT7VmyyoqbMbjYAUc94/ZRL3plZz2cC8rXRnb0hHAmFOO4zF5j2x0ZjbYPWk5rYQJACAglM2BgMfzmSs+FvUX/dADHmxiYn89JtQCgEVGzLQTXhHkAGC45BEPxEfTHuZ+qWwMCc4D4UgX1z4XNmAO1iKXugwxSTlJ6U+gC4BbLtgemviS2Fn+fr8HTqstGgzGilrKhiYMMbi9vr5ETcsG+WKtfjpv5fpDFUB0OJWx0emKWyoZ0ICy7Gh72IFywFjj0mXNoTZQBa4tbJZ3DQR+CcXHUP+kvovjQtbc9J0MGsSzqVtC/YInuZ7F12MJcTxACCpMq2TmY/TRtkdz+0vj31c/9v6aDCL0wqHorzMlfcJB9TjBu7dI34J70iHQjdiRLsTQ2OxS1t+FZ/dDwgBAxxh3SzaPhq1eZJ1OvTyyN1R8pil/KQBIxcb6OjNaJQIAJCei5TcKIz5XXKGAA7V5Tr1O23blDSIM8ji2lKrzJwNmYS927S4EQcZ143hnjPMWBqbFTvH/k+qmwzDCcMqLy6pELblq/5uthtsn6YXBWabNjE+aezEdjkFJlJSsPZ2vSr9m1pcjK/hLKlsGQfIy6N5jNVSMUX2oAG2o9lY7m4VWEQKez1n16SWxWpfCdyhkDPU83/dcv5S6hcRW4FSwohHBhIzMmnXboqVZW+2P7ZqjkaF3RF1ydkmFSdBZOzIMnjnrE/Y7+2zBq1ttTtIGJkSgG33BXa+zHxuelg125CG2BhognCFJ5/NJNk9+tkf0eEAIwrFdVvq4D/b03z8EWjVxLLDw8zlAif/AxbkKIi1Cw6SLDEiqaAFiSBqdjyZy5zTfmw31qNh9Q0NgvpGsTUnnicfMOKtSvYkvGHsCYR1SCKGstsrCSCVeo8OyIg83x79YqR7yybScoEiNEhTA4LzGVpBI+krHJUtgySp39POW6SDZO7jcmbLTWMPTivSw6L9Rhau9cCoKoIVoLIMBeEw/i+oz9ROB9gUwvtOPcCUSA7PNb9yT+2LGzicJMwAKWe+nqW+I7DN0WD/RIKXBDGVfeQ+/x4Og5OKFQ1036c46DazaB4TxQa1Xyl8x4vdn3d0gmFeHAACRkMC2x/WmG/MIJ0AmYb+F7E0kD/zIXxvgM2l1W3o1FIDxjt2Z+dpHBSntr2RlkIOszmgH0iCcds4HkRzXA2QSFO40esGYIRScUpwCQhrklQTajCIC59/X/UZiZQjN2yMOlL4+9/4UEzFGVvzg1XCzHnvDeSALHWInQs1UuEqQ9pM8ii6XND8lZd9O8prilZAOmWVFNXO7sCPvqLEiLXeTET3TTSuC9//tRoTTiRYyIQqwK2QPK3+7vQPI1IAGezEAFnKe7m7xEbb5nbp585CsREaJYQcEPBanxJx7r5SUD1Qm/J0AUsnaqNoQ1tARROLPvHtqSPCvMPx3jv/purQSBgA0wdjVH259BDkDyPL0kiNljzg9gM4WHYtfLhvRaBjNA4kU9tONsrgCQElB/cAJk+QaOO4qFB6lFNF5WOEW4lZ5rwEr0QumDUE4Sbt6iETwyQMJtBmnJdlN/W/U/YFTyOudw1Cu1P/iERiX8sJvWOTh3vr6A3PQL5KnQmaSgDtZSwtSx7Q6Jm2kxJEXwfPvNSWqUkaMjqWMwxohiKRmyJTZqlWkZGYzyCiPwA8rPekX9PgB6LW6MwRDA9AglGAe9+7I4QFM+ex2gdv8wpTZEJuvGPDYAeA9jCl+KB0DAERZUppYF3gP96T+HMG/JpoPywrbXATIFDiOh+sipKOR7UV+L+nDZv2bEfCgxqYu/YDRQ5xAifOoOCgIRI+o5AGAd5RrCPYoc5AuOeW9VyKPY3YO6eVPBkxFr90ZaLaL7FjJGbMRyfRUN3WzpvavOFO5wcIIMZClmZREm1FwcYtSDbcyUylSMS275r8MTmJwt7aZopOxlXRg66PqBkhdWYkXJRY4mz4aptzPkWMNg8OKBF9hIrKQ7VQCePySo37i9AqAMB032qVD3tO8L6MEaPBaks/YdkI+JNHB3ZUmU80etf1s+TGJvpEc+hGUO8o5fYPiw6n99yJJWLecvhu8Q+k+WiPr8uuRPJQoABBo1mEewhMROAPY1Dn5LVvE1zAAKc5VRKuCNOQgvroOZln05IH73EmkO3814Ef0gt+Grjg5JETniuf8/fQQL7f+rzgT3LJ7wVDzjGI1tJY4G5/rmUQe7ox/NSy/83VOq4hMgkf9ElfRYW5sN1mtj9D3ffbSqhfgl82kR0a1/Ef2bqN2tCE0NUMA8JBR6Smr9oJe+90dZxDspgGAgcUIsZYIt0RIMeR89QGWjHZLisNn6z9I/wfQV5Xe87l7XPF8PK/7ut/O+TwA2Coza+xfTvBP0jq3G7z1njMDZO/xSR5IDvUNAoG0cZgLTMEsOdCG4qMtTjiTUML/6xUlK6BXAYAo29dfRRIxwxnJA8aO5CtUMuBP9LpQp6GAGPYkJCZXbKiU4iuo/5Nj/tAiFGaoCcVK+kQrcVhsxWq4c6hZGLkb/RYG7qtNUPXwuF9WKi8xtG1zZLtDjU1lFWkNQQGgMgU/J7OXMM8aCZXwDKKOANDuONilR0jR8MncycEtMaTcEUM+ncQwArEYxnPS/gbZXwozr+TARyQMggcYRGyw3XBm2WMkx7K72t71a/odzkc4CDxE7c82/q/6Mm7bCRh+Az+s7JX+KY/puUNg6LIPsDI2JQsgaOgzHpQROaIcc2NXFKyC0pWD7T9/iDTkgiVLHvpXO5OM5UOP7TR6wTKshtD/zqTDWI6CV5zexCsyjAgzjGx3TJEfchkDWnEmGnm4sd405v5kNwbsK7dzf0w1OrySlbKirJLdp92Edoc+9F9YVgUgBS3lwYJYCcBHZoCAtouPSxlALnlRrzb1YwXOzFBLR7AW03ct3X8n+8uhr7jtX0d6D2oP1v0yrBe+B+3PUvNTo/w4krHW61rfJft/qP+fXMsjIir4nN9yrb+fR013dmMergDQvkDsKjnjXf86AHDYt0nr2IgLYAKwe3y7to6lJv5BJl/BLwFgW/s3XkUaqCCP7a6dDyqUZEMw0WP0Wj2MG30/9zWvyQm3fKctZmXrf5mFAGQyURyYCS7vDb6Fn6DEJOB6bGhFjpMN/kvixOLwXhMyi3zRB/Umg0DMrAAYBuIAQBR3HgRITXl4LXK9aDASyx0Zhu2HFGqas+kJ5+LdfG5iupj0GPVpXvHoz61KZYPjz6SO7OHidBpWqndjkydY/5Zs/QZfQcjwkTwVexCLRpPLnCaDR/DjKjzxpSRlLfsZv333h+gAJYkQRRCusgplKqwZO5quMBZoNTuQSgBgq4+oid9Q0xTyCfRLD6dKk8LwD1ajl+BXiNvsWs62LzdWaKYspnbx/JJRyCWOLUCnms8grZFV0BJwlZkUZn6dOUmRqIzBy+fuV8jVW/UGp6mD80Azd/NOEDVhiNyXH96dkhzohadGhIiRiR0R/OwRSeE4Cd/zK18/ehzgGYxBVmfaM1r/8pl8SqZ8H6sF6Fnb/pJIM8k0q0f1W40kiKZS3ZGbsZBw4JcY3//v7wKAYCQAN/puxuJpsbbFJhv3tGPmkb/emqewKCXYfrZuOadswJjiN/wPYYUszktuygXPSg5nm79j6rSxHKWo5sHPD06948AxOoN8hXM2MTYdn+NxYL0g4P3KXLO6wT7qf51XpLQgBSAKgITZMw+SYwZiRdLJgCaG47KkyuaNOjUOwIYgsA2OPtCV8sCH+rGTTx0zld/Vove2p85WH9D5wPF8BcnWfxFJzMSdP+seyAv0122oY5hT9/MHQDNq3ADITE9SVxrPYMduVHyKWrYGOiTR923ec5MxvAgGI4aAuCIXQ1JyEVyfutWxa3MziAPnLGRL0sB8QnBGMh0ujrolm8ol2U5eruGTdAyeyi2tfwSwjEpHFftrlBHS9QKICpHH8hc0w2cYut2QEfwIzglOGWXbxdzEdmgpZTEw4Pr0DOA0Ii1U7zyxuQEkjxnDGc87n3jEqW5NJMUDvH8kRzozMLLSFzFu3ztv1Nz8VXXNLVjjTAwSCICtuRbF55xKNgEWCnYB16HdgPcRDF4bY61O9hnKRftxJke4Iwx1uw20f9UdHSlpIwou7sCjG80V428ccxMKBt/Ewh5HUIcR33/dmwfQGiAPb5TWQCUPYWBFj6HMEpPPYlcmVUpqdBLDSWyc+AZ2WTMndFncyuyBoPc2MbBLyxc9es1wskw8/Gx0/6myYvjjKkeSkYjxh9co3cf1p8NPOGZEBowZpbjqFuEHN7I29wHl9yx7E8XHWVQ+gbFdbm8YGPAxgsFf2A5hyK7w+QZyMOoUcaoZzUJ58+ZcXVSq2VxlkM0mhQtFFvrXh/FgEgZv/42rC5YOX3MYlYH8ACAuASgJkdyVTfNY8Qj2pCbOzU9mk8qRznF7XT99b7UpCHVoFzODCIIcp/S4ddoBbn/eIdCzeN2TMiFEwmehDnRl7aL/3DngR4dChSRYYy1PAm7p/KqNeF4vAHat4hNK7ocOSnDt6nQ5fRyCJRiJYDAJ342Wb/PpDpADgXG9tHbBm4lBW4aaH0waOQKydaFUPsjJ5jpNMaqvx2DPhuc7oQWdS1BJqgQA5dLlAqCRh7/8YB/9tn9/Eunc6BMkyC5WiCVdIcCjqSk2v/S8NMcepzBrAejyDQqAhXOMRK4LMdagM5R0JMd1nyc3AP8hAzMFHCGjukWiLnvvJQDKiTZPilSV5Jxv9ESaEIav44lggk9G30vea00OQAgo2+2mvIvTqSY0hyjIrTSROdnBZ7+pzdlkffhEVltAYmliCFpBLk8eCvs/KnlHAgdwqiSzpLMkx0luIp1HaOdga0IYEukJfu/tS9szY4wEQNPc1PA5ACOTSFyPFyb5dBKjUw8gh1oDEmYy+iXqHkrR48VrADBz5a9V+Yk+nyRI0GaXceysUcCoYjj8Ms78JL9OH/vrNhQMKYMekUQH1VWkqCaJi0FmrLKuf/DM85xyocYK4DM1nLUcCEgrgOQQDmFyh+EuKxYznNJue+CIrjwPLNE/9f04JSrPggijdu3Eh6e6Y0AkJACIY1jHHiK5EmEcgBAV6fFs3fJjO4NgHqEMIIcchCEw04LDk4BbOhkFo/BAObOI/ONIH8kskwQ+z608oT4FvI1i8MEQhH3SeUgF/pcf1d8ve0Tz0GsyA5uCbB5tng1ychWqcBl8ajyJSWiQkHRNEIF5Jc6dJkb3kzZCx1DObppUapLZcN/PEV9zYuuz7ZKUz7zPnsq9Gu0AEB7KjMyU6bHHYwQA9LCkEDxOZfQAcqz5aYUaEk0ETlR1ByWs8hX1BNCLMBWf8Y0RThJaP5WRfgV8jGIHMtCfyvKhmvyV736kMeSNR6rpJd7bpBf4oTQ5k3LBOqrNRMwIPtaf5KwfIiogvniltCqEE+6YOwDDuOuGfL56gBJpmdycjU6Za/seN2i6ThfP8777O3G/GaW01dtnyszPaR0ACM5jbvPh1iLX/R/qtfYDnX+cB24p3fIpSQSAVyF9rPLTMLMgybHW1Dj9rICRKAZ/px3iJ/1g7nefP+L0VTWk1yNqTT7wzpWBTBCUg1aJy0IS8LV2lAQsIoQ3Lj77yfgGAwHhLM4L4HJsdzrGUGo+ktRkOgd4enKQ9Y8iEsew0rE6sSRTfj+xv/jSx0IcgAPCEeI8u08+kKsm18tBD4CZJqQajgF3vphrswAlgXJmruIjyp7yQcuT6DshO08fvOEHvIlisAovQuizK1zMKPvCcCSZZ9SToWWK1cH7lBSSFKDIEEkyOKii3udIZFISUsGdD/vTV/bnb7jToKI5T2sBYmAc7US5iwEMg7nX6bsTCY0RDZ55epCdrDhziANgvKWqiVdhJU+6PJVcCQU7m/TQeTE4rIlONXxE4RaPHrrzgKeX8jN84qwHSc5/Kp/kSFSwH8UE76zTfxQt8L/PeV7kBWagrOz9SY6mMhVkXschSclAAZ+r1X8fw0nEPXqn5D//wvb1H7jjCAQB8h8ACBZKFsKDypKFT076QWDo9I2FAHAA3uabmXBwIi2cn6EhMXfx+S0nOv7YCE+6F3skRmDGHDQT4VMDHxG4g4KbzRadAbAbpfdVfLr0MsjVteksjpc1CritOA4PjYDfwXkE/soHi0QzojO0Duj4ud6vvkIWJUMZalXwvQpSiaBU7nTYn7wo+Y8/cAS7CUgBAAjH3uFMANz/vAGs4Y5jeOAGxBSgr2+br0eSU9VApBErSbSJSBJTn70/p8SZVx4ZlwJmZgAagJAn2XPm9t9HGzEJ/icqjl24g1LuzBiuCBDynuUfRvam7MJc0d1fDWr4FsngJ6yGuC2dnV0H/DWORhunEZlKkjjz+5E84lmaMwzZYqoR9zUE2UiasoIQNyS+flP01S9YAKWCIE7bw1s1Yir0w7MDtfBsjZ6IwILYKGkxG8Avk+Hzm6ymEOW4Vk+ZmyWvbYenuHMkMhdpWpk+/7WNVUqE4XFiQwwpMvv3pdZ9Yn9/7g/PGJoMvxAK3Oh9Mbe+KaUAHraL4lNSE0+fK+37pPO0ay+YheeRrDK8CmFJOpf0VEQw/rC0egvMMEszAIKiq4KZO8i4juc8yYDPtTMHpYOJpOaNF/y1Hu2XACIpBCK4ZWYhPfMtPCaA54ES8WwZ3kRzW3QMiAlSxewwMbaFeJBDEQCicttb6L9y9LruQZLJ2pDa6/uS7PfbeWGSo0kNBtkL2R9/+qdD9SN98pD21/4u8x//m+zJfS+bKXOGn095xB0+r55254GvgzrNk7qfyNVP8g7sUeazF/xULIcvxue5YalhjsSf3inSdCLtZ5qmKMmqD3nCL0NzZpiAhbHX+B5NqEnzMMqFj1H8BYq/pj8RglDKmydwf9j5sv0w9BVM56CSwhbQSp7tAtnI+Kpn7oTuDoaPUlFavgFh3uAq5UkCTfLdFAKD3gICHo/n9I//17lt3f8cgVV9RJNP54l+Ok/vT3+itosbzucxWxO2o+FqmAx38CvcYw1ASGYW+VuVf4inVp4b3JYajVOlD97wOJrBXYMwnBxKT+ALkmEEqWlnOehTz716wJOwMwntmdRp9D0IpQuzMH5C2zdU+A/QmXCa8zaIbLG+H/MPx0P18aDvsnuLtTP6m2yFJtJRYTswVPRpXqCIF/lr6HI8PJQlqVsJ2S5FADwIdLtl2HvguQjh/AMvj/A+GnJ8usZe1YQy7HxoixbDHT2Xv5sVATCbKD+1JCfeT+Rm0JwcZlArxh/N4Cmse/Hn+R5/zyD4w+p7v8MITUtSa5EBJMk4g+QkJbrie+wolUnysDmkFCj4h9FIigbnx/OWA7aL/LTX/fw9YlV26b0erzC978enh4eo6MafZCaIPAAUKaGOd/6Uw+CEUkHfTYkIFz2M4RXKeTjmKoaez9syZt1x3mszkfMCROFLU3zWcyNXDQWnwPc4EnjD5ryj2bTH7wWhn3QuqfEznX3pnSItp6o5H6mVgvXHr4kaNGdGQ0z08EEP/vZbSOPjKfwnFf/fMb8ygLwy2baX7V2u/pa7ecSHhL/YZEuPLzM41tdw7xbg4VQUz3rrJ1KuChcIyrW0gxyVtAjgaScrrx9F4kocnhEFRR+nxhT8AGCxhnUZbr7ZDMUNK2VjEQ/Qs8heR/7RMHPLc4OPJD02dg4RPIrqiudwUyEwu36PfvgvGwGqN+c8AjR2wa9g/6gzex1lVSHfA2QaffR3VfwvU/BnWhYQCYnJy+ht2879zMl+ATAiKOcP1YkuPZ7IPfaFPV9ZGEAVFaBww4RoSzkJzgDfjV4wQRH4Xintoocdark12I7wuxl/s6kSa6WEbXFhaKmcMcyyogjAZG2wnvVWIYxrgs184TUA2JWKTyA9K7MKcpXUJMfOcXUp4E5Eg3sKBI94ab8/PXfCFnOR4v0TTXsZPYOeyamdGfVWoPmg4WmO1aN279ZBf4onP6pJkDsmnL6bbn0v/8Bb9gAIp5PKq45EVstEOL2mpxNaKbsdnWoVHSROtRgM+4YvpSVsOD5ciRIFjNfUZ+x62ta7D0Nen8JnsSUop9zj75TEaOxM4cwj1WYYdAT/OD7Voefj1K5JhR4/vw4A4VyP8vMt9+TKig+VHE6/VsCtiAYPCXxRPO/UaD7t/fOHfx1pPtH2iE9/aKXAROrWQglnCCQFYR/kP8lZt9/W9HG+tkT3fMGh3pxx05L3YI+GMN8yAPC14Jimqsn82DDo78Siaj21QkkU6JFqZKirP6SS5R6PFCJpbM2VJnrAGhB7PfJ3fWv0b79venRLGhwEsip4bP47hkYzcfrI+E4bIx43F3lzku+Pko3iikRmgQUpCVy97HH/s6dWnisicB5Maoz7x14wDjMRDXYJ3FcYKs/5Px+K/RFFqKnemlsM0LT11xG5yCycjX7RUcP3jBZqbl/kwI9+0/W/ctiQc8VL2B7HzudY+nns0CU+eulyMIsnBgod9AgOEl04rEw2MtUVHtJrL+ygSz0ClvC9lbuYg9b7u6ktCNoV9gUq+ist4VyRZx4zTkiEyJsTy6kcZGU0eXz3LAGg/PORf8yHxyxFbvL8xDDPeRTeFRTTCdxWaMQ3RFKI4E/vVLMF5u/9W+LLFzRYnQFJT67zaE5EULWZvQ7fA+O3MhsNj7T+t0l7+fvILYfP6BMmN55fM1rxYLNsLYP62lEYDfzQ7u6VBFhZBFBZ1qBaBaAZLAb1RcMAfdOs6YZJyKBsVaMsAJ1QdKo32hJwtSDaIGoP75mSJBhlfr5iRQ+RmIC86zaCDt8/QDhQfq7PvVeu9I8kBuAxBTyMagRu/Sgv3j2ZIZ3lO/mD6xCJJ+nX/pP4/EUrjSc29SzAnIgeAlNl+KASJ02lMCVMQPhYyS7is2MlwzkJhZHR1DpSPbPcUABKbFFd27ieioHZ6pqgoW6yMYRUn3EDAIBrSqiGBQCuwrishKXjLR+ycvAAWD1NpKvL09JERZ621l5P7SK2XJcgPKgND911WpFgEZEsssnqzigmqypLuZ2ewKuQPkL5qV49cvU7pbNJDp1nxIoKUY3AewJ3vfB5nBzJTZnP/oiDpF/7Lw/hn6ZpVtAzVzZocKLoDeU+qLYqnakFOfR6Y7/PQJADPuVz/lLx1UltjJCzJATrcpneit3Oq/z6b1/h+x8lTQ6zlxf5epmjYYhGS0yMFpZVaoPaLoApxA4CWSLcyAjMhZOJ3QSQBtFOg0pKcks9dEK1TBzmW7/Fqq6BxghjlQP/BpaQsRaBKSWIIMj26oBFoPzzkX9Y6ROeT66QYP77fs6fB94VFNcJXFOMNSf6GOnypz9S0i//O8uP/SP7i1c0NGShdUiDRkOwgRM+COggeGf0tmaMuj9z800LX6EgWNEQOsleYotjF/L3iYQEAp0LqjcSE3OU67N2na39wN0M/+0HOywPLcYH66L72rF0W2KHynPZ0oArRFViQgB7FccNEhpWKWtV2IVxCgfA+4+tfBRnZrzwUD2IXGJnDiDEmM3dQ7lpqkbWpYIeIqTJGWXCNyixAB6ioPz8ekS+XOlqja8PiSGMAs5FNgLXFbx7MpOn8nH9YbXpO/9G0q//J+n1q1Ya09YFLTxxIhFLMFd0fFCJx/+YAvw4qg8U+5ej4qyYW8zEkSLxpdTNTjozo887hODUBT+knkuzieEuT7Jtsvqrxei2m29+f/ov/V7CIG16BxWisA5eINSZmAwWvQAjVE5dlwf2KY4Z1MoUlr2b3YiTBXAYCECUGTWsyIl4riC8vN/g/CJMTFxEpJKRkBtbzqBIKfC6JacqPuk3jdzkj5vOJznEdPaCg9dHNgJvDuyFz5MukdzABbM//heSf/O/8O+9I12eaFoS6AP09Z3cplnNDfmgkJXJUMOhF6VWhSA7ZsEkYUZjxs9xxrtS+zv1C+M6H9MKkZCgdAy15tmgnsu+JhcvE70Oc1MqNLYr2Y4r/t/fHv+7v2OcHFnqmqCgXvLy5eA2OsbRJDhDvYICCcB0xngOQhsyCp6JxU4DR0YvJSHKFAo65aT09Ry/5uhBjPoZfP+/9ptnshJZWEgiypl5ZB/K7X/U5bliapPcyLcxFOBdQbGdwHVFoGN9WS0I/rT47IX1p/+V5Wf+jfjsp1YKNssG59hFoxkzrMloHzRaz/CQPICjSq7Azccww15jR2W1cXbJtTPl12wzLbH/z8014xklBkoJJVLmUg5x6dMTtVNnBGSAfsmjQznNFP/p+/u5eb/lZD8/isJBHLZy2XAUaA4miAsjHAAnMC7feOsv9xDOfgI4vsUyiEr3tYs5KA2X7d0D/0aNRpC0mIsak7IpyB3atFpnAK9b+dn18ZweuUkyLk1sIAgUcDG6Ebii4FmJfhKZfGn2BekC4SMk/xbEhwnQEiJZN79o4RENPLEKwwchll96FrGqi9Dn7+L/0f9T//yfmL79t2QTQhIm2Q5qcj7fz2F97635W39r+PKfZ//he4X/dDQ/Wu4M0kAzab3c5Btd4jE9LihoFQ7FLZYzAPBvaGzHbCuogjQLbG7okPfHVPJVcjoKAHt2GhdmKyxa+STg2H/jUUgm9QGmDbEkL5GFehQurZQVxUTT94wu6gaZrLl5og7+Y8EBjv6NV++J9ML5YFMnOUJi/ezNXg+bwGsndrsfB/ZC23Em1o6hBDn8I5N/VY/2P6fBykNv/5DDT2YfnDSuzwvNB2Hu2iCP3GHAdv6s+twncf/8/78SZruIstgKM7tafuAL83f81vJtv7H84Je2d7+6iOnzCJ/maw0QAA5sXVjoespelj2bagw87MVgsRguOF0X8wOU0W7e4wQsVQcG8egAQAtbgVCA0yJQFPAKokh+OISWKm+4TVxB5aIFyBL1P10vJjQEsnmQHaTRY6ADbH+x53P6Oh+4kYme+T6j8H7BOPE7gbMKCD3xNdgFhBZ/zQ/mj7f+guzP1Ez7XLL5oSe/uxghNBFYajaJDB6VUY8ou/VT55AJEgnzl1N+8tuan/Njohn03c32zlfW519bf+iLgecjR2dqOMsDAQCsBO2+yFnd1a5FQofMtVS9zLMldVFNowiYCpPLyZVXWfnZ2rn8agqIKYG9kPFyzEsRWfGBzGFLh6sZiMxM0UC/c+bWMVmVxc5AZcABIGsco5nKauSzJV05sX4MDSgJnDgxHIGLBH568d1PjuR4zBDsC6/wQsm/JdII0HjkX49fSYZDtFoLMdeIzOCgmQFTD9Y8AF4l1gEZsCFrgr56Ydd7OWGel2gmNd7I/vTAMRG1/Lzmn+q8dGstDHL9asxqM/NsKWupJPDb9j12cDcr61SbyEkhyEdRKeBmPlF+SZXDClFK4XLMcL+50fecwsrBkL/JaXKFBR+gfC8+wTjng+9+YmBSozE12IvAVwLnTwx3bs/RCyRBPrG1dBLBHxHiCyX9MkzfA/G1aKrFh77+xR8Yo5Gkcn2JDAaaFfxvJwDHf0/ZpzE1PKGt3x8tHPxpPHIe4mq6TCX1VYSa4WL30JS5axadNyzbHYiHaZXJsTZs+dnmpJDki+g/L0yZb/EammXdzqWN9EDZYFTeTL9TzJEiT6l8WNMD6IuIdEzVjpHV0fkYI85pSEY/vO/DtzwxHAicVPCsRA+p4ezNvvB0zD+gpF+C+AzNFJg9/viB/IUFaRRN36h8MDjEv1IwwPQ7aeAZFjGcuQ+6sRAkgxr8OQpqe/DR9kG4fNM/cqP5sq6WvBHo4D2O+XTX/ibFHFTMi4pkm9RWC2TGpy1cuMxCLuKDwPXYDc9A/jdTTLKQIGYAb7V6FyJN49pBHvnup8ZI9j53nxXtOHE8gRsEXnih5fvFOvm48E82uIHk39EbIAs0gSnyVR9+N6OGApGxloSS4X1m53pfUCqy7vypHQsC8HtA2+87mx87KqjfiZ8H0GgyPOERh4bAjSwNsy5K5rpd4aofRWc9dThJ+I98ZxkiB/MmMttQylt1ejUlA9UyjBu/7FIHcE0WZuChnClLQ3PBDLLRafYDwjlPkDBhPvD/6tfwnFfBm8DTQzfIgcBpBX5cbAVOlgv2R8SDeVBv9y9uphDEM339g01wDk3iqhKUJLwPuQpMcLIK1nH8eCXCcB+YUmkfbUxJZTUHReeRqxJLKXCt9q3sBG4WFG2mWZK2WOpWEVX8BHJ5VfTF5CAPSAmzjyvl7XR++lByBM55kIWWKVwqyWqYE1uh9004FYaLnNGHhwG3htVI1U55vYTIA893chPrnv/OCgKn0DDfTuC/F++dGklsJQ8v9IV/0fTdSP6duX80xexDf77LNWU0kTGpbbb2uso3n29ikmLt+8+nOpc29wB4pWwfbaI8pffamVWKusu14mRhe+gJU4FsrbdUOFDvJlaeY6mUme/WjzUQRbH0NHCNtQI9K8uwM4hZxWLCURvb2nLgOYtExo5ll1FTv6O59XrzJzbWXBhViLKSmAL9Z6M7J7IZeyEfhnli3ZMa5e4rCPw+hwY6Am8JXPBCIGTqluHYGfWH7zTl9yF8hP+cAgvHp9BX7UKL1FtKtV7Ho+JkXiUQtAP/gh4Z5GaC7vP6znVL7f3IktfPr/Y5hote9/YEVjvDt7DGBc8yiShugkfbz3RrWs+WtjeADe/mxEpRzwwK4GscKTFWZvjMXhP2AECemsWeTNKBv/7/csbu8KhDS6gsUFVY18DjOrgGLppQNtjIJAAOqvee71/Jx+jp/+SbpOFN4MJxNdCBwDEFcYzISa4jnsYME/pqFp/A+tN4dJ9YM0W1m74CTjlRxRmvG1o3nAEKJvJg4XpYv8QwtwFeKUpl38KVeva80G00hmU2t2zb82FWraQqiYG7/RdrkccUN4TU8iiKgc9pFktC9BpvGO9xl2KRwsUe0nEr78oAgPxETFhr2h7rhmicxJ9L18rlqjyOIFH9zrALnoGLQdxhiAGv12riGB8g8siz4gMkBmMFwwoCR9BQT+AmgbteEATJUt/Fyjm+IF3BPVLK72LbAAUC00fMi9JEZBFRw9uYXyKcADgkEM5sfpJF6ojbBHMfAFLyKF2xfP5QJy/Et1x7FUvSGRvD/Z7gNpOvaHm39wLUkBadINiwa4bAhNDWiWtQBuf46D7gwhjgIhOZrdL52ZF8GXvFiZKLLntoYZJDnl7WTM6EOZKUK4fc2vhJACH2iu6SDy8ro/PQNF6/ipVz4E3g/qEb7EDgoIJ3iK8mPpCnyL6aX3PKb8vyI/iLaY9tgNjHgmjGQZWS8jZokgNI5JBKg9Wlg4VVpN0jAPgNF1daoJpurt8s2dF5pRM6BIYH/FrRMme62yMrLR5FEfJU5rxwDZ8tJAHIACIPSQB5ws9KTuj08kh5I/sALTF+0cJRRU5gikqGfkohF4OLillkBTceA4jD1QewSvIg96EZyZuJ9TErVBA4jIZ7AmcIfPRCm+ukbgEBSfgTX8n0vUj6Tb3RZorJKTD9SjFa5Jb2iHido3ZwVAPqOqEuHsM95FVhkrKwfBqdkbTNnj9q8oEgPOkJ6WXqNZnDRYTAxdp1nRR/rL5WdWcy2mhTMIssoAv3aCMtAL44si6uwY+Yb/B/EUKb2Hz5lZPsv3HfMwqGNlZcCYtoy/Ig4NpZXL3HPEDksZ8IdZ3zHtvgfYcJnGrAe4t/VBGaFvUrczKmldAPtn1EKb+L/+QrpqC2d0mjGfV7hLxOUYIQS0IdUyNARPtf44ZH/Ep6S/ODjV7Ub9pVdng+4p+9dtrQPOIPoS1yasfQ6eAharKTKM3NMFjKiIxOFDTIpAd3syfj3Q4APL5AYIekKZEEKfHTX0LN4cXDenoFM/3PeqBwedIgJwuZlQJSOmh0Vy729PNAHCtCopvYWsxIQgWBI7ejAQ8EjhP45YXR11s7n6F+X83iE1l/Th/hzTZTTKgvySObUbRR5ppGbxvNO0MNRCyJgDQgKDoiFzxL0d9gQSU5qkb/5kkrxnlzXMHrz0IEz4ohvbGNy/uM4TozxAhYAKbAT+UBJ6ujB/MVZqjMXzmBYwYEAPv8CPaCZU/H+8NeAbUgyKhcVqkYGYEBxyUKnnEtdq2FYBTwTxOmZn9GiZKHOaidzZ9eAm8CPz8mGvJhAgYNLJ2/zl7TSAw/KJuBqdkKlx/2sIKvZICposCwco33tkPrOaRABFZ0SyF4XvnxewbLg6fKAQR67+Md/+nrHr3/Q8qOgtzxR+DYL42y8aYACqomIpmogQyzMAjGDIYJYJ/WKVfppLo0YX6zpjgQs6+4zE+16B2yln6dfU5TprnU+Tx/XE8Ar2J6tOO83iB3xLF04puIpal1Hx5twECVqCdoeqwRPK2JO/PebDuE8APHP9VbJRJiqYe+eV9Vr1Ak52dNaF4mgfpKFSIxM3Ml4gWV7NOa9kdpKHhIyid/8t7/wXdd739o4xCYO6Bw8AtGuUv6gDUhRsGsdEaIQ6O8Uzi2BBlFmcHUKoZDnWW8DtZa+BEu51MNuiJW1wfwDoPLXTJBJ/4SgDCZqef/EvdC7ucQpq4Lt56jKlyAZsX9JUK7gVZDY9LuMPn40a5NNMV7209nMPQv2QGHKBIx1ZiciJdJIhYGVAsTVb3goP5geRQLAyUL/N3DFfyg7v5HL5hmaEIxd/qwu277PdXtfF7AaobgalFcLS1Z6Ci7ktrx1VgxpFHRThuxK4jGS/44GVP5rT0GcBWZmOKS75mkqLQiAOWErNkqfYM6Z8S5HvH11Kczf0sGdPw08gkaCkbwtO5UzZbcwMAHiDKnepsEYYakLLm+ko1ilFoz2WNrb+MdQUlG4dEOKrywYU30Wa4PgC+UXNN7HQt//s70lR8pPPmJMiQ3cB3Dn7PVWVL74VG06pc5N8QGpmi66iirkFn4av7d+MURtl2WJABRLcxk6XcRW3+QGEj2g+sbnS4du3iBVyF9bLT97KSRcyElnNKVl9mmMOyvQLH/MtBtQLLoSXtACiN+COPWE23GsvIyMzB3t/PeEkUi9Xto3sar/QxtnDUyvGI1sLayIgCIj8h5m1bT1WjhTDEy+0Yaz2L1XPjD5GvGvRhEf9AOoIHk2lMpa2+SrhQ6aLvTUNvT1oxQRb1bdAIAQaNwYrOo1djYT0R45BqrSCEt2LInUP6FKD+1Ion8XuScGDvHVk6sG9OMwBjQcpnop9E81gh+b3XHVG+XLxX4gOsSiRNtmdPUGZFC9PmaEgpgrcDLDQGYmHYjamUUb9htbbEaanAA4sGZ73aJeaecM1sMcy8R4qNd3W1CettR3+8wm2Tk8hC1aUyCS0IkmOSdOmi+Ue95A9KsZjyLCAQKIuUi8iQNg1YshWyeLmJyNNd6WpVUtQZA+VtW/bgKQkXnile5DtsuClaEIdiAOsX/y0CrgcqDn7hbXttq7YMobdHNosMMHtjEwELCiQXFFe9SKs1CVTjHXA+S8Ib9xp8Q8aRecUAfIiWsUbp1oXmnXjmXBtsfH/y1f6pugrE1fNrxzjWMRi+I4XRx72TKBy9JNyvsvnLLbpFJVWndxW6zAP5bl0SOl7jezQqYPyzG4PpnkwlZRC4AQjJLpU9UfMZvpJEzy+BpxTNcD43wNeCPAxA0TtzQ+0WaM2Fn9vOjl0Zb8udGMhDNEnVTKdoepsDwLrVScAxN36TcGwjaZVWwGpOqpmoOQB9JMiJDbph3zrSbLGxD0k+UkDk37h4qyGgY/QPqdCMr0RW8wnK7KaCFO0uXdqkFsF5lO6I7igExBqcyZsjGYv2jrauHGzdPAxpJApQz0/wrsid9ycg134x0kSmdmAoBe038ifKA8BOqDMB1MmEHIhGm6ezwjaqSRJvG8aIzNtsnr3BLFDF4JaZSrXcBm8UV8IzmDUq9IFZRv5GF7KdRAIZIk+HCuGKWaSdcMaeF6c8IReqs7g7oeta+dpybkbUXgIUomAWmVqKBCtJkIYDWG6l2mCth/QT1h9WLgnBoJo+Xq2ZRNI9koYM0N1QZ4INs5AWIwjf65z0H4hAiV3rvLX9OahTDDMMbKuC3C9A5YdTQrhvTZOIuuDzE8CFZ5kdbs5AzRuWjbBCjSCJmQt4mkVfCAyMehVdqZSaxDlojupmnyiGFAqyuaEaE1C0786yTrTOnBj0wypS73d1ASL0Y+4NEaxgpUNX35Li8Gr6UNAEYnSWWqBP6dtRartjlbmwG1tDgCTMtU8KIMXvtkqPDde9Gn+QtVQG4Z/mbfVLMnRq5LZ25GeN91y5FQwkjUC0fCCtQYkCfUE3HE23l9IPsNDF+ilBTyYjOucO5FOOFHwQvV+bqkuFRRPUKaHqSGEQefB+GMw2EcQR0/yyjLKYl//4kK2Ynln6iG3+P7jnqmtlniIv14ab3WRNiDJwGZlQ+lZoMk5Zot8tNKwwmGzIY8kJvhsYFM8gpsw/2M1B6/gmTAzdS0iY/RYoCIORHrfyxSh9x9fDLQZshQTLtgfQjKae/9ew49URisAIKYNUJCNrhmQKSZ8aEHTMworOC66cqihUe1yeDIUvYScIBHLIaxcskZVa8qJ2hl3sHACsJXe96Yp+w3wmwuiITKS1L5phxypUzFPVtIxtVIOYAjPlnjvPS+3hewIYG78lB+D3uLL0rGs9J7fjEpN4Eh02yNNjy9o/bKFFv3aZVZ2GZ5gavjKSTTJApANgu1ATVT+y5PTorFjKGlrbwhB7MrUwV4pb4SPs4Re67oUbDG65/Xm4Q8ghUKQLXpiqW9+Y6IHvX40lFEke6ZGgm1L80bypF2Y9HmndJQlDEkUw0onqNpicZf2+nV9DJot44gY6A1WVNLkwvO8cNk951uo7UHpGtIaRPH5e6pvUc4cLhViO9lQcD/+HkOAdE0zXTq2i61rBdklDWH3V3ve1NQrzHTS6SGu0YkuG7EbcZh8CNvpV+HxoFoPwLkX88yk+Vvk05lAwh8dpIzQklx0mPkxxJOsfX2f75nUdASgw0d4QIoQKG5AdPRGBXAexavR1WKo8pyIoYo5EkUkQDwCGb5pkopXaHeol4l8IjXSK840WANtVS0xRXZ6iPGzdbOd4RwIKsMaqJdOMCd0x622m2bZYa1DfafEh9XIClMWh+jH6ldRDWAVZOrZ1IWbnKFqDlmkf6t0SlfLQvMwEbpUyciQGbWZK4miWaO2RSr3ySMuEFcD//B+okXwe8uckwYih5TInRJNaR2MQH2K/cZ6isIBzCAKyJAyXUQzlQuwERKCDQq9Ct203YDl6YFQdVybSHGQfni4EFC9IcJPJKDtneuxo5lVBrauDViiDkkagy48sWWSYVblrAOwK6Uw3hTaSbLHDrKa6cYNY5fNn6jWpUQye/Ez4zO9pL65XoEoQEwlMmgHkxCuTJ1sW55751Q2MtJ2a1NJml5NXkLqNAsxG/mRFb/1240VuVynpK5wXwTUvOVP0k7qfHjvV0Q+cbJUdJZEj08xu3P8D0NQFAJCABsgcmSINvoOoGQGCEQLAXgv2q2vJN3erobDC3Ko4ZwaXJ4JEtGeCAOUhAUEINyeVdih6FqnkXYFM2rYrstrgyI+rouWkB7wjoI8kN7xFSbH3L1DecYuo0O9r3COsZSko5B2SQ3bPWdUe9HboBpAMxBFpVToBBNLxhsYULzwlqFGvlBKNw1Zm22Uj4dzU1iUttqtcdlHKeFOwJoPzvU34G+Yeh71IOhCu+dF8qS7w/if75S7bDdgJjxcMgDHILnJuEcDcgcDW0pZNvp5ZdOEw2+mWaibwu6ZOh8SrbtCUcEN9vtHdpiUotoHgboOlWY+zTC21nU1Y1VaM48qRoa+Aa8XQs/aku/dNc+odvlj5ecJdr4D5MDTwAVkYuusjjefkfW9Lp+g3A66DLRLFGeYOFnpM8M+GwRG826B2xzXGE75szXRs/kA5pOqRyh3rJu0PembJ/0Q1ushoAvXopP3+QA4hCoJcIYkbnGSS7U//vJ74o6aEjpHnIQoOR31OUGgBzkDLyTfxAq3WehybGEGYBKTgSqyHlDIwbJNr4xEHTqyTgXY4KBkcl3DD62nqqn1YkW4zXnABxsZFzQZ4z34fHUT/DZX30dPhHbyKmy0izetpyAMoNi3GYz3eG9hK7jZ+AkqXKOkDOVf6nzvcspGquROw5ypmnfjnGf7GF95QYBgiXsfLOeLixqz95/8JqkaEX+Ekl46o+te7ZQ42gDnitsc4T++/EV3ycqZjhMYzRDJ9G2zxMiepyQGC8tICea6jSYWo7gdpPwTQgThbEEGruUsWj/uXmlQTHATCXxiteRZCm1SAwOAAKh9aPH7Au6o8kYhVhxQkQl9CHkbVleedY8sMZ+Tpbu2Gwm2gXSy/etjUnft7p3h6HfXsPv1uUSQCfBVo5yw/2sP92KHvqPNt9ewbv9r398UHT2D6/Sc9Ejc6F7uAUXVLH1+T9q8TjBbpdl/KTS/a0W8ge1/LCjH84Y7NPqgcp8mpeDMOnbvQBLzq9ZoGksZcYFJjQSc1ABoEZAt+VFgDW5xrKdlDHWRDmWcEqJkokjKEy7jC3kOsplFFqb4l3DK/iSLlB0OjRgweghNeXxJ/bEwxAtQcJxhlAFLOvZF9l6htOhlyNkW4d6WXj51Gua6s1TOZlfqFN/PYgRayZLS/vV2/p8wb3+Y+2dsKJXowlliaOXGXTWsrgyqY83ChxN2h1/EwbEocDzn1vmp99yMY1fl/0Xzqy/3ssPxKhzWkRIYRPht5BwdbhJ96e1mVHHQl6R8dUH/DMVQISiUB3AgJPEhgrJSCwAhaDgJHUNIS6zjlCFvplWg350j0OAipS5+URRSJ7RL0LIASKUjOYAErYqsTkl73e/szN7Bdz5kgGy2c1tQ5GXHGIRYabZZgbx3zPid7kEG/t0YuSCnhxgWeoe3jqnc1F6zbtt11iBvotgRoTFVr44UZFtRutjt/95ooSVgB4MIqPVnq/yX990/3nYXvBS5bsL83wydAf5C4c5tA7vXPvWzFQr1K860O75gHmBASeKi0gsDJEgw62/nlSIzEtiKHAyBlYJmUHIAeFmIMxaZLqMSYrqIqCYbDWdCuRnGezwXaFQjeDhOIM4C9lsGY30P0R5dnqrYl1THF0mBeHNAWAdsDmdOH8Mz/bixWJ7uvXxmX1kndDfRLKGF2bnX4t9ZChFwA5YIv2f+Zk/h7/FGpS5HjBBW1QtLDoxDscvaMbDZB5dzbIzEzmhMAbBD4qLZCKlxV0DMkuZ8uZCQ09oaL7O1mJjBBFyRW1cNT0SYanlEoriinOeFOC2hKjERyMAIUwFlM55oB+JMexo5PUK84A8BcxGVkNsjyi1ryLcgCbQ9qom97Or+4pmkUYxtrYlIfTIFADxjmVerwEHLDU6dcf3ttiBQDc8han/7rhyUGp86ttTYckLhXdm417E3UEkH9UkIZ2HEsDgXNLCwh0gdWyosT62ervnPMK9iJKS8SiMeDABxcpETxyaNTnqp6a2wusStqTla7RwnXtDFAGK8e5e9xMFrPdALT/KLNiMux7sSYPhyKVArGQwEQpjRo1pHTFIngdRkNB0D/SlsyclpsrF1COogsH+15kC3JY6jzmLcUQY3M5V5RzNfncnYjB5d04cpJ2GoHbCXxRWkBgaOknNeUfav/HiqEAUc7uxZAdh7n55CJzHZTEHoaH2NwDVmZe3tok1qBREkVqeOW5J3LOYEVQDYDgNmaHPYV+HgPEIBKolJdDk1Ib4onZlFKTuHc62Li/JLZvN2pViUSuY+K5i9B0yfBMGc/BnQs6z/7GSjpHLOXyQ640nyvFZxMAbu0pBqGMSAQUAjUCl5UaSMVLDiYGtxgaW/1McjgfuuJBCEkxQxGBI+1QbjwfUNB4S7qHwtHEsAuvhJZTv0QqSWgAanYMbTOykPBcXsWCnAnWBFk8HHx8xKkZTRIN2mglMlrRlFEc87H2U32C/Xnlto3DaANLqmwHBvVuLCEj/FAwGlCCClgljxIMbi3horYQYzPWl/K0rzTnKvI5YgA5/3t2nSIBBxC46IZLCwg0QDiEihHJCW0xLa94ViUDkscy5vOQFYfEyPPGKapJVRqeQVJj2MSGZNFXHYdZTzQ0KOBFW74YFawtSIiHx1g8zBhRLFgTZ6NDaq1aq9rBcHvit9WEJBISVWhIqLa9VuKyO7WqWjt+0vSRzG28Rmkeq7XYeEVKofC3XckHjxtACngQSf+ZLOVyifm6Vw645ALkcy31wRQ6TNAIfP/NlxoQqBsgxoe+J1vO5FCrwozu3U0DacUBxrQAxdhPVz1kRqdMInXh2W3LMcsFRSTZGRUpcDYdxdpehsDlJsYSLMHAgjVD/MNF4reT4bbSpxr0t9hQ0O+3qy9J4hoSqm3XJAKiCKoJAgxgCM4N1vAgAbfLLL/P8hft6Qfgg6dLnuZ1YvMILgfiiou5KpzLIEC+v511ruoIDAcQOLP0gEDLAL5ibVe2+ZMnJQgMYKGhYJqRLmkFwEK5SmMO2qjKcg8pP9QSJb9/tJUkmV7quBxrETWdTJu3TTw0bbSsIHjDoUrdQfP7/XYyp8lGzt020mbaRgbV7dVa1UDreIIYcViQ5ynYzmqC8OJSPEX4kft8SRpklIZmr6zg6ou5QhwU4PLgvR7oMhGi/NsEXvUDqXhZQMbgJtNi67+p7eQrEoKBYSOQ3yJdLjjOyOfav9KhvNKEVA/h1SwoeqiRqhYe1rQKOIGzonO9Qk0QZtSHFOYqK1HB+NDKGSYxlWnQRHLmcx9YDEbaOgce2DbdJmxJSIsMMVp1ltAR5EywJojBl8fSsUwnkrtGNbn85GXUdckgKMx3ZWLgRjqgEJggcJofEIgAbwjhJzEktphGrD9HCIFwjmWkNeBgYnKdjUyRg8Yjswh5SuKqWwx0VXWAtsdTzUtWQbmqCtiit7ob6gg1+UCzk3pOFAvRTNy8xBTXbHjuA5uaVGgaeMA4pRM0N8hw30qef1hdDmJcjvMLnx85rzMBXdYHUPrAQLdSyAEEznIEOoMBYhjhEGWLb8ae4NFJCLTkMU24m4dtHeo/1mKuUQ4GL27J8BRBE+OdBTQA2C/ZjFKB8Rw6EVglmZYHNpq5aUHSUlISieRA4dDQ8NBgTRD3zS3p0bp05OzR69pKCPf61wPHFycQIuoe/FvLRJC9wbtcuKhOIfC8JxCoGAAkHTPKg5IUwcHZxVfCnSJlHFhLIQg7gESxuKcAPiGJUhOEczXtYfrdvbAXSkYkLj6C0DBlxp7csg54raYEQiFRcAEDAwMDA1Fc4nWG0eZv2cmoTEocUbBla2d3mVNGtxJBzosWkvOL5cDxyYlKay6YJ+56dM+jS2ssFREh72yX0sgijPKfQ6wnSAUSkMog7D2YlM8gZqUy+QIfpkO8dqMailIfVj0Tjn7vhaWep+GYIOSqQmTaSL1MNTwsAcBoG/na20YOl8hOMNSAsm2AFL4aC/owjfbQTu07GaF20gngmwmzeHhq7IEesslm8WovYGzd5BmnDiUnyUE0WtFTPYEyHsDyFnkI43hRsbWRoznEFKKRXItyxC2kFO6reqcai0Zw/fIBaRkUAumLTdsRCLiBU6VDYggln4coh7KLMX18facOrCVfJCiaUBofcJ8W20Ry7KUfOq+y9mkGFSwB5FefH25lgBEyJs6r+HZFQpwagspjEyZMeL6pYnrnIEUldWYnkymzk1HD3zdltglFWsSoJSTlqvWLYuvQmAGlgSAbXNvj2/TGx+zybLLAgZi8yexhMcYMJ5q/pS1CVDDQGrKSk9RS6ox3B1xyIzThrzKLuflJgdhB2Jza9b1fu3QKL7C6a+LE4irM1YmdqkRMaILWtw+8OwsXhzsvt7VgaQwFq4JWTyAQIJCsABhnMIckmP8YvyPFeFOgBka1wv1WtOHASq4qRPmlghJPHgU87vf7580saYyYHB2bArqg+XJloi5gftARdOl0FM83EzzpkR3JBHj84WUHuWDLPuIJr1laxfRGr+mhzfxJktWCIGSgekg+8MemZCRJTBUf8GioPruv6m0sjOKgFgRX0DpSAvrBnR/svfLAO/7PZpJ82XsUXTmlOGySqJwhoarNtCi0Kmwt8R63LjeCexcHR4gGKkaBXYhwBSKQkQUhKjhlwbj7X7m0xgGcs8u5dQetXpeE2xr6F1Yd2oUoDgnoe98Ybmcs1DRnw4+1sEU2hAMpQWpmfrFQ1IXsuiBaNHgAHaL5yPyoCoPhxzfAbLAeWpt869eojguGAWKFLRT8hvNFGehRvIwyAMgIlqu0iISPHA4ec0IBp8OFu3NTCiVASeWckoayylft7P85aMJcpMwfTlraRDQrxGSuzBypE26/gsB+hUERRMNvV4CnqQJmwtSw5AjfheYAAC1WaDaMOCiResNdZ8hxjj9lJ+eB+1lToagoTGwLpJAyJjXpDBYBi0bdgmf9hu7krxuOwbkfeHgLgcsm7N3cuIqRe+LUVaHgyALB3eojNWgLTfTfGpQA9kln0qInbtnjwPxrA2fYl6PNXQ7AsgvDo9TA6vfupJFxUJPYmpBRdDSFJYE092nsbydy8XKizIkKGlyEDl+AJ5oFKoJgNWH5wYu/ybYAMGNeiaA06pWqWzR7ou220sC6Q+cTHcVQJSIyquGgsMoZMQAMu4ypK0larceM+kje0NLBoqR70AP9qJmqGoO/TZwrGwB9R6rmA9sB5bGaQVy/NagaDkyJMtE6BhSxsw6RMWK4o0h7h4eohaXgOaz88qzC0YmM40q529C6RPVBEYVxM0coRa4eNloSHMIosAohzgBnkIXuNcMZ9Efv8Z+o2UGft7/uoFV+mCSXO2otJv0QQdFjBusEJsHilWYmZiJzD+FQgvG5+KSw5tZ2mWZWKYkKf2wx9HcdNnhD3clhGx9vA3yloTQDqLj4rhUAaufocG5XU7oEZ6aAlDaQgZ07L7UIqFquSdhhpWfj4FhiuupPxtCFXCqxPWefIqwTubvVkaO8BZogtA1ncAlH/gkhkKACBKbwHx/KvxmHRFsBoTRG+ZpadxhEdT40//kwe/XbyidzMFRwLLk2M4vNONRaEwQTxd3ZOk3vOtasq78wtXLFX/X+71xWAB9rGNUA6jqATqAJICqgQKZGuDonVe3jHJLUbbXFnP0TQ8M/CJTdzeJwr+U97I5jzFpF1eDhNoxddiL3Dxd9MyEaDMARZwACcQRisyDGd0EacAzbzcPjGAcE65vdEYyc63HNfzOdByRgABERDYkMEQkkB0CNFSzA/E6rG81ekYLATwPfAwBG2fzEAKBALitxMjgsjGgeq8NHcxvX+8icdXzxuo4SoENTmSGUoU0UAUjHQyYGC0NLPxyCYGl4FJA8po0GExDnDfDcCcSq1DwZWWCiioMSZe4AcC4233m6nIadCy7ukiMO+fsKj4vs6StOKH5mX6PSYg/1PXEMBskZLQdirlQxLOf8xrrGoWGD64XMnbmKTA9g7bMnyWX7PhsAP87rAXxYOi6ZPMZNaQLf73sDEIgnEO4reB07akEHcApuZv4SJmNqgZOSx7RJiSYLLYJHQ/vGeckThm82Yq+wFgACsmY9vd/JVgkqAKIVp5czRtAQMgHo8vZTQwWtXAGup4gFoa2whLfY9I1OTwVdVY9o/sAdC2SWCXKVEyiAm+4Af+ij+UF0ZpNOEUiNmwAUI5OY/6TMQ4nKgAqJiEyEFrGQbbaNk425Pidg1DhMHa4AXKIoslo+lUxiG3msKgB9wzWFHBU8Wr3gUbblVyJF9HWlGYyfbAQ/d4haTIREFc38lAU83wxw8e7RjKWCv3Sp6OLycNhgnEGDO3vyB3ju/gpMiUlQKoOq24J2EkmqMQ+ZhblkVia1SX09ICkjIqJZ1sTChEEmvgCfo4AgAJgTenscvwnAxZhQk8zwLRUAovZrVlZysPXw9EDZcq3laqJZOLuVyzRmNj+9Z6ixhIU/HWv0bmkriqQFOG68hLjk4Eu8Oy1ZyuHFBD9tDrtyCCDwm8A/H4mKlnEUHjXDg4od1RrxBE/2eCWT9qjaY9KkWDy5lMq1c6D+R/M5jWtU4Nh00QlNyUBWPFaTH6y+roJ1JS2pXACANT9hWb9xcGZLvAHaaUNZunlfJ333bBDFoERo0lTVBYOe68rLTkkhn0kXtEDUVXwanaKOqmPjSQ8xzsbknPfHXgTkAZogAGYdAgj8J/Anu3Gbt8QpOgt4gKpx6PlFtJqg/tXE5v7AZyQZ04Ya64l8DlSKjfxQw64tCEOhsEpBiEFekN3JTt7ywXykAIBhHborg8kYwflHHh36fK9vXYddKkVHWfTKI7vG9NIM0WfVABVZE2dNjaJwrzGwcCc9QB5itDXDSY8g2Ooio7hNlJCwg5pIwNMMowBoAVsnv6Fhm8KGKYODpxURX6OAaovu9zB/tRp/4aNixImPaDl3Xien8aKHT7KIpzfZoAzbuxeAzDN+qHkRM6xgXZQLnnOJ2JDmlW0Xvt+HCVoMGijKJ3YB25mExVw/X8JhRCKheorOcMGvBjhJFVCVDXohX6PSWpJAVQv4Hv+YhmJgzCrs621UnAsmYVGoFZB5aWcHmEGW6qvkYMnAvsBQtUEW2sZO2ryouBCcsawQgJPOnIJWf7QM4hNvhgcOKo90EngHnaAyqFVZoJfwNYZBsYOkoGxrzChyDvs2ZmYiSbYWRbjyBwYAtd7UIxFKbMx3I+v1kwk/ynJUL7JL40gvqhDJvCWD3/DGaUAHtE5Bc2jDGYda6vjAQdF5pHrTobG9jKotb8PXAMQ4GDtMMVQuSM6ITK2BSrMD+vYHm5d2ppQVrKwqZB0OfBRN+PI/zG89KWqv8KI645A39DN+H7TOQMgrqHUCLznhSdvN6A4agvDmITHzgmR0qbOBrxlhjKXoZzWUoESIIwA9AecqH5m2DArD/y/rM+gk6iCIF329ZSMO9KIdo02ZYBlQgmhAAPRuQQT2JPAoLSiCmwk6jCCq1au2F5DQqgxwpXP4GqeG/tYNVFsykSDkm/cwimE+tIaS1RktFP0SYK1ZqkRF27xn/zcfDpUtAuyEUQSbfgEELj8ZBeENRcEAIMy8St1ByLQ3t64tfFTjwZ9HOwiq1TjjSrXqgClvvBDJec4LRo8LRmxgULHDhk1lMvLJdgOd04956ymg6qP4NO53qxue+IG6EX0Aeoh2NMdAYIZAmRa/QX/cwcsjk8xLKqb6qggvkk0AQcJ1aNAF85owqJbg2r9ROZgP2BaA6AC1f7TNTs5Dm3ZF5GilY5Bc1ZQPNvzyy6INEz6NhdBnuyw4QrQU+jzkvZRq4GZ+swzQRBlFRcdwPQRatHBdLUEAlGBY9SYwyxJgRdsd4mOI4YjqgKnnCaH6Oq4D8jXzVjWtKlutXpL11wGIHlASCYHaloYceot3aOgDWQCVDKA5MULaGAHga/3SXsGlB5ceHRlkRk4OfGoCArvwSV9hHQUOHusYTkGgQYtvGGIAMBderbGTAx9NX/JSfYxTg0efh4GgRCLMBdOe8ggtd19rJbIWFl+6H9FsUABmvIQz/2EOxxDvd+lJT9plUDTmmsbsbw8KVSEoDkZIpWa+4X81Fdfm7wQ+jHvQuGctWm6pTgf8KchKQpQtwrxjwCloP+v+s+IOYCO8CWHLOhRYRR+0HvA1wQAlmmwM1NRqkB8pN+3ZmcJIY82CrKfQEEJszEB1hkiJmK/lIDuUHxUKkkg1GKFoJFMTquuvcsBiCS2XAIB+g006BWaqeIYL0BK2XHYSdiCIOPBqQkaNVYXgl+ilfA1dAlPf+ksAJKfWBU1oCQ2VYghTawJZw2MGYvkgOzChoJ0s2OOSm/fPFw8U0PRi0MYoL5RnJFChMZvYUAegMXj3EMvCxSIwvgIfU0MMBSN2G2qA41JdOXl5hAKzeOOynvQDHYLYc9myLN7Wrcc7Bpk2HQATA4MG313DaWmJWWeOA2Cq0exVIVM/CH1UMqmzOvAxBHERraVhEwPaLBeM8pOrtKrb6A/kpERJYGvEcsUdVo0budge5hW7xQEEynJqxkQpNVwDgTKN1YqEQwCI2ikS9qoho0wbQ1hrL+VjnIvESuaGgqPDLijjhB7Qk4Jfdg0h56JnLAbQQ1lRSEBtDULEdA4xIdATk3mi85k4Y5Pjk5lru+WpGABssfcBDRQYcQ0EZmjBkD8OgIkiFPQqpXxUpTH72ut8Cxc4qa0yEQMRu2HyRqPcSUP/ZA0lJzbMD0QHiCYdbWpAG4GaIOLVRFUHmydPTowfq8cns3BYSHQ9cXL9pTy8CpsaaAJjAei2zsqolTmMAp64BgJVGmdmtTAAQYkYc70KfGDZo2DYOuI0vsV5aIsdQoAdQb4SFHqcRG0r6xEn2+dyhdar65XpAOsfvXYG5wYc1RHqCKVRHaECGItmcEFwjcqq81plXE88CgDGbbybua4g+dbhCG/kGk9GY2IyhykAi4SCXlXiou9aQ0P/oC/yLUFn1uRgo1rzuwCczYlBptYGlDyT7XXhugnxqNEcYAdsP1eG29Xzj1VBbQq/O9EpBwEK3PUNfwYt3N6SkBygVWRU5lWab1nWqNCbNvAtqKaw0DYxA4ZL1aaWE+hPETiwbyUX7GiYSFXs4LdHGNVGeJ+6yZ4Dm6xT2HZHJG9/cE5GgecuIj5rDgPAIga8WzHvecuqPnLlgo9xGkoiJhQCZ/wakxcUeqBQ2NDtMLCyykSvwvljDDCiUQPYJBfkgDN6gXP2hO+duSxwDspH4b2LAElaUAPgOtDqXWLl5k2NiE6uWQ34Ftas0J7zF2sgODxEHHlcYtriAo1i3OUBy41kicBzBlXnkQGY0CCy5aPwojwwf/AOB2w6HMci3/hsnQTtRCMIgD2XUeNdojCvQ9hTCW5qA9/SzBppVYIIgYWGMHliSdiYrFJwhqzSlhN0UA19TwPYJBflGDMwmBydjUu0VjPdMAyE/CEX9N/rbpDLDvoQRunOOfxETmrsRgMQLEYSCXrXzjd/sSHGhLezpU+pZqBZRcwA80dq5FUKLdOCQav6Wbe0Ajgb2giU7VOI7tF6WGe8AfTxPNL1mImYollNbQfakBi1+5v0GNPPkAIadvww85SfOWFjMlp3XZQshOBY4+VOAnNIEgSU1z4a3q1OPlslbqwn6St8CnMiJWWzQ4iLpj0oTyL/Lc9U0spywUC0ibOYiUQA/VNdM+pfb7acy2xk3rwisNGjPG8eyUVlueABlD3jN1/RxsygzBx0Agur+bkWylwC6Q7qDnBi5BfuTtBt4gCd8nc5CeL4tRrEhwd442XlQutslTg4D60DfEqcGZRQVTrwI+yvZfLUV1weobHa/qTWwSAiPegCLPvhLtsA1hW8N+bySpgabjuwBLVVFKJfosI4Px9wajxjRI3DEBIYE4sb/xKsB+743pE7DtGKyW+4LLlx0OGwl8BEDUi0FTOc42WS4CPrVRHEDlkB+JRqBuqsqszEj+BwUbhQKfQIWyoNOJWfAVUdQY/gz/ygxDGjFczFDSCWg+bFAxqbPJ5F9ajOQDfqxrz5lyCSFPW6/5weamFy1ODD8FM4NOMTFa8IMQqckHf8pp1ERkyBwnP52zbzMiiW67GXGn2Yz8engAsUSsgK0pWfsVCIOPKMcRdTaMxO9snYWiTplqg54BrElYMrQSuigsb8lXTQBoRmw0WGtpnTQrFdH+Mpu6PFgzv5cxZVFx33iKdxAAhF3/pIXiEEKoGDoMo9EGg7mXT603dQL6P9tYsBQd4mCnOP0DAM/tBawrcwjVZ1Pj+gDWfy8FhfsUZD1TrouJUrr/kJlzNHR8cDG0zoTGJog+sstGVOkKQWIYtHS4GPZMmgO+gEGhpE8ijzSq/dYIARq7f2HBt8o2SCgf4m5B4PJVCnpYjtPpDOVeXKBh3QiDBR3raz9Tp7SQYp4HQVPoVPArSG+/0awBnND/nq2IvB6fzgeODu1dwbdJ+UP7brD8UMA27U5225ePCnfyLLRt/CBDRtWhEyDACGAMoexcJB1fFm/qYTopgOOoFdnq6DOAvNuLENjwE+SHDVpH8nBe3ibRHzHtMeFVb0hG/Lp7SCahjT+ZIRjPg5IA9B0x7Fie6ft9V+OjNgwK35IDN4J8h9iTZG0chn/7hCfuhRPapP3abhiWdHm37g4j1Bv2Z+tKtu0P4IAjvDP579TDQYDbuWkKP10zWANSYKnNll3qWWn0w02GTaasinMJXC2qY3hKD5gy4wIUejk1B0qzIdBpye5SwXun//AYEogWBvAnMEkgS2+xwB1M2+3OASxUl7NCaYiFlVVUXrioLCQnHU9HWuHb3gtcBa6KF9oOin6CyGheCUwBYoBflsL+AE0NbPcIY8wOOPrFL4+YbFFC+KvOKztQcfxa+zCvEpzsUkg1RtzbRQjQskecXjVJrMZ0vgXwJfE/j4YdwwgUkC5VM8W1AJXEngLAB626mKTIeoE7how+zZj7Nso6eQF220y7xNpxE1+zkvBKbDgFMCK6JUJLzLID1mcvKdU51qZpmgNK9RhYZ1japEycYaJZ/CISezMlBVC9TXQRwXhpi56g15Z/lyCbxG4HsCv8JFIIQ3IKv07HI2c8by5cuUKX+BV17gle1e4JWjlHT4M+Zkwjno8hjAJicpUH2C6x15UMxbYJjXMU4xhEMrA58yrprmn15mwLCXIDdcPXWLVCUYvxwCPxO4kcAzu8ONYPTMQDCn9A5VjFBSXT7ygkWCZkKm5DS9xamazIonmneIpc34SDPe+opiF18SDzp5IA2zUC2KSFABguOq+Q7PVNvN69ioSOUCcEoGgcMJPAI3g89pMij2C0KuvCR8WmSRgOB+22Qz5+iPxlpK4zXmBZLZTNgwkASudy3lS8JwMuyibWBPq9q8gYtxkVhjK1xH8ZyCM/LPR+GRR/fx1WkNuuLkzyDwLty+2XMCzaUS+P6DngmX5SghHmaKBiW4/tAccY5zKlvcoBr0WMTUMm9JXphyGycUvmScsy0ygS1A8E+1jyk6VDTxVxeepuiYogNFUyUDtoGnFeYbvDArBgVOH/7rc58E9CAGoh8DYZACzrIlmcEqLMPE+OELfIBP8pXwH3TgX9EAJXgQ7rC3M4DpSNjHN4QjHtr5FVuu046Y7XqtKXxJgggnKY1MYkOwrOSdZV0omimZM8s+VD55Mt95rNVw9YH+154IlwBvV8AIDJ/uvMWtdD7xAuzDBoy+fXjymEscwzmLAVDC60fO2blw0k6ALxShyqBHIuYtcx8vHOVvfDnlS4RgLK3tTp97Ey74k2TdYfIFv+qkS+De/xmlZI8GqWOA/i6KBijjLTUVQuHjnN/pbHhVTGo9oXLM2Rqhla2S+BIeQaX4p6QLewJt3HcJt/+tD7q0jHSZcywZol5eNEBj7Tca7yQW5Np2UtNE96F8s3EqZt/QBj5ECGpIRAHOKCgJMLifwKsEDvqJSs9IPULrl0EeWr7vEgDWXpHokHQtdVLJRgRNKkFugvUqBmy1tlhO+JBEEHT/224IRd31Z/wYBG4g8BpK28K7OwH7r/cZuQYE1TqJfLyvuKtIZ+I7+jniFvVsfI+CsoKdtZEP0RNOQueLGaAyI7TLtBIMMzXokrTRzkLgXAKPEyijNO7ET/HpP+zv3jVHmyhhrGTXLuIzsCDJbG9Hbmg37eO7bAdI6UQlHzJZCAyakaR4ZICFbIDNy4JQwlDQ3iKpsTTlMqC1GqbXhtwwCVB+DAK3ovTuEyBw9g/vDsDflDjf959ZSk8atO2Hu/LCzVu3KBpwif6Z+pDxzNkwEzHASiAsgOBM80FjWUgcNnWOmNI9tL8klTpvE+/XPEP3FfPzQUkYoBD4CqV6/+8H9Ee7A9BGhurTuN5wppi+BdraJaLJiFzM3LMztK2+giziO/aaDLoUPM6ogXNeMoy+U7lpCfKZWF2Wm08KSc6F+RBkgwFDy7nyQpCYl3oDCoGh0j3Aw3hAL9AdANQ2u4qmOGc831lvbL+wSGqHqxR17JtTgOmrgeWV7+AqQw3akCQU9WPTHjB7NzfxvGFuKe5it+MHkA/mS/l75uk1gbp7aR/gvyZwIYH73AJA236OYMxOEkkVp051pljJKE0z7zFtCa3JfCvpOkEglq0euu8YyyGFFvqjkkk2goCKUrR/EbymNjj6k6GzIE1fDa5EKxUMfyH7XsUDQAu1z4mXXexxzrYgC7PZKxaCgKmV+vYBKhcwsq/jEN8BXUI0kZjRefwMnAREAgPUii4hdVhYlA9ygU97IGl4UAqNEy8eaqTd5mg8Gio0THtMG3tZ1tgrNz8WTBhaRfiQcaAPt5LZISgcBEHQQ2ZNdMA+adodBoDWB0kwNiIo77LYHDXFKJ5PQ1SxLmHDsg4VRsfgHG9nicBnRBSaUfac/QCDUzZzsdTMLGbPGABqLyR9f81Q9KgEAAg9QNLlgApgSm+xOoLP3DNIk4iJmJQBjGXOCsGSuEQGpEJt+iEJ1o4FMfNOQma0pHMs4zt4BXqtgGIhNAoQOENTR+p1lenNBEDSE0mP3RdEvqeQnE42VlC+Y7ITI1ZloMYmoeEsHywCqUuIuQHX0G4a8PsiSfDuCr+E+0kZqVMnUmO28hWjFFokZg5C0PPi/J3oTvxWSHWDBtFG+TQQnIc3kmAROs4B6eNP5tWsRdZVSye+4uRBWm10Ui30PAltEDInrABcYkjVB9HL0oAWePyRJPg9F/AksMcLJbDZJ+suVPUJfpB7EfgKQUUlQDFM4gwR6AUYsUHgDE2LUrxBls+YJpBySUEC8WshsC2BrT7BayEQccfGJSvLKfjKg/ekhTb+8kNgRRATISJj026kdxDsNwDafsnxB/kjLkxgrQf/+r6+a34ze7+ZU5yWwF8ENvjMKIZ56tgFnyEwPBOhgEdlBogqkbicItAJi/MadNkJPNU3uTr2+yWQccDn/GJ6qYfaDMGT8Y007MchcIEY0xJEIfPAPrL94PJpGwUhRzWRwDvfGeXzWAccQ9y9TjMETJFKMZQqjiggIU0oKsfoZWGoPdoNdH5gR4UPA9Sy8x1PoJly1AgKGh8Fa9RLdK4Y+7qM51efLTVUFgYD0vQYT/Ul0QzzoaMRnzFXpaGKQS+Gfh50ojJyVS+g7pXR3iSXdj9P9c8S+I7Ahg54nF9jL9BM8UBH0KrNhVYjmo+zOdiLyWiqH4qGwuZgo32ll1uyowKB90CdsFbNQ/IVUxlNUpZkHGKFNMixeTkgNOjRNvc0HL6+aylN9fvRYsVXnED5inrdoOBREIHovEGBHMOMscPQkqDgIyxNddt/OQXCxNUXfIW54+yPGmfoxRDNl9hUOU+mI9WToTyH8heUpjoLgU8pxllXC7KEj6jXVdo2DMwGsZKQDMtguaab6mbhU6C8gdJU+KgoyIxWKR0T+QhdJwEtyTCDiZCSMMtkYObCYbH546InTiGwGoElS2GVlSwcV/iIcQcbtOfMAA6ixTSQwkCOMU4IjQDlxb2B0lSfzT9LATd0LOEjcLBK263ZAMuWhk3mmAwQmUuyGug/VWkqEHiFYpzxF3jCPiJmUIyqPQ3oOdArkYEuo90EYdc4MGijS1XdNgUTVgdHK/iI+gAlZCENIbAsmLOFkMmQgu8wU6KNtN+1VNXf+vdTdNvW1REfUcYJmgmVhRDPRfZADggEeyu0saWqCDQfOQWWgaMpH/Eo9jQc/Mlkth8sL8RtEsiSSaBYqgoE3qZ1AicQv6pvMIO/lGJPZp96e1SXQPplVjsxjK3S9yPMDIM5tNOWriLw0QUoDVmNqyv4BiGaS7GpKcmZTxUQJc+FmArAMLBVN7AYDQqh9UGMZ/kqJdYhoN2/0lV//5dE0UnrGIFv4EhZyMGfpJIqfrA7EWVuSlXZhEWCHhQuCoNiqH8wMvHO6vQ91+691MJxYZlOhnZo6SrcNiWUceQaC+f0Cdi43WFEapKStLFoPrRKbCoN5k0wN3sAVD54mXw/sflOyuQ91v69Y9n3orf4CrCoM2UzgZ/295ey+jAoSEVrkV/VN8zlE4dZZSlBrZEOsiH5TrHuvdPJ+6SNey/z90nj96WMvEOaeR9wqZVhsa6U61EFXUEM9AsReKGU1T/7J1CsjbylaxS+4SCuZMQB4HuuQVUJpK4EVvHrRtX0UdWAoZxxM3lrAu9RiDAduFrhI3RVB5T4mRlCej0cqyF7eE90V98RxXi0v+qayifsYBZ1ABp50YXEDQa3grfc9Zf0MTlgq3VaV218QvQgkQAwhnYGAbi1CtjLX1/otil68xUpn4AyzQFfy9urQlHXCk+ENnnsR04xfpKjgz7AJ2yxXgIAf8rwizZNceUyMPQe+exP8Q9wwKP9Hq5K+IQGZsQR3/yMw08FuQQqnxE8GO7u5LWf6o9B0aWFKy34BDPZZBaAuo5g+rlppyDw3T9L4McaAt+fXZ6bwCsUI2Xi6lU+8AX7rUkGBXsATZlBRtBGI/AkgaNQ6vujOoUDOka3eTThC7K56gQBIHTQguQDUrS9Ufr7hj8qSlnxwic0+A1SfXNtWjbKAPyzP4I22mMpBYa/mwLLgasHg9vMvkEuV7ABBgDjkM/pHVYGc3hFpcG+ows4GJ2j//+YarDKF/07tyORPeKgF6KF0K4VUxwIxEqDEfj3a3ZAVdbClZHBhyQ3PRANIjuZTBzOd+kGLr4ugOPrKw2GL4rCkiY+sKH1wGBSlCFO91/mkrI4ZBoVC3DdO3U1iPKFlQoj8OLuDsZCYCVx1Il7MPDuFK6olAW87gFnGlnq8kPXh9ypB6UPTRf2w7dVQSFQ/BwvUAoMcAk8JKl8a7Pvewul/oeaM/TS0Huhz+PQp4JLjmZ7zcgcklOYGYpG4dTgwZTZ0+uud1XUzxj6W6EfAY2DQFfAVcODLV3pHWpF61OZhfQloIn/oe4MS4LDBYcDi6PDNpaOZnvMn2c+3DHn5pQpYgBg6FVWUFVmJUVouzXBF388dUKzRjTSyV2tvoKdpH0aBOTBP1Vj8gp2qHYbLlBuM7kgH9gXHlhnMX9rKfDqNztc1CP4OM3IXSOfwjU9vLrmBxqNxWJl0T05Y0J20h89rN5kLfBTvNSV0ZP9D+xoq1TSE5DrcCcK/tmFVVwkJIWCHY4SYP6KQrGL7arHll7zMfyoD671a1lYdevMD1782TKBC7aBf+LczQKaXE2UvyC4yJg89fdv2ld8R7/R///QthszSFR/z6eeohtQhwpPHB67MMExFS/zN9UVgnniArgDZbEvab+vJZVYo4PSQFowIT1JVUkGu7yUzXdqNZ5MS+gPusPsYNNclYtyxWmen3/mk0kSyaQqFoPL79mwD6s+iw8UiyMDM0KhUFMhqNheDEinmZQYh/iEIwQxHtWgUdECMPzaA93EDGImtSeLMhhw4wshR04cDkFDsbmqBmCA3loNgMHD396dF4OzcwDqIQwvL4AF3JEXh/+QDXlVm3FWM47K8uOjKQta4LJdEG+xGaTyiKBPrhwO4OEv9epyYAAKwyxpJqg4XOj9O+zJn88ThqVqxwP5310LgXUJlAaj0z4GAt//cl+vIrdeGe5KIFAgsNJt3a/RX+avMXboY/lBvOQCFzjFDZ/+Y9r9tASG/v7Tfky7o9T8P04ge80XJrDCNX+vL270KQnkT/l8//FTviLsDeyNvfGD/Bk/0QXOfqazn/1MZ7oQgcqZznJaAuXTHnqmU+w+EqX938ze2Bt774299/4zfqKR+FD8X9r/pf1fupg=;" vertex="1" parent="1">
          <mxGeometry x="164.35000000000002" y="682.35" width="92.15" height="55.65" as="geometry" />
        </mxCell>
        <mxCell id="9KokqQTZdwICB4fAT89v-10" value="" style="shape=image;imageAspect=0;aspect=fixed;verticalLabelPosition=bottom;verticalAlign=top;image=data:image/png,iVBORw0KGgoAAAANSUhEUgAAAfsAAAFCCAMAAADBkIRdAAAAwFBMVEVHcEz1ih/1jR/1jB/2jR/0iSD0iSD0iSD0iSD0iSD0iSD1jB/1jR/NjFH0iSD0iSD0iSD1ih/1jSPGjFf1ih/1ih/0iSD0iSD1iiD1jCD1jCD1ix/1ih+KioqKioqMjIyKioqKioqKioqKioqMjIyKioqKioqKioqLi4uMjIyKioqKioqKioqKioqKioqNjY2KioqJiYmKiorR0dLQzs3OzczQz9C/vLqioqPjrnunp6j4mR34mR/4mR74mR3SiUEQc2g+AAAAQHRSTlMAHl+WxOn7//DPo3QyBL7h2IAUCShpsfWMDVNJP0lgPt/oyfEdeLDRETD/gb+Q+CZSb6FZksD9+//xrf/S7qvxZ/sfSAAALvVJREFUeAHs04W24joAheFNJbuWUndcjwPv/3C3jDODHLnWnnzVyNJ/BZ/PQNMNU5CW7bgelE9Daj5bQ9s3AkEyCCMon4HUhqQdejGOZJJmgnkRofeUxKBwEvwqck2aGnpO0XL6CX5XhoJODKXPXIoU5yQ27QhKf4U0PZwXZyp+n2k0E1wiHRoxlH7yRO7hMpnRgdJLccAK15THDUofhXRwnSfMEkdRrWlNiZ5QotyKcEPBEEDtC7ZE5kHphZAhbiktqywz0i7StBiShYTSfdLMS9xUMLRpN/iiMulA6b76VR0HgnQkvolsulA6r2CNV8h+SQ85sMQAStcFosQrNI7EL1IWUDpOChuvIvGrMh9C6biEDs6To/EEF/mMoHSabBjirMl0Nl/Ml7jAoQel2yq6OLFcfv0sVhLxeiPRksstfpNxgE5T4vC0/d38/n46AfDwiFY8GwEYz+7v11ucGNJPS3SVUqa+4En77expG6+eX4D1CkfHz26xk8vHR5zQA9JyJbpIiUOLDPQqwk/7OVrrJ2C9x9HhAZgff7eLCU4lRc4gQfcoSUCrGODU0xNa+/WPc39oP4s7tOZj/C5ymNdQ/j0yqStNqxOJj6hzOhFwsf3TGi053X1v/zjGnzQharxF6VWaVjUR3kxJQkPwq9wIE7xXkwsNf3o6oPWwBl6ex4B8msbAbITWZoczapEneCVZOUN+YzpaCeX1ZGWQDJzQ1dzQCUgalcR7DExR4YzJ4gXYTscAdovNYTq9A3BYS2D0vMU5Gm2J14gKi8x93U1Tt/CP/3oC5ZUam/S1CN9Fmk/aDd7Bp4uzDounh+laAsvJcrzabSdbYDvdPByexzjPYYrb4jCnpTcS30ivMCn0CMorxDqZefiFBJKM1Eu8VU1D4py/2rsD7sK1/f/jH5Av2JAAkISkSbIjEZmZzpzfnXP+z/9Z/SNQ2iRK0enIa63r9pi0q+272UK2HWvqB4Gs6FbANUPHcuF5Dlsqq8BVFCnp7G5JeteBZW349j1gpRFOyogVao7x1qRFrdz5u/0EMZjraQtl6XrebLG0DK7xwFLUWdh/qZieJift+CcDjmIPLCG1BRowZE7uOD0RcaQqleo4S44qiOOqthV4fGGvVAuAbq9vl9xW5lxzpanmI86EqkjXpX4esepN6qXHz4hNKjAkqFG5g3N0qYYYlmdjI3DwYrHCxspEHNZvIlWeyhMkEIvp8TNShQZIxLrUFPFOKefglNlx7td/CEuOWEUaIsUk7Z0fbJj6o2VQOLFzDKiBM1TiYylqens9oX36KT2xROMTQ9oISTKTU/s1a1AX79cs45rtq9RJHWTaJ9/4ISITj7VojHS57fsrOrVeo1EYDZGq1Y9vP5O31KP2hrzxdMl+P6EWQ7o2FRCSxoNGo9euI/NiRD2c0qYB0GlQJOXkatp8K32xox21VxdbRsqfUpIiTXCC1BRyQLdEG8WX+pkK1d/1xpm8QJVuRxIngz41xI9My17Mgxeqg1QiFdN2+wYO2IFxKLCx1qXCsEdCYSxKuXzjZRWITJ0a2LEXb9nbHb+xfxbNxAZVJCQaUwGpps4hG6m61MZe+gs/urZwDy00CyGp1K9QMYeNUZm28TMDymPHcJTXHGP3xplyHTusl5ZXKpeH1xyWOkjCyiWGF/IMa7osyzpCTPOx1qbDJzL1vtDBWqYivIRaKIFp6oY5Z2bEsA1lgUh1lz4yLKX9/gZUu93RSMprfrKKtamqqlOsqbIkARCFXfpIfvMlM0Mq4qC9Kc9sbapZdmQpLXft63W8+40zYrmfw3WIJaGORDXKI7LajvHhzRIvVNlZRLUZDlUohwxYnQqH7eczvpzNuKRG5kq038cYCpXUx+jKENfAGjRAJP2pvzoPtjQ5pv0rNeoiA+SpdtDet3Qd6//pG5LuLxCrJSBFjxrXiM961GBIVhSkXWRlaq1CUGUwRVGYpSh2UvsJDZDZD5sbsqe95smXvMouNajSSc/67fv3b0iXK54YP1pl7Nqv3KUZgrmQppzzaRDeJLWvUxUZoE2jw2bm1FJta8NWrakpIV6pLCKFVKV+O63bj+efP5+/I8Ww1qfeEGlKzX17yYpA4Y6vQfODQElsP6ICy8p3upXD9rLGX0vY74dEQm+CFN0ylQujHOJ9e/7F+a9nGwlyo0KZyjWkYJO28NLe4REsTMvnKp8G2iyxfZuo1BbxyKQwPB2d/F74zJIgWRJC9lMwV72w/kxduL705hffImp0kExsl4hIKMf655mHnv8pxxOIqDxIy9MplImosW+v2xGoMiRZlqWlLE+T2ufyVYH6bYaHNWqS0KjVGY6O8zW+VDVPgj2fBStlaQGSZfvOXHMYDjFgXKR+HskYGw96lWasXftmvEpvME5LMywIVDp4z48qy4vIur3uOI6lOM4qvn1ErJWpksNjYgUSCjkcWyimP7M1RbOYtmI4tDRXsatjt3GR5fNPzn8+67hIvUnNPMMLVVacyLq97xmeH8xMHg0HSCD2qNR5zPQNatWBN+0NbabPNVWyeHDUhfkzJy5CiWq4BPv2HPqGS7B6mQoSDqmOvTUL22u25geGvG7vP6Wu8JzDA0l/Am482VsKdzUzWPlK+OFUdgzNXDiI0SkJE1xE/L//G+IinbKQxzGT7/mYhreKy7mX2j6KX2F4NKwbfyJOMb2ZymdqiIMpT+5ibprmInBkHY6TNOlHwkWc1cWzC7t4hVlrKzW8ARDeru+RwvZI1aM2Hk2uX84hjq2ulJmvKMqU4wADktqjQLW7tk9Zn1dW2cI0Zds0zSWm4a2nmmtByokHEQ+mQN34HDNzhzNEbBehlPaiUGL3a5+yPu9Sl1WLu6breyvPx2q22gpUJKk93I4vCs34XIup7U+h+FNYfDFlCFk21vQnzUmZP3Gf9um5Fk7UXt21N2Ett8NByh9SE48ln/jrU0zTs7U5tyz+ZGoL90mWfXnlBKoWBE7KNJ07tq9QLrk9MxYLeT37aLlu/8QNO709etTBQ6nSJLG9M7O1Jy9sD+j+k7ueABc4ss2iMT/ldO692otUQXJ7WLrOoOs61u0ddRHWT21fozweSktgSe2fDMNyjYBZHMeS26NZvmP7CQ1S2kse5070HI8t5nAWUGZcTms/pjYeitBCPCNYbT1xCRHdx4ab2L5Cd2zfpS7SHu+nC9fXdM13uB22903PtdLa16mAh0JFxNPdYIerKx2h5RNCTAl4cnvhju1rlE9tP5+5Pl9wfzkL4HDP1YGU9qxOAzyUfgunWNw3NHUROCE3MD3TSd7vm6U7ts+n7veQVyvbenKeLKxMKOvyqe0xerQxvyKw0+0BtvRXjus6T7JipTzei1T8Yx7vsfe+5/do0yg7zo9pH2HSqWO9EQ3u2H4oVN7XPv11vZ0G5fAQzqglcR0RZYGNIKl9jyZ3bI8idRBLWe7aW4GFiCqft0TIA3jPG2cczVUk7CzlhaojVkdo4Z7tU94Z8Kb9TEa6AdXwYAY0wCm2a3rqwgiCwDA1zZBZ4m6fv2t7KfktQTZ/8g85fIlUHaE0xINJf7fLnmRPZXkl+4qedtxdYXdtjy4VWeKOrx06NeSzInXxcEbXmrIyEfod3Lc9GlTAVVSphwfUpubJZpYt4YRxXxjh3u3F1lXm10tVaol4QGxA/Xx6+e/hhLrvSCMNSMjj7u1ZrkXFHNJ8+xF+7xLSdCqPO1G3K1BxzJDo+/OvX7/SZlMOu00qTXD/9oDYIGGQEs5+/hl+7z/SyhcE6g3xqDoNolK1O5rEGq/fOMN//kz411G7198tVnz/9pvlc4qD/HgS68czX7/rJ+lHyw8qRM08HtmkWqZEUftfz5SoGe15n9QeUrdIiX7+5KHn/1ESoZFneHCsnq+14z3/XO/3P9rxaqMOgE9rHxHH3XaswXa/HyR8793JECky39ZvlH22keKT2596vP+OzKXxf/z8YeNLtoeyPs5nuFTGUoEv2h4wbGSy9pmsfSZrn8naZ7L2max9Jmufydp/CdKk3WuV+v1SpVqrM3xc1l7MFxrNslBuNgp5EX+serTSXL9ZqTQFIioNcviQrD3LNyhUalUqJQo18tKfWb5BVNqtX8k6+WqfqPqB+ll71m0SVdqTIdaGk3aFqFRj+NNIA4EqI4YDUrdFQpvhMln7eoWEQgeHOoU+tSb4s3QqcZd6Zt0SFXNZ+0unsvVyeC1XJaGNP0m9RNVh0pqR9az9BRKnsI5LVGV/UPo+1ZCgTeV61v5sheSp67nKH3RZ5U6JukjUpVLu722vGKfMLmnfTrvY/7BI1T/n4tU1pKhRRfpr28uGcoqEs43TV1cepv/G72hAVaSq0uDvbe/e5l2KE6TJlYUO/gB1oTlEqmGT6lhj9dFoImbtTynQAOlGVEREnIxGdYZP0qDR6SGsCCBXKNFaY5y1T9V5x6rQvei3PmoIFCoPcvgMdargpAZN0O1TudquDVqU/h6krH2V8jilQxWIDaLKoNaulqmfx32cv4jtmHoDKncZ1iaVcy9YaGnuKX9R+2H8IsOSrkvHK020dpdRl2p9quHupHKJ4bQWUatzcKHBHs7B5FO8r94+/XrbkmzMZqapqYHPsDEhogI7eHFthLs4f/3i7tHzVVa89neqffn2Kasqs9XM8BV5tQpvDFXGRoUGeDERShLubPC+isNK7n0HCVl7Vi7hiD43FHc2DxwnMFVHWRgW1vKD9CsR3F6DRLxhycHM81RXwR57/WmdrH28DvVwyFbl1czREVm6M9lR9ZjfaIcauLNm+W1511O9ubpQtZm6YqcXo83apy2orau+sdCxtzTdlWmll7gToYJXppohez4MmQWqrM6XiDOiWtY+Xvdot2DzVRAwHJAWjmukXxP6PiRq4NjKk5nqIGwPNneZO7PPWoA8a1+jEV6sjNWC4Yhl+ub0grWJb/3gBFmzIassag/b0/E0W8YeIlZqYtY+BisctmczZabjFVudzvEaE4Tq+H71J4UmvWq/9OaGoZnrU5fRjWoYqsrwRrdC1B+IWftjw26jT4ftfcNx8YYhmzZeGfZKRK3RncpXiMq9WgeHjMVq5fCn1WplBuFNMFutnmYyYuTaJSqNs/YHpHY5zFfID7EXyOoSb0wXjoO3xj2inoibk6pEvTdjzNLTAXkObMZ8WFwHfDXpRxWofa/2Yn2c77bbg1C71h1NcuyPa19vUrmdwxFVUfEW06YLxOkUqdnBjYmV2PmiTgDAdfftoU6jxyzEm5SoffP24rhWrZTpNaHZGHTr7M9pPxKoMATDEW1qIMZcURNXqix1bp6+KuEt0wewkF/aG09pC96j06T8LdvnutUmpekXB2Pp89tH6fsjvGbN4r++oWhIUKOmiFvqURVxvCUAc/rS3nWi5ykpszz7uRu1Z5NBi95DaPVyn96+0+9P8IYUTFe+aVg4sFzMFWdpIMmAeriVlMXDLe6EtMAJqYYTWszDG8NM+1K9m7SvD5p0hmJX/NT2rJI0ALKZ7To4EKym5okvNcbNDEsJO6vFg5BmBCF1HoSMRXizUFO/0/rV2w+7FTqX0Buzz2ufj98FVovFQoUf4MDCBl8sDB9JJlTEzdRogHie/mrMXy4thSlu6k9duHL73KBMF2l2h5/UnrWEHN5aqoqtxLTXbFuZWUhSpDpupUU57KQe6y3n3DS4Oj19yvJ67TtVgWKUitVCu5vPj/L5Wq1dbbRityq3h5/SfhK/2ysGYMW1B2DqqVeYvpFc8pjiBtvD+qj9UnMtN9BX3vT0VIUrtc8V3jQVioV8PSZpbtzuNVPq37P9gPJXbJ+jxt0vXA4omgWsFtv2ureEMpWgpbZv0+ha7YftPh2rtCcSUuTy1RIdK3XZ3dsXSbxie5RKuJG0WIvA91eeH5qvFHVmLWaqqi9mq/RrCl+p/aj5+uA9hwSpTwla43u3j2Jdr32FcCOFlEMJm6vbi0BqjmtYsioxw5WcReowUrtK+1yPDjXbuXPOSpXpUFW8b3uqxLdfJLdXU9o3CDcyoAmSRKdsV2Y05gcOnABYGfDN9LkK12jfParXGLNzz6C16EA5f9f2Qnx7th42Y9pzVZ0FSNbq40ZqqbHcmSLNVuv2T6pse/JUXSlz4/w/pfNoPTpQreMC4wYd6In3aZ8+38qy9BmTXRwwFGtmaRKSsX4LNzKmAVKsPFf27LC9/uTpvqk6mLk2klVIxEdNhMNqnY8sGbTXnNyvfY9ySBKYMwUH/JnqQEOKOlVxI0OhhTRLwzO9YP5k2XwJyQKbyTe+CHDtIH1lgg8YV2hPqN2tfS3teNe2cERfQleRok153MrJ600vHdPjniMZ6pPmOaapp36jtStMJdgp5Rk+hB0eN/SGN2x//g4wXSmISMYTkrGSMMStjKmB95Hnrmw+SUgmlstDfIhYTD8+P5dYpb1K7j7t0aPR6fSmM3PXAtVlqYNIAbdToRGug1WpjY9guRbtXGkKGBuXaKdUv0t7VqfmECcoM2MmR5ZIkSv3c7idulDu4Aw3XI+l89KpIeJKxB7tlCf3aA8UqIdTloqOdPdYj6V7pWlh+Y/+EdVf0reR4vKjx/74Lu2lChUYPm7YoB5ua3D6ArTit+/fTl8GefKx9GXaKo9xVZMSbQnje7RHrnXqJQX727flO9a4bEi4sRpRIYcUynPoB0OycYua9SsN+M3ODaYk7uPfoz3ESvqzlO/PoW9IEZ3Lqkq4uUmThOpIRAK2vpJp8tWrWb1W+fBk8lyTtioirk7q0VZ/co/2YAOBmonnHZX1ZYF/Pusp85ELZSp3cQ+s1oxWTI/3e3v16maskkBEvQk+ZNiijRsNc6xAW+X6Pdrv5p2UmnH+eeah53+aCcrRmksi7oRFV0oox/p3274cq1mpdnP4GNagrZ6E2xjQVjN3l/bRlRKKzVI5xq59OV6p1RiMGe4uZcz/jpsp0IbQYMCt41ek27dP9229M/16XuIL+LY71ruR/A0G/JT41Xu2Tz/W+wL07z+/3XTp7o3KELdUpa3aZ7eH8uO7jS/CXuBm9sd5pRxuivVoQ6h/dnsECrL2Lw/2/TpubFihjebwT2iftR/RVh43lyvRRvUPaJ+1H+5yDHAH+0lB489vn7Uv0EaF4R7aKaN+1v6+7Se00e/gLliDNgqf3D5rzyq00cWd5Mq7Y/3E9myY6+RECbeUtUeXNhq4mzxtNOLaD0eDXlOgSLlY7XYAZO1veqAndHA/DdoY4ZVVoyjQK6XCJGuPW6jRRht3lNsGbjEcqvcEitWsDbP2VzcsU6Qp4Z7aMS8oTBqUrFSTsva3j3APw9LrHV+sUrrmOGt/VdK2QQV31n31N5cv00nVYdb+BglGuDPWOvyjG1bpWL9VbBQrJTrWrGftr2df4O7ytDHZXI74QGswymFjWK8dHf4Jo6z9tV/SG+HuWJMiPaDTpL3yoA6krPDWfcz26urqKhRpMtxfjTZyndKppZnGRdqrrq5l/nXaW6urexIoUsMnGPYp0iu9472f+dIN4ut4YF2KCCI+w4COlcZIJjbomvNLMg2KVPEpOnSkkkMa1qatpoiPyuRoY4LP0aMDjeF7n49SD5krDfklhs8xphc9Brw7/giZ6+x3BXyWVlr69Bk/H5KR+nce8lNGcXbejJ82Mtd4YafM8FmG5bPSA2KJIuUhPiLT/vwjp0Fq+pRXgmvIXOEZXhefp3NmeqB4hVciM6xPkQ4+Ue/M9Jhc4XlppkORMj7TOCV96o5fxeUy+T/ihZIBw3nyH39RIjP4mk+XdqeA6rhYpvdFXyPrZUf613pRrYMvpvbhB/yMQBEJX0z9StPMspN4TXw1Q4r0kfng7lPEl1OiyBAXyoy/7MNmhSI5fDXiaLBeQLHU6g1Gwz/g6X0BX06RIp07lhLxYWzUEKKFU1vNfrSM4Yh99uFy+8vu93Vc7u6lWL5JVBmMRayJ40GLqJlnn3sWr/Zlz0MMcTv5ME3rpVS7QtTsMlysUyShWsehelWgSv1T23e/6hOUEi5371L5ftyV5jo9Emqf+ZJuHmeSxoXqSMIr0mTw332OX9j4tsuERKUab0vlLi/Vpn4ecUZlKrCv0r5T++9/a/8ehc51//s3uvu/vHi3A5V+oyvi+qJS3aRSVXbRb7pZT766R5V9gfbDUSEqHNmHlsaF30f3dm+dv0o7Qm/EbnH5mpRSPYZz1aiZS7u6R+HeTzTbDeHs9vlonz+MD0Aabfb5vWKX3eUwf6PUFnFVqaWGxfNLTYRSJy1Fi7q4FzYZtChyXvvuf/nhQf5iXhRrxUm+2BUP8hdropgv5u9wmL8j9AvXrD8RytctJZZojDSdvtDBXUyqZYqc3b4Wpo3yh6HD4GK3GN4xyW/ujfL/ruU2fxw3bZ+j1/rtIa5keLJU+cxSBRogXZ4aiAwno3EHNyLWWhS5tP069EiSRDFKvGu/zb8Nf+v2w261RK+U8riOwTtKFc8p1RGaQ5zQoBGAcU+4yYNYRBz0iT7WPvLvsB7eHraPdDr7D/O4sU632qQjjRyuICeUziw1OFGqGv8LZhZe1KkSXTq0VWgPen0qj+5TvlntnNU+Ik7i2tfr92ofYfVBiQ70u/i4AnWR7sxSQ6HJ8JZuaj5eNCjf2l1sftgWqItrYrVyTPd8DsAXbQ8wNirSgZ748amAJYaTemeU6lIbby1nZsBXx6dUCwxbkzKNcT31Ch2rFDbdv3D7SL13zVW48jTASWxCdPCCTD21VI86eEOfzS08cRl7LSrgxeSK7zxhbYEOCI28iMjXbw/UG7TXH+FDelTHMcn2V0+O8yRPlyyplNCUkICVSzF3zlULgOvZ2OkWUg8SLpcr0oFWdwjg72kPjJu0I9RwrpRSujPn6iJwXTcw5pq3WFnnlupQFW+sNtHZ3MSOhCN16uEqJmV60ZsA+MvaY1igvTYulzv+lT9pgW9FsRaG4cq6vJhNscZeB24gwSjm+7E01Y0YXEaCUhnX0BVor1EHvnz79Cus0wAXGx+WYvZsiY2lL8uOIznwNYYYzcRS3Zgh4clbbKkmEhSJ4ePatNeaAH9pe4iNK+z5+aNSvufjiM8cbsWXGiJejUZ4TXWxpXAb8VrCFdoXaEdoS/h724MNzl95M72UP5uZjrKPrfvubB7fvpJUig1ogleWXAEsX7YBqA5iMUEoTK6XvlXHB3Xv2/7yBzdhfOmfz3H7BfMDlWvmYrGYq543dxVwK75UNaaUlO+V6W172WPwNU/jAUOwQCxx/ZmVMT5icNXVxyeFf4/b/zuoA/Xo3oP2/xbq+BSjXfxyB2eLSr1qH4VdKlPfn9o6QvHth3GlpFo5evVsiFdcE0svsOB7T1jNkICNetEqoxer0ZbQPevcfly74bgenavftI8STxgibPzfv7v2//43ZgA+OX5LOrd8rbQu1RWP27/BreRSPREv6i3qDzqIERhwVAaEt/A5ErF6hVodXGgs0EZ/jHdi9XYxLPh7cJy/XitGu/mEYZgvrtv/N5KO95r/1u3/yw/xmfLC+Qf7zLYPS13QPhKWanawM+on7rSGAXeBkKzB5wzJWIGa9W/fljhfp7xLP8G7iPndFIzD3VocHd07ZsgxUYz57OFQxGer0dYY7/TtOfRvXCl/puOVKbfSSpU6+70u+RXGwMBKswAYc/gcqdr/ew59x7mkypnpx7//d+x3HUC9+PreCf5gVdooiXgX/fnnr18/n/N4y/c0V2HYs3xDS2kP1Kg13M3EmSCJY8JSzakS8CmeZkglPf/k/NfzN5xpcOZRb23COrXfR3v4pI3amOVq+/zRw3l9gC3dXzlPvo5jkuJvf2X6dLrECyt281efevQZiPky6aQibVTtd/n+zEOxv11/YbuqZxquEwoM1Zs/6antUaDq9jqjeSSSPQZ9wfnMB4LFqUGJh37+kM/jnPts9/d6mEcuyv9vdZ04vAfF8N4ofxR+JHXa4b8joiz4xkLZpFU1TXOx0vjmB7MMHjIVxG9ue/zFjAHQg+guVWaIOJqmqdbmy8xtvE+nTxvzxXv8/JnSHoCuyE+u6zpPsmIBSG8vVWgCIE89JNO5AsDSEZo9vav9T/c8Zdqo4r3td8/acrUwfHvznyjuHvtz3U34tU0Z/kLe/FAhY8U3ppbKI54Sv7nPD1nAVONbhoS1gIeWcx7Rlmcuvlh858P9r/WoqiS1PxZwF2km1ABYK3VGn89dWEyyYDGbGwxprIvG/DZtVKQz2kd+d5GPPt63jz5qHxwPICTzA56+az/3+IYa8C0zZvOY9ofjgPHS3j2871165xzusR/PP38+/8A72vuBo8neyrCRrEIdTFJ3e8VTVXDfMcFlZ+a5J49Ew++O4Ry5/tnXuN2X/Q///e+ofeQ32v87aM9mUdan1YKvPUXtE+i7zVVnu7kDQOEHVMDkB+R9e49veezMy60W8R6Tf37++MZi25sMB6ZaYCjwF4G2TJ+mM0h7tGeqYXNFsXQbiq66MleQSvn+zz/sssPdGm7Ufhrt5AxAVDN4ae/IBo9ozmrO16bb0HNpt7mBkGStbTZRtsPAStKjz1b37flsJZt8bYn3Ye0zdvyoFEsYnOc+O2g/Y1NzZum6pyNRjhoo0jBtxNf3J3NsrmBh4IRyE2fp7P702c3aq14UFVjx0GLf/gm7XdgGLI+HfEBZb+7vN59jZ8XXXCBKHmD3Ocp+v7eBJV9Tzr3cagPv0CAxKdN8ZXoLd+UrijJdWk+mosnW0pU0mSFRqYRyCckMA3BVRJwZIHsS0rWEy07hTHCb9hFriTX5uL0OwNn3nUft32xuYmsZhTYlMG2/5YKH3F37BUIqD03PfoWng1S7WAn8BaD7TrCYm+ZcdtRp4ADQl/JMTnvAR+qDjeq8nLo1XWDJbaQrEs4h9inSw+3aR5b+yp0ftff2O3Ow7+gfbO7MD9sz83jX1hFyd18wau8cfJlzd/wBTqNKSvsDzkI3VgBcZ2mmtG8QhEpa+xUs2TNWoSce2LC4gnSt/iUH+ULnpu2VQOORw/ZaYvvDzXftHb622h0/cGn/2equ/eqC9mi/f8ld4Z3t7YUhmxaWmqIaeuoI3SwhmelYM03VPFXVuDrj/pIvkYoJLZyBlShSxQ3bS1GZd7dnh5vv2iv7z4XP17D/bG3XXr6kfe79R3vNcmL7OQ7ZnhRopve05BYSsX4LDcohUTD3uYVgsXl9zzBWGkOq+nkZx7RRv2V7g6/NHdk93f548317S40+Q3/VXuYh70Pt0Xj3GmK9xFLWzD2svJr58lJZyr6npJXqoU1dJFK4oQKm4fsrbsMxzQDp2pS/4AleAzdsvwnk7z5Kb79L6x8f6wW7O/djPtu3n32sff7da4bWkkstDW/h+LbFwCxdYsHMNC1t7j2lluqiQxUkm/MFMONrU8jcWyIVKwnDC65+lb9l+/3BOFbvab/Y37Pat/f5/s6jY70nHpp/rL0ovHPoY7m0UpbsLmYeD2krgDGNz8GQjDUFEWikPdYsNfdwFFghXZcKFwz5/SHOMvrvTftiHuP/3rQvdgF4+y67QTy1vRazucbXDPfJt7DdQtlv4aa0v+qlgKJS6STL2n/ETpSqApikzhvSLbywkS5X7ucumLBaxbnE7u+D9r9rOYBFE3UO2v9u5xBifNeFzaLkUnr7/fE8U3nIs6Kye4vp7gnd7nmfkt7+auusR6WGOF9aqSpVcRVSkWqXLIs/wgVy7d9R+38Hnc08nn8LYyk6sRu2P5yF6UXJGODyyNPJ/f715jN+aDrdHffJPKTig+0nFGkh3W1KDVs0wBVIDerhHCJtiLgIq+cxmoBNBtEgsD1tj04X4zHD3oKvzd053/CWqe1jNtf4IRnRP82CzZb+R9tLwrvX3pSuVaq3X4Qr17zGxOhchRoSzjG6wpUFOvspevv8OCbzPTWKlt7ef7t51D56jWOTeKnxvQDp7a+55m5UqneVUkXpYDG25ggfMqz1qSdddOZ+8JH0w/16OvvVdDpDHDH4hidbM85NHantWbDbfGWpm801bshLhKypO1snVrR9evbx9lWKjN6ZrTli+AjpVSmpQNSq1RkuI00GZSp3L7ySUB6XK6ynYA83+aPw6wf8Oo6wJ3WdMlgC9sywdnO2FptT3aEVQm74wcxGaBVtbtiArS4sAP4Se8y3XuZsmbvIT+tPVg6/zBkG55zElgbCB0uV3qz5Uu8JREKzcoFWiYjKA/HSKyDVcblBNMxH+f/Li9u5mnW8pi91tkmHFOdsLtlTRcdVdE8Nf7cvJXarlVL5Es1iYSRdfAUkQcLlCvtJuRh2o/BR+y9ldPpJ3v1L3ZhIkRI+2j6CUXjzJdtPdu0fSIcilc9rr2o4n8+Dm7Tv4YHsfuZHb1+/9SL7X/9x7v7t76T+gPv9+D7tdR0hKbplugTAlmVl196SZRsH79ySl/t3ZfnW9tMtecp0HdsvwPTofkXebcqmK1lHxJZXUwmnZWP+fdq7XAHgcBvAlNvRG7A8bupRe0V7eXMNVh7f/ZescY97KwDmwp6F93kaizbhts1dwJrvzwwrKvfCD9nuTs2/dPx7ILvHuRu3V7gDYB7dujOwOX+SmO+pEqB6M0dfGjzYbjhXLDv6L5/PbegGl9ft5+rKRrCdmasiaj/n0SeuANubTWG5m8nbzlL3Z9y+8Pn9A8nd5zifaSZgbeZYqAFWu3kcK0DlDgBJ5cvNADFFKHAgzTQLgDRTGUxPtQBMt2/qcKL2m+M9pqrAfJN64engKkJKoOCy1/UeiESR8o3bw+D6OlZ4a3Mf801onRvr9hZCDl9t/i+Qjg/lA27D3OzwbKZJwIovo/bGJvgqkHRuYm3FZWie8kgX97/GhYLFG7eXuYzAVMJbx7Pg8UWEq/vj/OlmKFhq3Fu4sgU4XF2szbgMk1tYc6MTvCai9iZn2PD5bLGmchcO56rxpFz80vYjqVBkgsvl/33b/ncORyxuYOZiZmC+gMQ9d8PZt1e2u/ky0KLzd3D5wt1QYPL9tFXo/GnTXuXYkrnpbviAvHk7h47Lzt8/kurHL3cZrZx10D6axvPawrP5FIG3XKfzPOwc7/eRpR9wbjv8CTu79lA9a8X13X5vxb/SIykrky9w0bydh5I+U+3MC6JhFK28gBhPfOFJ8LnB7f2xGfP1g8d7GSHLxvbRf8oNrNkK27WPtprPsWkfcAWhwNw/3i8ViS2tKL/G2QWzGKp4KJNrXS2WibXfGEeLqcVZcr4AJI+rAOTdBGwXUNc3sDZH9VA1fduYzbwlAEv1rJf2S27y1bb95o9D1+bAYvNmngW3fR5s2mu4aJ7uQ9k90nVwY2oUzeDuptLCn7pctQDV8ALFNze7PfP57Gk6db2ZFbbVHEWO/mHfHnPO9W17GDyYhp+oAEvNc6f+YvOkfyEr8pw7OMNwPz//sRTv9MzW1ZYAZG2KkBTNuQksAKY9nW3ezBDxVR5aLAFM1x+qPoCFhq2VZiBkaw5gBdtlmgB7zjnXnrC+09t9ePb7ckp4MG2KVHBflq1YB2tVSthbKoq1/3CJNJZiM2zo+w8lW1kyXDLkV/Fg6rTRwcPKCRQZ49E001/Kfpyhr8we9ScvSXhQUokiBTycDm108aC6tFHH42lQpMkee7cv4gGNHnvHr9HGCA+ItShSGuIBiWWKtNhDP+AN8ICqtJEHHnnHF+p4OGN66N0eyB8so/1YxBJtjPGoio866vdoo4eHVRce82C3TRv9HB7XgDb6nUd8dktdPDCpRRtNEQ9j0qeNBtayUb/yMPE7Zdoo5fDYurRVHOIh1Eu0IUzw6Kr0UHv+pExbNTw8qUhbzQ7+eqM+bRWAjNiirfIYfzfWpp0eA5DJNWmnzfAXExu008jSb3Re4hc7+GuNSi/pJWT2i3vu9GsMf6Vcj7IBP45YpL3WGH+fYbtPe4Us/aFhlV4U/7b6w1qJ9oQujmVqAr2o5If4a3QGfXpRmuC1zKRJB8rVMcNfINct0qGeiLcywwIdKfe69S/dXxwPKnSknEcm3qRFr/Qr1XZ3NJ58MaN8rdBo0mtVEV8Am9SqjUqr0qjWJgx3w2pl+msVJ1+h1KTap1C/HJUoVyf3fDL0l9avjHC2+5caV4hKhXxdAiB18tUSUWV8x/q1Jv11GmPcwLhIVKoelxp98PWnxtExNhuv78rhbti4J9BfpNnOId2VSiEq1cGFxmWqTPBavUj9Ee5omO+V6a/QGtQBhusbl2JLNaifx0VqJNQYYnT71L774WavSV9Zv1gY5XAj3ZRSg8vSlyeIV29SAXc3rI9q7f9Xrfa+gv/X26pWB7X85AbZb1gqT6VO2sm2Nj6FqeNLUC3cR1SqnlZqgDPVhXI9fY7FCPeStU8v1T9RKo+zDE+1rQvlXNb+D2gvtU6V6vfPKzWgAtLVqIcI60zqw6z9Z7VvUxXputQ4p1ROKIk4oUITAPVqiUKV2p3yZ+3PL1Wk8RmlCtTFKRNqRKfbSr1CtUjUnGTtP6H9gGrvKFWEFJYqb0uNkWLYL0k4qUjjCrVGDKFcgYT83dtn7aVyeYiTGjQuvpQSUkvlaYDTRiQcXEV73BcmuKGs/eWlxutSw/eV6lEdp7EmVRn2RtRid26fta/GlZJ8++JSrFxCHIvhSK3KcKBHozu3z9qXym8q2q7G+XxlpZSqUh4JctTDa/rT3ONcDRS8GDIcqlMPt5a1Ty9lrcywkmN43DtMJb271JjaeOUpDM8314vUkaRcum/7rP2YBjgwDcLmxhSA9WRyrj7picMFEnQpj2NG2Ny3wGzX47MlEhSJ3bV91j5PXbxwOTdfxnol0Li3TColIV6NRjjivlzdVZ/zxB+rIty2fdY+vZTBFRySAq6cW6pNYxxSuKdgRzJ5gFhM6A8692yftW+/am/hiJPQnvWFuFJsXG0STXBowZ3jy00tEUesCESN+n3aZ+3ZuNCks9qnl2L5JlG/0RZxQOeehQMBdxBv2K0QFaToOjRZ+9vRbWlXKndJe2CYj0rhRa5IQnXCcEzmBg75fIFE4yb9fH5+/o6s/a2IP8Jf8D/7UuntU0tVcodr//Q6eOOJuzhkcxPJhj+ff/Ffz9+y9rfy4/nXr5/Pv6NS6e2XrpT+fufWLv6kL3QRw3k1xi9T2y/D9Jz//GHfhvpV2iv2jUy3v2Ckt3+PAVWGWMuVhRHiyDzAoSlfINm3Zx76+dO4EQtfQmDcyv8984T2wZv2ur2UkIxVqYC1BtUQy+YawwGXO0gmPf/knN/sAT9jPf9K+AW73MYBtlI5555hI9GwRXUAI2oggcplvLA0biMZ+/b8Mzza05G5DfY96RcsH3XSTa4ZjmtyvkKiMfUAVKiDBDLXdOwZfAGkxv/x4x/KIXMjlf/9+PFdjx2gA+xZJg8shKYzLiNRizrpJ+EWXF3uygbc03FKjWrI3EadGmAMcVTPwo7L3U0wfzlLKdalGtqURyLL5J6jA5B8k3Pu4JQO9ZC5jTZ1kWD1ksbyVIa1gPtySrEONdAgEcmia32rC9MLb533xC83kbmJtFJM9RRs+PwJOgCHzyXmmUhUaqJUQirF8HjIXEmQ3xG/JSBzG6VySiVvZu+GgKkc5l9FZ13nWkopAhVxgmQrtoXQe+IXCZnboAqSyVyTd+31GQ/4bIn09g0CVfB+p+O3+sjchpBaaqrx+ZQBPnewnHHPBiCljfkVAaUSziB7J+L3W8jcRjO9lB5wrrlhb5VhaUyjWmmxys3oCOIMvsdXOHKnaZuZBuWQaumY7stzPGCpaVbqM7I25XFefOfk85DMDby3lLR7bcdPfW2nRt3oFYOzSEjGmoKIzG10qIj30OfcM9xA5Z58qlSRJriWPFWRuY33l2KyyTnXguXJUmOqMFyHWBI6yNzEeaWspc7eU6pHA1wFa1AbmdvpUeFqpTbNxSbVcAWsml3957auWKrIEOmUaMCucQGoyhCZ24lKFaSrlBIPrlFVmeBDWL5EjSz9rV2pVFHEntgjKuZFXKpTa5LQZsjcmlhdl8pdtdS4SESlSuMSlT6RUO0gcw+TxgdKleNLddqNEl1EaPW6IjI3crNS/x90BjfV+jCBXwAAAABJRU5ErkJggg==;" vertex="1" parent="1">
          <mxGeometry x="37.230000000000004" y="150" width="346.38" height="220" as="geometry" />
        </mxCell>
        <mxCell id="9KokqQTZdwICB4fAT89v-13" style="rounded=0;orthogonalLoop=1;jettySize=auto;html=1;dashed=1;strokeColor=#990000;" edge="1" parent="1" source="9KokqQTZdwICB4fAT89v-12" target="9KokqQTZdwICB4fAT89v-10">
          <mxGeometry relative="1" as="geometry" />
        </mxCell>
        <mxCell id="9KokqQTZdwICB4fAT89v-12" value="" style="shape=image;imageAspect=0;aspect=fixed;verticalLabelPosition=bottom;verticalAlign=top;image=data:image/png,iVBORw0KGgoAAAANSUhEUgAABLAAAALnCAMAAACupE6IAAAAwFBMVEVHcEz/mxb2mBn4mRn3mRn4mhj3mRj4mRj3mRj4mRn3mRn3mRn4mRn3mRn3mRn3mRn4mRn3mRn3mRj2mhn3mRn3mRn3mRn3mRn3mRn/kRP4mRn3mRn5qkL6uWX7yIf81KH82Kn95cT937f5sVL+7NT/9uv//Pj///7/////////////+/b3mx3/8N///vv//v3/8uL4oi74pzr7z5X6vW37xYD/////+fH4nyf//fr6t1/+69L5sFD4nCD80pv6u2mbcRDKAAAAQHRSTlMACBokPEdSa3iEk6Cqs7zF0F8vENv2//zkA+/q3MLAub/AwNW+zNzw//772P7E4+rK7ObDzMj20vTg0cXh+srYTiosRgAANMJJREFUeAHs3QV680wPAEDZYSZbGyf3P+fP8PELTdpsPFM4gp6VLAgAAAAAAAAAAAAAAAAAAKrQtJPpbL5YrlbrzXa33x+O/7Xf73fb7XazXi1P89n03F4C4PO15/litd4duj5/p2T5z79/KaXkP5TM7K+H3Xq1mE8nTTwZQDs9rTb7rs+Puh42q9O0HeLRAJrzabU99vlgfbdbL6aXeASA4Xxa7bp8qut+ffpI2AJopovNsc9PUPIfuu1S1AJ+wuS0PvSZWfJzdZvFtInvA3CZrfa3/ELlsJ5f4tsAwarPV9CtT238MYBmtjqWfCXHP3hpAUwW21u+oHJcTYf4D4Bmtr7mC7tvF20EQLvY9fnyymF5DmDUJotDVqNbTwMYqfPqmJW5rhW0YITOqy5LvjoxC2gXh6zYdX0OYBQup33J2h0WlwDe3Xnd51so+1MTwPuaLLt8I7d3TQ2BYbYt+W6OiyaAd9Muu3xDxTML3s50W/Jtlf18COA9NKdjvrnr8hL1A9rlNUegX0+ibsB50+dIlO006gVMdzkqx9MQVQLmhxydrsJuUmA4HXOUrpV1ZgHDvMuxKkIWCFcVuS+bqAEwnLqsgcQQmB3zH7guhgBe2vSQ/0bp5gG8rvM+f4HDNIDX1K5L8mv7cwCv57Lq83comzaA1zKc7vlHKP2qCeCFTI/5p+hmAbyKdpM1UMoChsUt+YayvgTw5WZd8m3leopagGyQwySAL3S65XfD90L4QudD/hCO0wC+QrMqWQPFd2Da5U/gOg/gczXrkj+Fsr0EUMnzivs8gM/SrPMDKPlZlSzgfMwPopvG8wHDss+PY93EkwGTQ/IQx3M8FXDqkwfpl/E8wGWTPNC+jecAhnOXPNR9Fk8BLPrkwcpqCODhLrusgrQQkA5KC0E6iLQQHqrZ5BOxuwTwIJNjPhXdOYCHmN3yyejnATzAsuTzUU8hC5Sv2F8CUL4aRSELmN6TT3ObxU8D5n3yicoigFrK7ayHACopt7Nt4ocBl0PyBY5t/CBg0iVf4nqOHwKcr8kXuU0DePA0DuZ0wKkJyim+E7AoyddaxncBlsmXW8d3ANb5AtgMAXzDsMmXwK6JvwQ023wR7Jv4C0Czy5fB4RJAHfGK8ucRC2j2iTcWiFeIWPAi8QoRC9SvOF4CePD7Cm8s8L7i0MQvAMMuq6DnHRi2+cLYDgGYd65tEhpYJXVsmwEW+fJYxT8Ap3x9lGUAMStZA+x5h+HcZxXoZzFyMLlnJbidY8xguHRZDa5tjBg0h3wCDEKDgRz2Q1QCNLiziZcGGkZxEhqmfdaHeYwQTG5ZIfpzjA7U2tBAdwnwgRAbSMFGGeyagdFuaGARIwLnPitGmcZoQHvNqnFvYyRg2GflOAzx40DBHSuTwYpRdLxDe883wG0Sbw+GQ74Fjk28BrBSBv2jMEvc0QEFLD5Z6SdRCdCBxXGI9wXLfCeUVbwtmJbEUGEVoOmyDtjmB5vEGR3Q0YDeBnikyz3fELc23g9s8y2xjy8CliJjYTK0t3xTaHj/GkgIkRTCMM/vhy+F4AshvhSChJBdvA2YZx2QFMLlmjhUCLYiY6YQHulc8v0xjc8DzuRg+ygschRYRiXATA59G5UAW/vYRuVgmqPBLCoBKu50TYCKO+ruYOgZdXfQ467f/TEuk+lpsVxttvv98R+67ng87PfbzXq5mM/ObcADTUqOCuUcD9Gc54v1ruvzF8q//kr+Qt/tN8vT9BLwALv8QVg+2s6X22PJ71UyS3a71fw8xKdBSwNaGy7TxabLn1WO63kb8LOOOTp0Q/yUZrY6lPywbnNq43lw2AtHv87LQ8mHOa5nTfwYaK45Qtwv8UOa+fqaj9bvFm18C+gZZfVD0Wrb53OUvZiFntGH0T06zDa3zJJPU/aLS3wPWOY4UdbxPSaraz5fv50P8S1wueWfwROrOR0yS36KbtnGX4JhlaPF+puPq1t+prKbxl+Ats/Rop/EX5jtSn6646mJH4KpZ8xAD/Njfo3r8hK/Ax5YlMmfla66/Dr96hLggcV3PbGGU5dfq1+38WvggUU5v164+pfbN19Z+ESIJ9a8y9dwWzbxC3Dpc+QobfzSeZ8lX0U3j/+DVf4CerHaTcmXcpjGH8AUIdrdh2WfL2fbxr/AIqGs4t+mx3xFt8UQEDFcM+F2+Xc2mK/qcA6IU2ZCWUbE/J6vq6yb+Cdscodr027ztXXTGDlm+S+wueer61dDjBr7rAccJjFeDJOsCfSLqAXGnmF3iUpgKge6c+D0BEgL0TQKD1Y2TVQCPQ1wbGN02GWd4HqOkaEtWSno51EJLMKCsooxoblnxWAzxHgwz5pB2TVRCYwRwv4SKLmD9gZ0ucNjla6NUaDL+sG1jRFgmu8ArpN4f2zyLcAIskKaPv8YiFg4lgMq75h7huMlKoFVo7BvohK4Tw/bId4Xh3wrsIpaYCwHFvGmGBb5ZqDMoxLICKE/RyWQEUJ3iUrgGyHsh6gDVvdBWcf74VLyLcEpKoE5QrhN4t2wzTcFxybeC80t3xWs470wy/cF83grrPN9wa2NSuD6BOzjjXDOVwDGoHGPEPpJVA5t7kgKcS4HJIVoagBJIat8e7CL98Ax3x/MohLY1ABdE/VjmOdbA1d0zOWAujtKWKDujhIWTKN2zHMk4BAoYYHNWChhwWOVboiq0ZSsArihwzDN8YBrE9iFBbY24MAXPNZ1iIpxzSqAKhZDmx8BPhSibRT0YmF5HxyjWuyzEmCikHuODGyjUrQ5NlDaQM0drB5Fnzs81r2JGjFsc3SgnKJKdPm6wOF67JaBSVSIc44RLKNCnHKMoIvnwWAO6HZnl6ME66gEPhLCfYjaMJQcJ5hFbZhkJUBOyCxhpK5RGxYJY3WOOuBKPVjZoKsBbEpGVwOYJ6TPBwEHCrEfGax2x64GuMeDYaE7aGxAGxYsoiIMq4QR20VN2CaM2C1qwiEfC3RioW8UdGJxSxixso560CSM2iEqgfV90A9RDaYJWkfR6A6q7oz0iipY4scyHwgsbMDZZ3CxHhvdoZQhasEm6wCGc3CCAuZRCcw+wzJqwTErAaYJuWYlQF8D96wDGH/GVUK4Ri0oCSOnEcs6rHpAG3XgkpUAC2ZoE0ZvGlg4ClrdGWfAAiv8OCeM3iIQsMAwIQIWWJIsYMFI7aeTIajkyhdQroftejGfXoJaAhZw368XFYUtKSFw3a9P56iFPizgtl/NL1EFozlAyXJcnyZRC8PPQLeeNcELGBL4tnJYnuPLccvvAlw38yao5AgF0O9OTVDJmS/g5p31Vc7LQwI/qN9+eszivOrypwC39Tn4NNP1NUv+NOCgnPU52sUxgY+6rafxXAzzXcmHAI6LSzwNk9U9Hwe4rdp4Cs6bko8FlO00Ho1hfshnAA7zeCQuy2s+C3D0zfBxLstbPhNwXTTBeMIVCFlcFvcEPsN1MQQf0CzvCXyOkt1piJ/F3Lwg/J29M2FMW2mWNtn35SShFTsySICgRwgBAsRu//9f9d17z/au+TLqmZJA7ufdl2MsxzTdVTU99fJNHUMhzy8kyKAo3e/h3V2v34+ieBDHgziKon6vdzcMvwctDDkIclnK0/ekKE3zY9jrj5LxhI1h87+kf2F+J+XJNBkNenftit28q5h+V5686VKDKEr27S6ajVM2/wf/nD//9zyJe2FALaH7pophqLxQ8apBlCDsjcaGjTFsj0nNfNEfdltiGF6D+q7ToKLc3sVjNoYFmP9lPustqQUEn+2kLOW3W7oyipWENTmykb+UiHBlT4/kSB5x46ta9Wa/61UOGFMm/WUrpKxf755RvlyhNxixhJwcmbEtW/JBzPakXfJBznaYhDzQvRtN2LAzxphydhe0YS7s/H9Rbl536frYsoiitjo5IR8kXIEheWBn2JIBOfOtbz0JWmB4329B6vnDs87PUZ59pCtkl7KIFblxENVGOTlXoEdiBE9oNs4y+6hkvxieD0L1C1W9ujg2LGNWW//Ba0C7A295iFZsS0hO3M1SBpCWgyVdOz8R35WnH+g6ObKMOTmyZ1sicucgrcZy4lp+lMFwlDIEY8w82tF1EwRv/0uTpby82ol/zkJOtanuI7/tjgX7WlWzhOSEo5QN4xjfXX/C4UvnX1GevKVrZchSotpU963fdseCdFenSTggKbf9OYMxoyVdOd3X/xIjVZ5+oqslYikJubGu1SZMuBLDOlWzjVi8mrJhOPmBrp1Pahf+Ey9u6XpJWEp5JieWtdqEc+aabcIDWnP/EaVcB6YcBHTldF91lD+4eUNXzC5lMQdADUHZhEuuRlyjajYPSMJQ2F4JMLPd9Wey8DscdBxsMtSA9/4XbEsEaHfg2fMYOlsH/ZJrw5hpQdfOjxcdpfP8O101R5azJTcGbMvRb7tjQU7OJMjCfztiY7g+TD6kayd4c6MXpHapQaBOFt5K29RnE2YxV2RJruQ4vSwoEq6b+ZCuno9PVb66bkK2ACUtFWxLGdR+YPKANwnlmvtwz/UzaUHF+vGoc+9fP9C1E7ELcW2qe1F7PLZfm2o2Cagid3NuADMPScfCK+bZZ7p6EnZhWturrwEmIThdv4Jp7ncTboZ9QToWXi3Pb+nq2ZXsxBLgo0FswgM+Fit9OBNTJbK7kpti26Xr5/vjPKkDkNvrZ8NubOp6+Rmg3QGf7U5AmjuuXlkwohbQfYyL/V4F1AJG7MaxLsl/Wv+DFnWZhCFgHkRhVtQG3nQeG2+oFeTsRk5OBJO6bMJt7RbozkA09zDnRilDagMfvj6uOMM7agUhu1LUVUdCcmLCVTERXDUTiGXLKTeL2Z6pDXx+9piWyXygdhCxKyuAMA1Qy4r65ZoVIhvSXXDjRHRdaCLr6ydqCQm7MqtLC48Am2yg6foYoLkHETeOKQsild61XjUZapAzqWt74AzQSkJlswQw7N6lfAHM6HpQ6f3m62dqC2t2xpzIhXNZj014ZAEhxM+Qa+7BMueL4EAt4e1Np/U8/UytIW5e0ZiyJem59qsXN7WYhAkgmwFmS23hw5PW16tv1B727E5S13abEGASAm3Cg3fNPbtjKfNFfP9wOhVFcTo9PNwPjsmcHTBragufvmq9am+oAbAneVVLv1PUr9WsvGvuP3KWkMcPu9/rXZbRP7F7GGyNtlj07anWq2shugBB41DLetN1/Ue7Y9+dYxBLWqtB8ZN2LSPKdptFeiUqlp4s1HpFCftgUNNK+RmwNAOax8S35h6WXJXpA1FGPyfLaDmYs4AFtYfb1gay/vQHNdTgczwYsyVjgFIGlM1yzxpgMBOUq1+T0fleIPClBbWH7gvNX7U01ADYkzyrwyacsogewCSUau53hitR3pMl2fJo2hd314r1pGX1KovZD+uahLSQpAQlSzCDGhKxPcz8vi2oAg9zwan3FtF92cJ69ZFaxp79ENekum8AJiFMNlt5LsN3XIljRpVYClbet4mgdRXr5j39joYa/Jppwc7A1f1szTLGJCb2q7kHC66AuaeqnBeCj6kWEbTtYOFbag32PUCyYQvMklzY452pqH55LvGruYcGW6+IskWLZkKtWK+pdSQWyurSCGY1kOpu9g4vIWQINwljsiEYoeqVXCULqWW0qWL9Rq3jXNroFHv8nuQI3+9MWUgPYBJKXmFZ1hCM2+1r2YSGRyvWi4Bah4WuU+7oiJ8O1vB+JyhZhonhJmFINvTZnm1GQk5lK7Kjqrx/uaX2EVvpKyv8nuQlvN8JWcoCbRKWge9lE/NdTQcCJhldJJrHevqdWsjearYoapgO5mhjasNScrBJaLZkQRCaenbiZFNBsKFNdJ+3IYD1mVpIYZkIneNXUC7Q/c6ApZgl2CSMfXc+SX3XzUbUPm5bcBL6PbWQbGUhci9tq8mEXBiwJfu6TUI2B7BJ2CMLsm1tZ/wSQay2Vfz4ohcQ4sG0NVv7D/dTLdc/m530fLWYFdgkDD2HsI413ug/pjby49l1B9xfUis5l5bjyhA+HQQF2CY8lywmhpqExm6BTR+5YV8u76dnujR0o9+XLrWSta18m5V45WSC7XfC+hdAr7yu5lkIvl0pK0GstmV8fqIG4cURW0pYRFv8nuQE2+9sWM6cRMQ+H6g7YVseyJVlKpiX20Xw4eZqB8JP1FLG1meaB3iLO8Y2EIP6r+JPfGruh1qjUQvBvNw23uqJ5wujsL+pfY3fk9zDxqJm9d8Pk3scqoJILrljZ8IZtZXXnavkJbWVlf2n/87A9ySHWJtwzA70kSZhefZbcB/InfBa787RY4XPbqktCPp+U9AfjOF7koMSGa4+p+zACHmScOu1XeMyIw/kSIFPI++acBdwnlRIaR7xe5K3SJl3WP8VGyufIlBRc8dzZFvSjFrL7bOrE9zfUWs5VGktNnABNouRMu+GXZgEQBeh53c5clz3bZUFtZbg29fOdfGK2ktc5c1U4Pckr5A24YCdCIEm4dBvbHRT92VKQ2oxmHCDJkZRMnRYUdRYkpwhUjVZMNdtE+Y+NfdRvQ1PULRyX4OANypgXQiFqZQgmKE+3gW6+LL2y4EinEm49SvwpeSHibylaxcvNYF1GayqZWzu8RmgKVtyqNkkZHPENYwjv+vC9rj+W+CBtIDul+vZiUxtZlEtf3TC36JyxL1FhvVfYrby+TDdVC7woVfMRNRurkZ4f/qDWsx5Uk1PzSZwBWWFM8J67EbZha0bHZIFITznLg+qDqjlfLwS4f0jtZmDjbodVP7IXdWxhilxrx54mzDxWQoPtZePGPaKKrxrokFAXHUb8QB+smyXwmzCBbthNiiTcCvvEJHlIxjo6ee/CV5cw5GcLrWaaVV14gG/KmAMswlzdmSAMglHomkZryhpwfonfjzVnTJXEGrgYXWjzZzq0E0O8uohw8xQ60ZXZEEQ1e3ZBZHcQW0hn270VvpmWVWPNE7hn/AR6l05ZFfGKAdhKO93oKmoPkDmR6Ey1k3rBkJBM2MSiQyb1HEeZOS5eoxK74soYp85dxppwXrEMpYOhBRMqjdLG0bvSV4atmPruXoUU+8n5hL5kzgVrJUWrNbJWDoQ0kGgFC0x+pJEG5/4rR5zmnm/IT/32isetWC1II2lDiHUAyp3ovfgoI5V4oXX6pFYqGcDjMy/8h3jjLRggXitkdGLDjWYrexjfluHl772Wj3iX6tnZoExCYf43LkWrLYfKvyN2odALBrIjK90V4PqHnkdgPsW6772EJMw7coLFrZ8rBe23FOj6FWFX39Q21mJdkCdAN2PcBHw0evjHiy2qZglwCQ0U+8n+xJ6ZGi24R21npmsU5rAk89ziE0Y/zo4v/VsJiR+8xkjWGDMHiW4yEspntP/oaGGrVQTn9aw1GTi8auauY0+Z1YIk3DlvWCVGSmt2TRjv2VUQw2xNIluljWo7oXHvi2xerQYYRIO/W+bCAmG8lYjWE0wEO4nOMDD1huETbi0KEVrm9y/PUO/mnsw4IvYWKxcXOD9aZfaz1TYJ2Ul2qgq5DahvKFcWb3wHGASTgGX/sSEQ/n+VRX3yww1TOVXIeQ13H1w9Fc9zIHIt00Yez4T2RdscwagBG9Vca+dlfi9FMNvmtoCbMLYohJ5tgkTtqKPWPFcEA4luKz46Cd6BMzE9xGv4efZYoAZtrVpCEfy6iI3CYeCqbbZW2yUzzeaca+XYC7+nN4Z9J7knryPkJuEdm3nyN0kFB8KCNmehJAory4o4/6dHgFDh+vtxuA9yVkotwmFJqGJ7XoYs/VuEk4rPIM9JiQgSvdZ51J4Q4+BgYMcfGQrTiQlKL3bhAer4XfpM6y68r6HsORL8QmVDxppACPQtXtOOakIr7rPyJJsZSckzfkXmMK3EtfHXLU/3xES5aXeTF8jy9QhL13AZZSRzL2Xf0WzszX21r5NwgPonrIBPQI0jPUsoMfAxilKNUfvSV6xHWXgqWfb23ZFJiJbcu+LeAZsjymXpLR/bcN7ehTMnAauBXpP8tD7mbmJ3W2xcptQahJOYXftjwiJ0n3aaZybL0QaaviVuhLco4eScyo+MyeaYs3AOuq09Vx0j7CLysyakCjvdS9yXQzd2pcTo/ckTz3bhGtLe2FnZFOofKzt466CzXeERGl+M9YL+hsNNcwD+glZid6TfPRsE0a2afPc2xQaA+bmPfimagWfd9dDOajYwMLZAFvDVfepfQG0K62Jtyk0ART1EVfCRIRE+U0brDpDDfLf9gE6vHhgO9KzV5OQaOCtCOSAtQo9rka6IeXqow3aYG1cD+U+iPofhFoTejUJbVq7mdcnOEo2hdlTrgmI8kYbLAwChWhypp+yS9mKJUnZsx0bryYh0dBXFR5ChrZcK1Zbog1qEdozdw6qT9Gbemdsx8CjSWhRiu03Gq8gWbUjV6XsEQ7lre7twzN0Twwc0Rd6Rl5twsh++t172l8VQ4zUDVcmHQTUPLq1QRsscDE4eHjj5PDrn8e+TEL7FH+PbEggFwjuSq7OqEsolHfaYF1GqKHc+VjNVJCQpVebcGpdNixswgHZkGOSUjMWMB0SCCV4pqcIgdgr5gnkjlB7coFNKA26zir1jguPJmFfYPAKKPsBYVDe6ZoGMBsfavaMwXuSF/5swqCweFbrbadmTxYMQefDzxOWYBYhQVCCL7oHC8vRR0r9nsF7kgdym1BuElqduzY7byah2Un/9ARN1pmU9uwe/dol0k0N9vbVia0wJ/T1zwtPJqH9xnoz9GYSjgX77g3LMNM7QqB8af5yeg01bD1ddhqhr3/e2ynV9smqmRebMIFNzAmLSYaktEPFevKdNNRQ6Rhggt6TPPdnE06rZNcHXo5I5rDDyWsWY9JRSADUKNS7CHEkfrTsiMF7khO2Y+h8Cc+s4iyaeDMJD/JdYULSmZasNsTdP5OGGv4Zs6Rf8MB2HMDXP1sMaGGlYFXoIw47BC4MW7EDxqSzIdWNnijU0ChWzJ5622I8QKvusfNX2lS9FHHpqaiMSUI2ZSeM2fa6pFzz0oZ3pKGGqhcYbMF7kkOBTShLSIQVRy5z8NQezgDLwiwwxuz7S/KG8uOrZhpQ5J7mLIoZvCd54ssmnFWT2WYe8ukJ1EJdsDvl7C4gTyivO3Vy84oeC1no6wxgtmbwnuQtewpfjquNv5GH/jOHXmtTpOyDab8gLyjf693u/o001FA53LQz4D3JsSeb8GxpEtrnBhI/PxuzRB0DsG+zerfkAeWlbhptMtQw8rgUdIq+iGLlKIZFlSOrcz8m4Z6kZFv2xWTkYTRUPuqeBmsA+5R6Hk+1mSX4+ufYl0loL54VXmrtjMQUE/ZHHoekOPJMJXcEG49XO6wYuyc5KNmKxK9JSLR1Fp9imeYOaD8tXUOVs1x5qyl3BCOPi0ILtuMIVt1zR5MwqN469r0M3mtyYME+MSpnOXL7RC/3ApD7nFXm4D3JI7lNaG8SmimRd5swt52V5eym7BdjrkLO0ktVn9HjIWQrVn4/5Avw2HNwiuTPBMeLtz5Mwj05sczZP+PBkEQonzs18YY01CC7nfSe7ViBVfeV01eJBPvkJ4GHb3xGbpxK9k+abvvfSYDyXENYDYUa5gFZcfJ6FZf8uGLs5DOsJbNu6KE1jMiRdcoAjClngrOGyruGzj1rqGFBdmQleE/ylK1I3ExCQV03Gw8m4Zpc2aQMITWT0SEgD6jsrrvc8aGGyLONxyfoQW2euyhtZSBR+yP3RtYsCV+xHJj2Q1IuLu1+85gG9pitGPo+IRKBr39eOgTyt5KRzszcTcI9eeChZBxpgh4N9TYKnQjdD9NMzmTJA9uREHaPysFBCBuJXnfqbhLO6OIrFpu5fQheCb7qROiV0Hd52RnAnmTB1195NQmJlm5PNBS0nVKCU85AjEkXtuEs5ZVOhF6JvA9wY/Ce5L27TdgTSN+ONuFKoLnL2W0ZiuFp/5YsUD7pROiVxHt1OTJ2T/KMrUjkup0pZD+pnqtUaJbkifOR0cyjJSmXcAL6rYYaXOa3DWP3JEfuNuFCEgGNnUpwIjuwJOe+ZDBmrl3WRex2f0wT4dq7Qp4tGbsnee1uE+aSUrpyksxzoeYu5zRlOPOo8ZKlx3O+kIYanMa3OXZP8pLtOIh1+5FQNh+7WgUR+SSLDaMxeS8gpdGZ8LWGGtxqy4LtiKHbJXglNwmFNSfdOZqEa/LLw5zhmO2Q6kF9Qt0sUyCmt3u2Y4rd+jQSO3ZraaEcOpqES/LMLk4ZjUlHBTWGbkr+GtCjIVsh9PETW7KE3rawlZuE0kLZcxu9c/LPact45itSmsqOvtRQg+vwNsHuSd6wFRPpU0/ERSd2+0EvCMGmjrkwKUgBr/HTC5/pXLINZgMpg3yEzrFcyEQwsxXGTdks3HS3iBBkuxifcDDzHv0E5X0HyQ8NNbjmGQeM3ZM8ZyvWUpNQLJznbibhmkAsjymDMTz6idCpdJE7ZjTU4K6OP7AlBXSQjYTHp/vi3YFm6WQSLglGgS9ZPA1J+a+86OB4paGG/yAGbQXlFbTOHqUmofzHdXAxCXNCcloYBjM/kAILu+sFqlSgxPEp2zGDqu5bYb1bik8xmpVLiV0QlgKuZaV9UmBhd5WwVqjJLWbonuTQzSZMpIcQB+JeNAFo7gJ2gwljiQNSMMEGlbCyBVuxR7VAbE4kIZiwFYVIs08cHitxMQnXBCYjOt+PGYkZBaRAFiWrhHUuUemDHVsSQa9/XovOIo4cOru5i0lYUC2cjiUDAVUsvbNeJaw1ThrP2Y4EqrpHIpNw5VDhTSE3CXOqi919zjhmZ6oNFbH0+gnxFaqSJX7lGSm+HUV/8cHFTFjLv98F1cjDccKu2LeoytMOhqf0iBjj4p33DN2TPHSwCTOxSWiz7LQv/mgwA6qVAFezIvKOilh6kLAAZg8KtmSAVN/KTCCAzZ2WnY7kJuGa6iZ7wMhZpkf1oCLWGw01+El3TrB7kqdsRSE3CYU24VYu6RVUO1m22yxS9k55oH9GCVBXUXygx8MCJ2ERLbB7kkdsxVpgEsZOjeMkkJqEOTVCRrv7rWHPzJf0zyjdG42NOnKesBXzAHk/M6+R3WHk1SQkCmQ24VCuuePJiGh5v/W9bob+GSX40kHwTEMNnt5IJ7YkRqruM78modQmXDmrefiiVdzv2Scr8onuxFLNPUZaPtm5ZDvGJGGXitdMjCwWLsjjGiaS/qjX1CgZZcUgZ1+YMiSPqOqu909M2Y4hNIzOZgn87sug8jeWO066R6lJWFDTZESn45w9sQ3IG3oBtObcC8NWTALo4nXmDfL657Cyf5m4zdFmKjQJ53QZZKfjRIfCa1HdP2uoQX54RrjE74i8/nlT2eiLHfNlZVdmEi7oYsj8RErnO1L+AUJ1v+lqqMFTajnbGeie5IP0u1/bbbSS58tCmUMwoMsh81Gz8NF9zbo/01CDhWlmyRi6J3lnhDZh5CbZbQVN3Qo3GQPJ1q6R0rIg5W9eq0nowsH+dLKQI1br2AtsQotvy+wcE6smkp0kLOjy2A3mbIHFtK8E79QkdGGAOTojWOLHM6Dqnp4rtkh7a+nP/nESmOaOHw0344ttsdQmvHmroQZv0kpWMHRPciS0CSdO2nd2EATLcqDmjk86PExZzID+RAl+6ElC11ADOM44Z0tOwKD+Rm4SitaVMqddidw2oMtlk6tR6AHAXvdvGmqwOJtsywK6PmnJVgwq1rmeexkeCkxCs6HLJcsG5SVmsTTX0KXHwkwsYQGW+CXABm7maBIKBKme5MOhoIum2LKIKSmw04Q3XzXUYD8heTz/XJ5xDdzY0SQUWH4DgUk4p0vnPmUJIf2BEvjPNXzRUIPPdFBWQvckD0Q24dT1RrNVZf08QTSZ9XPaq+zuxBt4DEtDDWZJDiRsyQAYmwgrFdGFfa23Lnp5O97X2W7LlTF7+hPFfxDrNw01eJUgBoxUygpJj1jIC4e152duq5uEG7oCzkeuzpD+QPmouVEpS8N2JGsHDgOGepHz6t1b5mAS2jdMh+omYUHXQBZf0kyodxO+0VBDQ6xxE+fCr0lIlFT08ldXrblbeBZ23bPiPzn6TkMNDRHjVqbuqzx52vXwsiau/G0m1/qrY989K8GNBt1lBBO+MMYkYCOwCafu38eqYvlJWjU3ZVtZ96wAbn/+pKEGADA3MrRXfW1NwpmX+y/yyibhhq6G5VwoYinPdN8oyL0DAHjHBiXb0KtQ4wZ+NnEtq5qEIV0Ph/RCRCw9m/NNQw1NccTdcxFXmCI3XjZxmUNFk3Byfdct2VNmpGAK1ncNNTRFjnvnLCr0lkM/Z4L6FU3ChK6Jc86VKOh3lOdasESs+AIpYA+yr2ASnv1M1KOKVXVAV8VapLorLzqeudVQQ2OsYNc/m531nvmxJ3cyqWgSbui62HIVIpKjBUu3ywRzrh/Ixk3L26WH1n/BzFOdnFQ0CcNW28xHUjD35gT0GBjyJTLJYO7ByqtJSHROKwy4O1O/5o5nqzbhJSzE0lBDc5gT7KBIbDvMmY2nC8zMutLHQ0LNA1Sx5qRowZKz5YskgqnuiXWtDn2JgP1K32JM10aQsz0mI0ULVntCDfI241AxMjGTbz6V2oSxXHNvTZu+JEULlpQN1w9qT/IurWYTjv1s/9pUkG2Sdq4RDo2uxNKC1YZQg5wD7Dr8g6VaPvN2iLEMKpiEk6DlpyXWpIALloYa6mcAq74ry0IT+TvEGFYwCROSMhzZ0m9yJlyRAi5YGmqony3s+ufY+iShJVPrawaHUM29B4i5WbLW5KgWrDaEGuSkO5TqnkhNQnljF1UwCXvXWLDOpRYsLVitDjUApI5gZ6oEgRa2wpNzY2dmFUzC8BoLFm11I5YWLDzLlJsBNBrlVXz1vcAkFM5DU3uTcBJcZcGK5X+weLRgaagBzximuh9sTEIzI0uCgn9F2rUuqAldZcFaacHSglXrrSet2JMcVbCphv6klold9sjKJIyvs2AN9fSzFiw8c24KSOI7W1f4iO/509C2lkr6EKq506bBgrXTgqUFq42hBuwekmUFmzD2J34fLYXmFTbnvgYcfLJmogVLCxaYLOJLJke1jHMLk9CUgc9JdGZVI90092Dd5IqXqRYsLVgtDzUA9iQn9jZh7u89vbZczJxgS8mhyYKVaMHSgoUl2KV80axQQdiDhQB+JHsKyxhsLtDcIQVrSt4ZqUuoBQvMhi+bBeqRVnKTUG4T2pmEvVokyTF5J9aCpQULzJEvGlN9T3JQsA0jCwF8TeTbJhxiNfcgbHDrZzDQpHvTBSvQUEPDnEBm1daiIyj8zkOxnUlYBiSnYFvSrMFTqfekQApWV0MNDROBtN/Jr/+PE785b5NYTU1mSw50TXNbP4Oo6fUyemvOD2o3EV86CUpKWQpNQrncndsV07imlvlEvulDAsFasPTmZ4ERPd14ZAXdk9xjG9a/FMBHngOrZmllEvbIhTHbsm6wYD2QArlI9Ru1ml3akEy6R+5JDi1nzYPfaXRu8Sg7g97nvm1wLIsqdnfK845nPmuo4U8OAHMSVCmDki04Ck1CebdqVjSUau6ABf2DBl3CHSn/x5eOZz5pqOEPJmfySY+t2YK6jK3UJJRLZzGt4An00TUsxCpJwRSsj9Rq8qZ+uwvknuQsZgsmcpNQug4qsXlLx3WNZXvyTDareERUedbxzAdqMyEgXeBfxFqDNskVc7+tzsEiq5kINHfUlJ+eyTPTil2z8rTjl5t3Gmr4g2FzCfsYlC6bsz+T0HI1X5HDf9LD5v5Mg0nFs8/Kk45n3mioAXOOY4Pck3xOoZFV+YC9NYgYh33ZxHbNRUW9X/nR8c1rajG7km2ZkWcK6J7kKbtj1lSRBXtgW5suaRbklaBXMTeqfO745jcNNYAyO3vknuQje2DZyAWPcX1t8yRDmIT2MSzlY8c3z6nFjNiaoskXPwJUd8QUvGIPrGr8wYbkk2BbUe5X3nV880xDDRAHnGiD3JN8YHcSpN4NVMJXTVm/y7SiKqm86fjmq4YaLAwzCYUB9nc+9qjGCK1foLkDy+YUIWHZK6LKq453bjXUABJJx8gxadzIbLZnZ7aocAF+JlzoNizksgY9/ZxgfDqA1rIAnKhDHJ5csDMx5s8VHy8IliVbYh5IsTj7LI26a6hhivEogXZWhDEJ8Tbhqs69nzwOYA27xdirfO14542GGkBXBiwN22JOgPtEAVHZDV5zl19NCN6JFeyRY6/mRjWINUL9WgN0pghQDQEXI4dgzV3+7Pja0cMNohrDsufmC2moId1hKiayeuQIMQlvE27rvYCZzYH80J2yrhutytuOf75qqAHVwm+QjccCISbhzckRPnGOWRvUByiSmmrQre4SjdQMCMLSAC27gbtJKGAGLpMAAW9DHshuc2iNVJNQbcIE994F9COD2lX3JdigA258OU/Ynv2OPBADSqRuwxLx9tGHGiZnwhADp9KC3chxUy7e8J8x1yuB3xlGKqJqEqpNuL6AFn6D/C2fu5qEEkKA5o6um+mBXFnm0J+smoR6/DmLgZkChIi1Bo68/qJnQXkBmjsFlWZCzgtyo7sAi2Z69Fkvf97jdBV7psACMmhE/Z5CXhW8Dyw5kxMxeOrVW1RVdQ8BkW9omzcGjEWAKn2EvCp6vc4oIDlBn6twJKXywRzdkhwxchcIoKiYZa1yktkhf674xXbj+ipW33AVTqRU3o+sS0cT4Jhiz9IApY8J1iQEpCnMFPyBBKhYWV9sK+i6UQxPutQ6ziVgex5W8jlCrn/27YwWCM1dnlqxZ7YkCbsRM6vkLuK3DohPjzrUsCcgMbDniRtZSzXBa+6Ypx9L9LNwy9XIM1Iq3/qs0dEY9KmPVMaLOq+E6JGQLUJzFxCmXJGy3628FHnOFbknezQ2KuTFow41bAjI0uDaj7CR0nGEae74Y43TO6pAEM6YtcES875ji4pYIcCdg4tYixpDnGYHVrvxi13DlCtjRkOypRiUzNpg1SFhaRJrhX4TAWZTM8nqm872eHUQHlGasYB0cReQBWEsEevGGSl/EjztwHhFLWOBUZ8FbIAJnpGzSShgidHcBRQlCzBmGg1/UbNue7OSJTzQXyifOjiePeJQw5owCESsqD7VfUBi5njhDGuTmtSMB3fffqpc9UZzNu4fA3qQEMjnxxpqwO8CmeKO+Q8BJiFgEIVd4L6bsxBjDI9H/d5d2KV/8GN41x+NOTUsoyzob5QvHRw3bx5rqMFsCUyMOzZ7TpvodWKY5l73di7zv5T77TZZzGbJdpqnbIxFsbJR3JUfNx0L9HQOcNMn/k11cO/e8H3liqUc8VqlBPMXgF1fei4Hw80ttYhCUCNgLFNc9TyykDHJOQA0d7zujkcHQvEl9QLePdJQw+RMaKa4z+gIaBICbMIh4o8ajCyArHSfdGzRsPvionydGDepHXAmIcAmhPgbM0Yin3d1IsRy851aw3kiSBLg2OAuVt+ZJrqBBKa5C9jlfBFsM1JEy0b1APRaMKUA2aW4FOueZYT4lrGmHiQ4lXwB5DtS5B6hgC+PclPDnGpgihPDZ00EolZAzV3AxnDjTE6kyO+oF/HtMYYaZlQDMe4kdgQzCQF51QNhGHDTlFqv/pXgeQfO68cYalhd2oi6cf/S8Dq9M3jNHTajIigfSPkXvnWs0fOEK+DOPAnBLoXpPEupSehEjtTcBWQzrVdXe45QFyUvcEtW8CJWXkvt2DSRLz8SjPOCm2Oi9erfCZ51auDl4ws1jC7OBeCijtoRNiEarQjH+chNMT+R8m986FijUazD5YWT17i39aCJrQk9sOYuIGuqYo0LskBDWAjeUBsYCDw5MLsUFr3fNKEmDeGau4DIcAMs/rP2K99uOrXwNKAWMEW+cfErpCruSS4AJiFmrc2YwGxKrpv0nv4T5XWnJt7T9VMYQa4cTFal6zvhD/ZF3pJu9pgZgcmGOdfL/kT/idL92rFGt2KtBCf34Kxx1SRpYq/ATFQl4ewWXCfHMzmi5551U/IMq6rgRawEH5oMm8iWH6gG7kuui/0DWaC7kaH89qhCDVuqjS1sT7JAdS+DBlYTmx3VQZFwLZSDjCzQ23Kg3Dz5/ohCDWZAtRHDWpGwich5iNfcpWSbCcMxi5/5y0pQZdWoHigcSCoDnjXu3MxEbhKKOZfSF8WT7eKUsSQnUn7G506dPPlB180UvR0ZL2JtnadNvPw9dXhRPMXCMI6Flitfu9y1xVqaC731cgvzAmKuyrqJxcQHqpPTImUI5VFQrjQ0iuPr7aMJNUSXOqquwev0QnImctTc8RTHkr2T3//iMZTfOhXQ8zkz/PsWL2LF2HMyZdDADaZjqp3d/Zh9Mjk+UEaKxwZLW6zp3pop1club09CVTjvK7Igd4p9NfKYmuB0nLMfJouHjCzRBktbLEURkBE9eKhZ++NDRllGyq/4/qRTO09vqUUoyuk+KVmI2R83O7JDCV51GuA1tQtFyU73izlXw+SLwcOZyLq3Uj7fdBqg3rg7HkXJMqJs93B/3E5sbInxYrA5nf8cKhX54j49UagoUrI//rl42AyOs2S7n08m/DvpZJLn4+l2cYzvNw9FRtpWififdu7C2nVYCwLoCTMZjqOkhdd/e5/p/ocXYzt7FzHLGo90jMco5xwp+JYvfHuZTN9E1Zt1VbyZd7FeAQHG++3iUcohXwGgncbDzLr8cwCbeJyyzT8GcK/jgep7Arz/Uo5pA2DS8MIx/whAO4sHm7X5JwDW8XCb/AMAzSQerjT5WwDdInpgnr8FsIte2OVvANyn0Qv1NX8NYBk9schfAthFb2zzFwCudfTG5Jw/BdDNo0eqLn8GYBu9ssmfADhPolfKKQF+qKuiX8rslgA/so7eWSbADxziJdsGwKJBjQW8T1tFH5XpPQFeWkVPLboE+F/76K1NAvyPpo7eKscE6G+B9cK0SYB/W0avfch+FLAYVbwDCvcXVgnwN6dJ9F7ZJkA20+grvwqBF25VDELt/VFgEQMxuyfgRs5AVLd8ZsAmBmTeJuAN94FYdgk8q32JYbkk8KSOkxgEA1LgVMcgeGsGONcxRLsEDNwHouwSeDLXWQzVNnsIkFcSC2hmERIL0F9JLEBeSSyQVxILkFefap2jB5ymMQ6XLscNONYxFss2xwzYlRiP+S3HC9iWGJPqmoD3RQdi1uQoAd0lRmd6yhEC2kWM0GSXowNcqxindZeA+dVALG45JsBuEuNVNTkaQLeOUauPORLAbRmDoHoHmlmM36pNYPgOdTyBosiC4es2JZ5DvU9g0K7zeB6rLoHhOk6jH+wbAMfBl6aHBAbpvoinU9ZtAo6DA1GdExiYdl3iOU02XQJDcprF85o3CWjbB6LeJjAQTRVPriyuCQzBdhJM99l7QDOPEhEsmgR6rdtMgn+abNoE+utUBf9VnRLoqduqBP+rrG4J9NFhGrhdCEPQLIIfWZwT6JV2Uwc/Vlb3BPpjPw1+rt60CfTDaR78UpntE+iB6yVQZcEQtJtJ/AnKpUnggdrtNP4UZXVN4EG63Sxeg4nIgsfo9rN4LSY2DiCuhqNe3/IrAccqeKt6fc0vAnS7Kt6DyeWcgD+DQ7E8JvDJ7ps6PgTVrkvg8zSrSXwYZts2gc9xXJb4QJQyWZ3zwwG3bRV8guqDP7OAs7PgZylRf9xnFtDu58FnKot9m+8HnFd18Onqy6HL9wCu2yq+CFNHQ3i7224RX4pq0+SrAe3hMokvR5lvr/kKQLu/1MGjVOtT/hHgvlvWwWNNV4c2gV9rtosS9EG93F0T+In2uJ4FvVEiZqv9LYH/0503i0nQP6USWvC/mm2vWysm8/XB8RCyPW2X0yhB702Xm8MtnxU0u9V8EgxIqS7b0y2fCnTNfj2vgwEqEfV8tT3ec/Sgaw6bSzUJBm+6WG0P51uOELTNcbdezkqMC5NqsdrsTs0tYfDa6/mwXS3n0/iHEmNFmc7mi8tqs93tj8fj+XxumvsN+qtpmvP5dDwe9rvN+rKcV9NJjB0AAAAAAAAAAAAAAAAAAAAAAAAAAAAAAAAAAAAAAAAAAAAAAAAAfwUhwXx8Z7NZywAAAABJRU5ErkJggg==;" vertex="1" parent="1">
          <mxGeometry x="300" y="474.64" width="62.5" height="38.71" as="geometry" />
        </mxCell>
      </root>
    </mxGraphModel>
  </diagram>
</mxfile>
